# MagicaVoxel @ Ephtracy

# group
g wall1

# material
mtllib wall1.mtl
usemtl palette

# normals
vn -1 0 0
vn 1 0 0
vn 0 0 1
vn 0 0 -1
vn 0 -1 0
vn 0 1 0

# texcoords
vt 0.970703 0.5
vt 0.974609 0.5
vt 0.978516 0.5

# verts
v -16 0 2
v -16 0 -2
v -16 1 1
v -16 1 -0
v -16 1 -1
v -16 3 1
v -16 3 -0
v -16 3 -1
v -16 4 -0
v -16 4 -1
v -16 5 1
v -16 5 -1
v -16 6 1
v -16 6 -1
v -16 7 1
v -16 7 -1
v -16 8 1
v -16 8 -0
v -16 10 1
v -16 10 -0
v -16 10 -1
v -16 12 1
v -16 12 -0
v -16 13 1
v -16 13 -0
v -16 14 1
v -16 14 -0
v -16 14 -1
v -16 16 1
v -16 16 -0
v -16 16 -1
v -16 17 1
v -16 17 -0
v -16 18 -0
v -16 18 -1
v -16 19 1
v -16 19 -0
v -16 20 1
v -16 20 -0
v -16 22 1
v -16 22 -0
v -16 22 -1
v -16 23 2
v -16 23 -2
v 16 0 2
v 16 0 -2
v 16 1 1
v 16 1 -0
v 16 1 -1
v 16 2 1
v 16 2 -0
v 16 3 1
v 16 3 -0
v 16 4 1
v 16 4 -0
v 16 4 -1
v 16 6 -0
v 16 6 -1
v 16 7 -0
v 16 7 -1
v 16 8 1
v 16 8 -0
v 16 8 -1
v 16 10 1
v 16 10 -0
v 16 10 -1
v 16 11 1
v 16 11 -0
v 16 11 -1
v 16 12 1
v 16 12 -0
v 16 13 -0
v 16 13 -1
v 16 15 1
v 16 15 -0
v 16 16 1
v 16 16 -1
v 16 17 1
v 16 17 -0
v 16 18 1
v 16 18 -0
v 16 18 -1
v 16 20 -0
v 16 20 -1
v 16 21 1
v 16 21 -0
v 16 22 1
v 16 22 -0
v 16 22 -1
v 16 23 2
v 16 23 -2
v -16 0 2
v -16 23 2
v -15 1 2
v -15 22 2
v -14 2 2
v -14 21 2
v -13 3 2
v -13 20 2
v -2 2 2
v -2 3 2
v -2 20 2
v -2 21 2
v 2 2 2
v 2 3 2
v 2 20 2
v 2 21 2
v 13 3 2
v 13 20 2
v 14 2 2
v 14 21 2
v 15 1 2
v 15 22 2
v 16 0 2
v 16 23 2
v -16 0 -2
v -16 23 -2
v -15 1 -2
v -15 22 -2
v -14 2 -2
v -14 21 -2
v -13 3 -2
v -13 20 -2
v -2 2 -2
v -2 3 -2
v -2 20 -2
v -2 21 -2
v 2 2 -2
v 2 3 -2
v 2 20 -2
v 2 21 -2
v 13 3 -2
v 13 20 -2
v 14 2 -2
v 14 21 -2
v 15 1 -2
v 15 22 -2
v 16 0 -2
v 16 23 -2
v -16 0 2
v 16 0 2
v -15 0 1
v -14 0 1
v -13 0 1
v -10 0 1
v -9 0 1
v -8 0 1
v -7 0 1
v -4 0 1
v -2 0 1
v 1 0 1
v 2 0 1
v 3 0 1
v 5 0 1
v 6 0 1
v 7 0 1
v 9 0 1
v 10 0 1
v 12 0 1
v 14 0 1
v 15 0 1
v -12 0 -0
v -10 0 -0
v -9 0 -0
v -8 0 -0
v -7 0 -0
v -6 0 -0
v -5 0 -0
v -4 0 -0
v -2 0 -0
v -1 0 -0
v 1 0 -0
v 2 0 -0
v 4 0 -0
v 5 0 -0
v 6 0 -0
v 7 0 -0
v 8 0 -0
v 9 0 -0
v 10 0 -0
v 12 0 -0
v 13 0 -0
v 14 0 -0
v 15 0 -0
v -15 0 -1
v -14 0 -1
v -13 0 -1
v -12 0 -1
v -10 0 -1
v -6 0 -1
v -5 0 -1
v -1 0 -1
v 1 0 -1
v 3 0 -1
v 4 0 -1
v 7 0 -1
v 8 0 -1
v 10 0 -1
v 13 0 -1
v 14 0 -1
v 15 0 -1
v -16 0 -2
v 16 0 -2
v -16 23 2
v 16 23 2
v -15 23 1
v -13 23 1
v -11 23 1
v -10 23 1
v -5 23 1
v -4 23 1
v 1 23 1
v 2 23 1
v 6 23 1
v 7 23 1
v 11 23 1
v 12 23 1
v 13 23 1
v 14 23 1
v 15 23 1
v -15 23 -0
v -13 23 -0
v -12 23 -0
v -9 23 -0
v -6 23 -0
v -5 23 -0
v -4 23 -0
v -2 23 -0
v -1 23 -0
v 1 23 -0
v 4 23 -0
v 5 23 -0
v 6 23 -0
v 7 23 -0
v 8 23 -0
v 11 23 -0
v 12 23 -0
v -15 23 -1
v -13 23 -1
v -12 23 -1
v -11 23 -1
v -10 23 -1
v -9 23 -1
v -6 23 -1
v -4 23 -1
v -2 23 -1
v -1 23 -1
v 2 23 -1
v 4 23 -1
v 5 23 -1
v 8 23 -1
v 11 23 -1
v 13 23 -1
v 14 23 -1
v 15 23 -1
v -16 23 -2
v 16 23 -2

# faces
f 3/1/1 2/1/1 1/1/1
f 4/1/1 2/1/1 3/1/1
f 5/1/1 2/1/1 4/1/1
f 6/1/1 3/1/1 1/1/1
f 6/3/1 4/3/1 3/3/1
f 7/2/1 5/2/1 4/2/1
f 7/3/1 4/3/1 6/3/1
f 8/1/1 2/1/1 5/1/1
f 8/2/1 5/2/1 7/2/1
f 9/2/1 7/2/1 6/2/1
f 9/3/1 8/3/1 7/3/1
f 10/1/1 2/1/1 8/1/1
f 10/3/1 8/3/1 9/3/1
f 11/2/1 9/2/1 6/2/1
f 11/1/1 6/1/1 1/1/1
f 11/2/1 10/2/1 9/2/1
f 12/1/1 2/1/1 10/1/1
f 12/2/1 10/2/1 11/2/1
f 13/1/1 11/1/1 1/1/1
f 13/3/1 12/3/1 11/3/1
f 14/1/1 2/1/1 12/1/1
f 14/3/1 12/3/1 13/3/1
f 15/1/1 13/1/1 1/1/1
f 15/2/1 14/2/1 13/2/1
f 16/1/1 2/1/1 14/1/1
f 16/2/1 14/2/1 15/2/1
f 17/1/1 15/1/1 1/1/1
f 17/3/1 16/3/1 15/3/1
f 18/3/1 16/3/1 17/3/1
f 19/1/1 17/1/1 1/1/1
f 19/2/1 18/2/1 17/2/1
f 20/3/1 16/3/1 18/3/1
f 20/2/1 18/2/1 19/2/1
f 21/1/1 2/1/1 16/1/1
f 21/3/1 16/3/1 20/3/1
f 22/3/1 20/3/1 19/3/1
f 22/1/1 19/1/1 1/1/1
f 23/2/1 21/2/1 20/2/1
f 23/3/1 20/3/1 22/3/1
f 24/1/1 22/1/1 1/1/1
f 24/2/1 23/2/1 22/2/1
f 25/2/1 21/2/1 23/2/1
f 25/2/1 23/2/1 24/2/1
f 26/1/1 24/1/1 1/1/1
f 26/3/1 25/3/1 24/3/1
f 27/2/1 21/2/1 25/2/1
f 27/3/1 25/3/1 26/3/1
f 28/1/1 2/1/1 21/1/1
f 28/2/1 21/2/1 27/2/1
f 29/2/1 27/2/1 26/2/1
f 29/1/1 26/1/1 1/1/1
f 30/3/1 28/3/1 27/3/1
f 30/2/1 27/2/1 29/2/1
f 31/1/1 2/1/1 28/1/1
f 31/3/1 28/3/1 30/3/1
f 32/3/1 30/3/1 29/3/1
f 32/1/1 29/1/1 1/1/1
f 33/2/1 31/2/1 30/2/1
f 33/3/1 30/3/1 32/3/1
f 34/2/1 33/2/1 32/2/1
f 34/2/1 31/2/1 33/2/1
f 35/1/1 2/1/1 31/1/1
f 35/2/1 31/2/1 34/2/1
f 36/2/1 34/2/1 32/2/1
f 36/1/1 32/1/1 1/1/1
f 37/3/1 35/3/1 34/3/1
f 37/2/1 34/2/1 36/2/1
f 38/1/1 36/1/1 1/1/1
f 38/3/1 37/3/1 36/3/1
f 39/3/1 35/3/1 37/3/1
f 39/3/1 37/3/1 38/3/1
f 40/1/1 38/1/1 1/1/1
f 40/2/1 39/2/1 38/2/1
f 41/3/1 35/3/1 39/3/1
f 41/2/1 39/2/1 40/2/1
f 42/1/1 2/1/1 35/1/1
f 42/3/1 35/3/1 41/3/1
f 43/1/1 41/1/1 40/1/1
f 43/1/1 40/1/1 1/1/1
f 43/1/1 42/1/1 41/1/1
f 44/1/1 2/1/1 42/1/1
f 44/1/1 42/1/1 43/1/1
f 45/1/2 46/1/2 47/1/2
f 47/1/2 46/1/2 48/1/2
f 48/1/2 46/1/2 49/1/2
f 45/1/2 47/1/2 50/1/2
f 47/3/2 48/3/2 50/3/2
f 48/2/2 49/2/2 51/2/2
f 50/3/2 48/3/2 51/3/2
f 45/1/2 50/1/2 52/1/2
f 50/2/2 51/2/2 52/2/2
f 51/2/2 49/2/2 53/2/2
f 52/2/2 51/2/2 53/2/2
f 45/1/2 52/1/2 54/1/2
f 52/3/2 53/3/2 54/3/2
f 53/2/2 49/2/2 55/2/2
f 54/3/2 53/3/2 55/3/2
f 49/1/2 46/1/2 56/1/2
f 55/2/2 49/2/2 56/2/2
f 54/2/2 55/2/2 57/2/2
f 55/3/2 56/3/2 57/3/2
f 56/1/2 46/1/2 58/1/2
f 57/3/2 56/3/2 58/3/2
f 54/2/2 57/2/2 59/2/2
f 57/2/2 58/2/2 59/2/2
f 58/1/2 46/1/2 60/1/2
f 59/2/2 58/2/2 60/2/2
f 54/2/2 59/2/2 61/2/2
f 45/1/2 54/1/2 61/1/2
f 59/3/2 60/3/2 62/3/2
f 61/2/2 59/2/2 62/2/2
f 60/1/2 46/1/2 63/1/2
f 62/3/2 60/3/2 63/3/2
f 61/3/2 62/3/2 64/3/2
f 45/1/2 61/1/2 64/1/2
f 62/2/2 63/2/2 65/2/2
f 64/3/2 62/3/2 65/3/2
f 63/1/2 46/1/2 66/1/2
f 65/2/2 63/2/2 66/2/2
f 64/2/2 65/2/2 67/2/2
f 45/1/2 64/1/2 67/1/2
f 65/3/2 66/3/2 68/3/2
f 67/2/2 65/2/2 68/2/2
f 66/1/2 46/1/2 69/1/2
f 68/3/2 66/3/2 69/3/2
f 67/3/2 68/3/2 70/3/2
f 45/1/2 67/1/2 70/1/2
f 68/2/2 69/2/2 71/2/2
f 70/3/2 68/3/2 71/3/2
f 70/2/2 71/2/2 72/2/2
f 71/2/2 69/2/2 72/2/2
f 69/1/2 46/1/2 73/1/2
f 72/2/2 69/2/2 73/2/2
f 70/2/2 72/2/2 74/2/2
f 45/1/2 70/1/2 74/1/2
f 72/3/2 73/3/2 75/3/2
f 74/2/2 72/2/2 75/2/2
f 45/1/2 74/1/2 76/1/2
f 74/3/2 75/3/2 76/3/2
f 73/1/2 46/1/2 77/1/2
f 76/3/2 75/3/2 77/3/2
f 75/3/2 73/3/2 77/3/2
f 45/1/2 76/1/2 78/1/2
f 76/2/2 77/2/2 78/2/2
f 78/2/2 77/2/2 79/2/2
f 45/1/2 78/1/2 80/1/2
f 78/3/2 79/3/2 80/3/2
f 79/2/2 77/2/2 81/2/2
f 80/3/2 79/3/2 81/3/2
f 77/1/2 46/1/2 82/1/2
f 81/2/2 77/2/2 82/2/2
f 80/2/2 81/2/2 83/2/2
f 81/3/2 82/3/2 83/3/2
f 82/1/2 46/1/2 84/1/2
f 83/3/2 82/3/2 84/3/2
f 80/2/2 83/2/2 85/2/2
f 45/1/2 80/1/2 85/1/2
f 83/2/2 84/2/2 85/2/2
f 85/2/2 84/2/2 86/2/2
f 45/1/2 85/1/2 87/1/2
f 85/3/2 86/3/2 87/3/2
f 86/2/2 84/2/2 88/2/2
f 87/3/2 86/3/2 88/3/2
f 84/1/2 46/1/2 89/1/2
f 88/2/2 84/2/2 89/2/2
f 87/1/2 88/1/2 90/1/2
f 45/1/2 87/1/2 90/1/2
f 88/1/2 89/1/2 90/1/2
f 89/1/2 46/1/2 91/1/2
f 90/1/2 89/1/2 91/1/2
f 94/1/3 93/1/3 92/1/3
f 95/1/3 93/1/3 94/1/3
f 96/2/3 95/2/3 94/2/3
f 97/2/3 95/2/3 96/2/3
f 98/1/3 97/1/3 96/1/3
f 99/1/3 97/1/3 98/1/3
f 100/2/3 96/2/3 94/2/3
f 100/1/3 98/1/3 96/1/3
f 101/2/3 99/2/3 98/2/3
f 101/1/3 98/1/3 100/1/3
f 102/1/3 97/1/3 99/1/3
f 102/2/3 99/2/3 101/2/3
f 103/2/3 95/2/3 97/2/3
f 103/1/3 97/1/3 102/1/3
f 104/3/3 101/3/3 100/3/3
f 104/2/3 100/2/3 94/2/3
f 105/2/3 102/2/3 101/2/3
f 105/3/3 101/3/3 104/3/3
f 106/3/3 103/3/3 102/3/3
f 106/2/3 102/2/3 105/2/3
f 107/2/3 95/2/3 103/2/3
f 107/3/3 103/3/3 106/3/3
f 108/2/3 106/2/3 105/2/3
f 108/1/3 105/1/3 104/1/3
f 109/1/3 107/1/3 106/1/3
f 109/2/3 106/2/3 108/2/3
f 110/2/3 104/2/3 94/2/3
f 110/1/3 108/1/3 104/1/3
f 110/1/3 109/1/3 108/1/3
f 111/2/3 95/2/3 107/2/3
f 111/1/3 109/1/3 110/1/3
f 111/1/3 107/1/3 109/1/3
f 112/1/3 94/1/3 92/1/3
f 112/2/3 110/2/3 94/2/3
f 112/2/3 111/2/3 110/2/3
f 113/2/3 95/2/3 111/2/3
f 113/2/3 111/2/3 112/2/3
f 113/1/3 93/1/3 95/1/3
f 114/1/3 112/1/3 92/1/3
f 114/1/3 113/1/3 112/1/3
f 115/1/3 93/1/3 113/1/3
f 115/1/3 113/1/3 114/1/3
f 116/1/4 117/1/4 118/1/4
f 118/1/4 117/1/4 119/1/4
f 118/2/4 119/2/4 120/2/4
f 120/2/4 119/2/4 121/2/4
f 120/1/4 121/1/4 122/1/4
f 122/1/4 121/1/4 123/1/4
f 118/2/4 120/2/4 124/2/4
f 120/1/4 122/1/4 124/1/4
f 122/2/4 123/2/4 125/2/4
f 124/1/4 122/1/4 125/1/4
f 123/1/4 121/1/4 126/1/4
f 125/2/4 123/2/4 126/2/4
f 121/2/4 119/2/4 127/2/4
f 126/1/4 121/1/4 127/1/4
f 124/3/4 125/3/4 128/3/4
f 118/2/4 124/2/4 128/2/4
f 125/2/4 126/2/4 129/2/4
f 128/3/4 125/3/4 129/3/4
f 126/3/4 127/3/4 130/3/4
f 129/2/4 126/2/4 130/2/4
f 127/2/4 119/2/4 131/2/4
f 130/3/4 127/3/4 131/3/4
f 129/2/4 130/2/4 132/2/4
f 128/1/4 129/1/4 132/1/4
f 130/1/4 131/1/4 133/1/4
f 132/2/4 130/2/4 133/2/4
f 118/2/4 128/2/4 134/2/4
f 128/1/4 132/1/4 134/1/4
f 132/1/4 133/1/4 134/1/4
f 131/2/4 119/2/4 135/2/4
f 134/1/4 133/1/4 135/1/4
f 133/1/4 131/1/4 135/1/4
f 116/1/4 118/1/4 136/1/4
f 118/2/4 134/2/4 136/2/4
f 134/2/4 135/2/4 136/2/4
f 135/2/4 119/2/4 137/2/4
f 136/2/4 135/2/4 137/2/4
f 119/1/4 117/1/4 137/1/4
f 116/1/4 136/1/4 138/1/4
f 136/1/4 137/1/4 138/1/4
f 137/1/4 117/1/4 139/1/4
f 138/1/4 137/1/4 139/1/4
f 142/1/5 141/1/5 140/1/5
f 143/1/5 141/1/5 142/1/5
f 144/1/5 141/1/5 143/1/5
f 145/1/5 141/1/5 144/1/5
f 146/1/5 141/1/5 145/1/5
f 147/1/5 141/1/5 146/1/5
f 148/1/5 141/1/5 147/1/5
f 149/1/5 141/1/5 148/1/5
f 150/1/5 141/1/5 149/1/5
f 151/1/5 141/1/5 150/1/5
f 152/1/5 141/1/5 151/1/5
f 153/1/5 141/1/5 152/1/5
f 154/1/5 141/1/5 153/1/5
f 155/1/5 141/1/5 154/1/5
f 156/1/5 141/1/5 155/1/5
f 157/1/5 141/1/5 156/1/5
f 158/1/5 141/1/5 157/1/5
f 159/1/5 141/1/5 158/1/5
f 160/1/5 141/1/5 159/1/5
f 161/1/5 141/1/5 160/1/5
f 162/2/5 145/2/5 144/2/5
f 163/3/5 146/3/5 145/3/5
f 163/2/5 145/2/5 162/2/5
f 164/2/5 147/2/5 146/2/5
f 164/3/5 146/3/5 163/3/5
f 165/3/5 148/3/5 147/3/5
f 165/2/5 147/2/5 164/2/5
f 166/2/5 149/2/5 148/2/5
f 166/3/5 148/3/5 165/3/5
f 167/2/5 149/2/5 166/2/5
f 168/2/5 149/2/5 167/2/5
f 169/3/5 150/3/5 149/3/5
f 169/2/5 149/2/5 168/2/5
f 170/2/5 151/2/5 150/2/5
f 170/3/5 150/3/5 169/3/5
f 171/2/5 151/2/5 170/2/5
f 172/3/5 152/3/5 151/3/5
f 172/2/5 151/2/5 171/2/5
f 173/2/5 153/2/5 152/2/5
f 173/3/5 152/3/5 172/3/5
f 174/3/5 154/3/5 153/3/5
f 175/2/5 155/2/5 154/2/5
f 175/3/5 154/3/5 174/3/5
f 176/3/5 156/3/5 155/3/5
f 176/2/5 155/2/5 175/2/5
f 177/2/5 157/2/5 156/2/5
f 177/3/5 156/3/5 176/3/5
f 178/2/5 157/2/5 177/2/5
f 179/3/5 158/3/5 157/3/5
f 179/2/5 157/2/5 178/2/5
f 180/2/5 159/2/5 158/2/5
f 180/3/5 158/3/5 179/3/5
f 181/3/5 160/3/5 159/3/5
f 181/2/5 159/2/5 180/2/5
f 182/3/5 160/3/5 181/3/5
f 183/2/5 161/2/5 160/2/5
f 183/3/5 160/3/5 182/3/5
f 184/1/5 141/1/5 161/1/5
f 184/2/5 161/2/5 183/2/5
f 185/1/5 142/1/5 140/1/5
f 185/2/5 143/2/5 142/2/5
f 186/3/5 144/3/5 143/3/5
f 186/2/5 143/2/5 185/2/5
f 187/2/5 162/2/5 144/2/5
f 187/3/5 144/3/5 186/3/5
f 188/3/5 163/3/5 162/3/5
f 188/2/5 162/2/5 187/2/5
f 189/2/5 164/2/5 163/2/5
f 189/3/5 163/3/5 188/3/5
f 189/2/5 165/2/5 164/2/5
f 189/2/5 166/2/5 165/2/5
f 189/2/5 167/2/5 166/2/5
f 190/3/5 168/3/5 167/3/5
f 190/2/5 167/2/5 189/2/5
f 191/2/5 169/2/5 168/2/5
f 191/3/5 168/3/5 190/3/5
f 191/2/5 171/2/5 170/2/5
f 191/2/5 170/2/5 169/2/5
f 192/3/5 172/3/5 171/3/5
f 192/2/5 171/2/5 191/2/5
f 193/2/5 173/2/5 172/2/5
f 193/3/5 172/3/5 192/3/5
f 194/2/5 153/2/5 173/2/5
f 194/2/5 173/2/5 193/2/5
f 194/3/5 174/3/5 153/3/5
f 195/2/5 177/2/5 176/2/5
f 195/3/5 174/3/5 194/3/5
f 195/2/5 175/2/5 174/2/5
f 195/2/5 176/2/5 175/2/5
f 196/3/5 178/3/5 177/3/5
f 196/2/5 177/2/5 195/2/5
f 197/2/5 180/2/5 179/2/5
f 197/3/5 178/3/5 196/3/5
f 197/2/5 179/2/5 178/2/5
f 198/3/5 181/3/5 180/3/5
f 198/2/5 180/2/5 197/2/5
f 198/3/5 182/3/5 181/3/5
f 199/2/5 183/2/5 182/2/5
f 199/3/5 182/3/5 198/3/5
f 200/3/5 184/3/5 183/3/5
f 200/2/5 183/2/5 199/2/5
f 201/1/5 141/1/5 184/1/5
f 201/3/5 184/3/5 200/3/5
f 202/1/5 200/1/5 199/1/5
f 202/1/5 199/1/5 198/1/5
f 202/1/5 201/1/5 200/1/5
f 202/1/5 196/1/5 195/1/5
f 202/1/5 195/1/5 194/1/5
f 202/1/5 194/1/5 193/1/5
f 202/1/5 193/1/5 192/1/5
f 202/1/5 191/1/5 190/1/5
f 202/1/5 192/1/5 191/1/5
f 202/1/5 190/1/5 189/1/5
f 202/1/5 189/1/5 188/1/5
f 202/1/5 197/1/5 196/1/5
f 202/1/5 188/1/5 187/1/5
f 202/1/5 187/1/5 186/1/5
f 202/1/5 186/1/5 185/1/5
f 202/1/5 198/1/5 197/1/5
f 202/1/5 185/1/5 140/1/5
f 203/1/5 141/1/5 201/1/5
f 203/1/5 201/1/5 202/1/5
f 204/1/6 205/1/6 206/1/6
f 206/1/6 205/1/6 207/1/6
f 207/1/6 205/1/6 208/1/6
f 208/1/6 205/1/6 209/1/6
f 209/1/6 205/1/6 210/1/6
f 210/1/6 205/1/6 211/1/6
f 211/1/6 205/1/6 212/1/6
f 212/1/6 205/1/6 213/1/6
f 213/1/6 205/1/6 214/1/6
f 214/1/6 205/1/6 215/1/6
f 215/1/6 205/1/6 216/1/6
f 216/1/6 205/1/6 217/1/6
f 217/1/6 205/1/6 218/1/6
f 218/1/6 205/1/6 219/1/6
f 219/1/6 205/1/6 220/1/6
f 204/1/6 206/1/6 221/1/6
f 206/3/6 207/3/6 221/3/6
f 207/2/6 208/2/6 222/2/6
f 221/3/6 207/3/6 222/3/6
f 222/2/6 208/2/6 223/2/6
f 209/2/6 210/2/6 224/2/6
f 224/2/6 210/2/6 225/2/6
f 210/3/6 211/3/6 226/3/6
f 225/2/6 210/2/6 226/2/6
f 211/2/6 212/2/6 227/2/6
f 226/3/6 211/3/6 227/3/6
f 227/2/6 212/2/6 228/2/6
f 228/2/6 212/2/6 229/2/6
f 212/3/6 213/3/6 230/3/6
f 229/2/6 212/2/6 230/2/6
f 213/2/6 214/2/6 231/2/6
f 231/2/6 214/2/6 232/2/6
f 214/3/6 215/3/6 233/3/6
f 232/2/6 214/2/6 233/2/6
f 215/2/6 216/2/6 234/2/6
f 233/3/6 215/3/6 234/3/6
f 234/2/6 216/2/6 235/2/6
f 216/3/6 217/3/6 236/3/6
f 235/2/6 216/2/6 236/2/6
f 217/2/6 218/2/6 237/2/6
f 236/3/6 217/3/6 237/3/6
f 204/1/6 221/1/6 238/1/6
f 221/2/6 222/2/6 238/2/6
f 222/3/6 223/3/6 239/3/6
f 238/2/6 222/2/6 239/2/6
f 223/2/6 208/2/6 240/2/6
f 239/3/6 223/3/6 240/3/6
f 208/3/6 209/3/6 241/3/6
f 240/2/6 208/2/6 241/2/6
f 209/2/6 224/2/6 242/2/6
f 241/3/6 209/3/6 242/3/6
f 224/3/6 225/3/6 243/3/6
f 242/2/6 224/2/6 243/2/6
f 225/2/6 226/2/6 244/2/6
f 243/3/6 225/3/6 244/3/6
f 226/2/6 227/2/6 244/2/6
f 227/3/6 228/3/6 245/3/6
f 244/2/6 227/2/6 245/2/6
f 228/2/6 229/2/6 246/2/6
f 245/3/6 228/3/6 246/3/6
f 229/3/6 230/3/6 247/3/6
f 246/2/6 229/2/6 247/2/6
f 230/3/6 213/3/6 248/3/6
f 247/3/6 230/3/6 248/3/6
f 213/2/6 231/2/6 248/2/6
f 231/3/6 232/3/6 249/3/6
f 248/2/6 231/2/6 249/2/6
f 232/2/6 233/2/6 250/2/6
f 249/3/6 232/3/6 250/3/6
f 234/2/6 235/2/6 250/2/6
f 233/2/6 234/2/6 250/2/6
f 235/3/6 236/3/6 251/3/6
f 250/2/6 235/2/6 251/2/6
f 236/2/6 237/2/6 252/2/6
f 251/3/6 236/3/6 252/3/6
f 237/2/6 218/2/6 253/2/6
f 252/2/6 237/2/6 253/2/6
f 218/3/6 219/3/6 253/3/6
f 219/2/6 220/2/6 254/2/6
f 253/3/6 219/3/6 254/3/6
f 220/1/6 205/1/6 255/1/6
f 254/2/6 220/2/6 255/2/6
f 253/1/6 254/1/6 256/1/6
f 252/1/6 253/1/6 256/1/6
f 254/1/6 255/1/6 256/1/6
f 240/1/6 241/1/6 256/1/6
f 204/1/6 238/1/6 256/1/6
f 250/1/6 251/1/6 256/1/6
f 243/1/6 244/1/6 256/1/6
f 249/1/6 250/1/6 256/1/6
f 245/1/6 246/1/6 256/1/6
f 248/1/6 249/1/6 256/1/6
f 247/1/6 248/1/6 256/1/6
f 246/1/6 247/1/6 256/1/6
f 244/1/6 245/1/6 256/1/6
f 242/1/6 243/1/6 256/1/6
f 241/1/6 242/1/6 256/1/6
f 238/1/6 239/1/6 256/1/6
f 239/1/6 240/1/6 256/1/6
f 251/1/6 252/1/6 256/1/6
f 255/1/6 205/1/6 257/1/6
f 256/1/6 255/1/6 257/1/6
