# MagicaVoxel @ Ephtracy

# group
g turret1C

# material
mtllib turret1C.mtl
usemtl palette

# normals
vn -1 0 0
vn 1 0 0
vn 0 0 1
vn 0 0 -1
vn 0 -1 0
vn 0 1 0

# texcoords
vt 0.845703 0.5
vt 0.849609 0.5
vt 0.853516 0.5
vt 0.857422 0.5

# verts
v -5 0 -0
v -5 0 -4
v -5 2 -0
v -5 2 -4
v -4 0 2
v -4 0 -0
v -4 0 -4
v -4 0 -6
v -4 1 2
v -4 1 1
v -4 1 -5
v -4 1 -6
v -4 2 -0
v -4 2 -4
v -4 3 1
v -4 3 -1
v -4 3 -3
v -4 3 -5
v -4 4 -1
v -4 4 -3
v -3 1 2
v -3 1 1
v -3 1 -5
v -3 1 -6
v -3 3 2
v -3 3 1
v -3 3 -1
v -3 3 -3
v -3 3 -4
v -3 3 -5
v -3 3 -6
v -3 4 1
v -3 4 -1
v -3 4 -3
v -3 4 -4
v -3 4 -5
v -3 12 -3
v -3 12 -4
v -2 0 3
v -2 0 2
v -2 0 -6
v -2 0 -7
v -2 2 3
v -2 2 2
v -2 2 -6
v -2 2 -7
v -2 4 1
v -2 4 -3
v -2 5 1
v -2 5 -3
v -2 7 7
v -2 7 -3
v -2 7 -4
v -2 7 -5
v -2 8 5
v -2 8 4
v -2 8 1
v -2 8 -3
v -2 9 5
v -2 9 4
v -2 9 3
v -2 9 2
v -2 9 1
v -2 9 -3
v -2 10 5
v -2 10 4
v -2 10 3
v -2 10 2
v -2 10 1
v -2 10 -3
v -2 11 7
v -2 11 5
v -2 11 4
v -2 11 -3
v -2 11 -4
v -2 11 -5
v -2 12 -3
v -2 12 -4
v -2 13 -3
v -2 13 -4
v -1 3 2
v -1 3 1
v -1 3 -5
v -1 3 -6
v -1 4 2
v -1 4 1
v -1 4 -4
v -1 4 -5
v -1 4 -6
v -1 5 1
v -1 5 -3
v -1 7 1
v -1 7 -3
v -1 7 -4
v -1 7 -5
v 1 8 7
v 1 8 6
v 1 10 7
v 1 10 6
v -1 8 7
v -1 8 6
v -1 10 7
v -1 10 6
v 1 3 2
v 1 3 1
v 1 3 -5
v 1 3 -6
v 1 4 2
v 1 4 1
v 1 4 -4
v 1 4 -5
v 1 4 -6
v 1 5 1
v 1 5 -3
v 1 7 1
v 1 7 -3
v 1 7 -4
v 1 7 -5
v 2 0 3
v 2 0 2
v 2 0 -6
v 2 0 -7
v 2 2 3
v 2 2 2
v 2 2 -6
v 2 2 -7
v 2 4 1
v 2 4 -3
v 2 5 1
v 2 5 -3
v 2 7 7
v 2 7 -3
v 2 7 -4
v 2 7 -5
v 2 8 5
v 2 8 4
v 2 8 1
v 2 8 -3
v 2 9 5
v 2 9 4
v 2 9 3
v 2 9 2
v 2 9 1
v 2 9 -3
v 2 10 5
v 2 10 4
v 2 10 3
v 2 10 2
v 2 10 1
v 2 10 -3
v 2 11 7
v 2 11 5
v 2 11 4
v 2 11 -3
v 2 11 -4
v 2 11 -5
v 2 12 -3
v 2 12 -4
v 2 13 -3
v 2 13 -4
v 3 1 2
v 3 1 1
v 3 1 -5
v 3 1 -6
v 3 3 2
v 3 3 1
v 3 3 -1
v 3 3 -3
v 3 3 -4
v 3 3 -5
v 3 3 -6
v 3 4 1
v 3 4 -1
v 3 4 -3
v 3 4 -4
v 3 4 -5
v 3 12 -3
v 3 12 -4
v 4 0 2
v 4 0 -0
v 4 0 -4
v 4 0 -6
v 4 1 2
v 4 1 1
v 4 1 -5
v 4 1 -6
v 4 2 -0
v 4 2 -4
v 4 3 1
v 4 3 -1
v 4 3 -3
v 4 3 -5
v 4 4 -1
v 4 4 -3
v 5 0 -0
v 5 0 -4
v 5 2 -0
v 5 2 -4
v -2 7 7
v -2 11 7
v -1 8 7
v -1 10 7
v 1 8 7
v 1 10 7
v 2 7 7
v 2 11 7
v -1 8 6
v -1 10 6
v 1 8 6
v 1 10 6
v -2 0 3
v -2 2 3
v 2 0 3
v 2 2 3
v -4 0 2
v -4 1 2
v -3 1 2
v -3 3 2
v -2 0 2
v -2 2 2
v -1 3 2
v -1 4 2
v 1 3 2
v 1 4 2
v 2 0 2
v 2 2 2
v 3 1 2
v 3 3 2
v 4 0 2
v 4 1 2
v -4 1 1
v -4 3 1
v -3 1 1
v -3 3 1
v -3 4 1
v -2 4 1
v -2 5 1
v -1 3 1
v -1 4 1
v -1 5 1
v -1 7 1
v 1 3 1
v 1 4 1
v 1 5 1
v 1 7 1
v 2 4 1
v 2 5 1
v 3 1 1
v 3 3 1
v 3 4 1
v 4 1 1
v 4 3 1
v -5 0 -0
v -5 2 -0
v -4 0 -0
v -4 2 -0
v 4 0 -0
v 4 2 -0
v 5 0 -0
v 5 2 -0
v -4 3 -1
v -4 4 -1
v -3 3 -1
v -3 4 -1
v 3 3 -1
v 3 4 -1
v 4 3 -1
v 4 4 -1
v -3 4 -3
v -3 12 -3
v -2 4 -3
v -2 5 -3
v -2 7 -3
v -2 8 -3
v -2 9 -3
v -2 10 -3
v -2 11 -3
v -2 12 -3
v -2 13 -3
v -1 5 -3
v -1 7 -3
v 1 5 -3
v 1 7 -3
v 2 4 -3
v 2 5 -3
v 2 7 -3
v 2 8 -3
v 2 9 -3
v 2 10 -3
v 2 11 -3
v 2 12 -3
v 2 13 -3
v 3 4 -3
v 3 12 -3
v -4 3 -3
v -4 4 -3
v -3 3 -3
v -3 4 -3
v 3 3 -3
v 3 4 -3
v 4 3 -3
v 4 4 -3
v -5 0 -4
v -5 2 -4
v -4 0 -4
v -4 2 -4
v -3 4 -4
v -3 12 -4
v -2 4 -4
v -2 7 -4
v -2 11 -4
v -2 12 -4
v -2 13 -4
v -1 4 -4
v -1 7 -4
v 1 4 -4
v 1 7 -4
v 2 4 -4
v 2 7 -4
v 2 11 -4
v 2 12 -4
v 2 13 -4
v 3 4 -4
v 3 12 -4
v 4 0 -4
v 4 2 -4
v 5 0 -4
v 5 2 -4
v -4 1 -5
v -4 3 -5
v -3 1 -5
v -3 3 -5
v -3 4 -5
v -2 7 -5
v -2 11 -5
v -1 3 -5
v -1 4 -5
v -1 7 -5
v 1 3 -5
v 1 4 -5
v 1 7 -5
v 2 7 -5
v 2 11 -5
v 3 1 -5
v 3 3 -5
v 3 4 -5
v 4 1 -5
v 4 3 -5
v -4 0 -6
v -4 1 -6
v -3 1 -6
v -3 3 -6
v -2 0 -6
v -2 2 -6
v -1 3 -6
v -1 4 -6
v 1 3 -6
v 1 4 -6
v 2 0 -6
v 2 2 -6
v 3 1 -6
v 3 3 -6
v 4 0 -6
v 4 1 -6
v -2 0 -7
v -2 2 -7
v 2 0 -7
v 2 2 -7
v -2 0 3
v 2 0 3
v -4 0 2
v -2 0 2
v 2 0 2
v 4 0 2
v -5 0 -0
v -4 0 -0
v 4 0 -0
v 5 0 -0
v -5 0 -4
v -4 0 -4
v 4 0 -4
v 5 0 -4
v -4 0 -6
v -2 0 -6
v 2 0 -6
v 4 0 -6
v -2 0 -7
v 2 0 -7
v -2 7 7
v 2 7 7
v -1 7 1
v 1 7 1
v -2 7 -3
v -1 7 -3
v 1 7 -3
v 2 7 -3
v -2 7 -4
v -1 7 -4
v 1 7 -4
v 2 7 -4
v -2 7 -5
v -1 7 -5
v 1 7 -5
v 2 7 -5
v -1 10 7
v 1 10 7
v -1 10 6
v 1 10 6
v -4 1 2
v -3 1 2
v 3 1 2
v 4 1 2
v -4 1 1
v -3 1 1
v 3 1 1
v 4 1 1
v -4 1 -5
v -3 1 -5
v 3 1 -5
v 4 1 -5
v -4 1 -6
v -3 1 -6
v 3 1 -6
v 4 1 -6
v -2 2 3
v 2 2 3
v -2 2 2
v 2 2 2
v -5 2 -0
v -4 2 -0
v 4 2 -0
v 5 2 -0
v -5 2 -4
v -4 2 -4
v 4 2 -4
v 5 2 -4
v -2 2 -6
v 2 2 -6
v -2 2 -7
v 2 2 -7
v -3 3 2
v -1 3 2
v 1 3 2
v 3 3 2
v -4 3 1
v -3 3 1
v -1 3 1
v 1 3 1
v 3 3 1
v 4 3 1
v -4 3 -1
v -3 3 -1
v 3 3 -1
v 4 3 -1
v -4 3 -3
v -3 3 -3
v 3 3 -3
v 4 3 -3
v -3 3 -4
v 3 3 -4
v -4 3 -5
v -3 3 -5
v -1 3 -5
v 1 3 -5
v 3 3 -5
v 4 3 -5
v -3 3 -6
v -1 3 -6
v 1 3 -6
v 3 3 -6
v -1 4 2
v 1 4 2
v -3 4 1
v -2 4 1
v -1 4 1
v 1 4 1
v 2 4 1
v 3 4 1
v -4 4 -1
v -3 4 -1
v 3 4 -1
v 4 4 -1
v -4 4 -3
v -3 4 -3
v -2 4 -3
v 2 4 -3
v 3 4 -3
v 4 4 -3
v -3 4 -4
v -2 4 -4
v -1 4 -4
v 1 4 -4
v 2 4 -4
v 3 4 -4
v -3 4 -5
v -1 4 -5
v 1 4 -5
v 3 4 -5
v -1 4 -6
v 1 4 -6
v -2 5 1
v -1 5 1
v 1 5 1
v 2 5 1
v -2 5 -3
v -1 5 -3
v 1 5 -3
v 2 5 -3
v -1 8 7
v 1 8 7
v -1 8 6
v 1 8 6
v -2 11 7
v 2 11 7
v -2 11 5
v -1 11 5
v 1 11 5
v 2 11 5
v -2 11 4
v -1 11 4
v 1 11 4
v 2 11 4
v -2 11 -3
v 2 11 -3
v -2 11 -4
v 2 11 -4
v -2 11 -5
v 2 11 -5
v -3 12 -3
v -2 12 -3
v 2 12 -3
v 3 12 -3
v -3 12 -4
v -2 12 -4
v 2 12 -4
v 3 12 -4
v -2 13 -3
v 2 13 -3
v -2 13 -4
v 2 13 -4

# faces
f 3/2/1 2/2/1 1/2/1
f 4/2/1 2/2/1 3/2/1
f 9/2/1 6/2/1 5/2/1
f 10/2/1 6/2/1 9/2/1
f 11/2/1 8/2/1 7/2/1
f 12/2/1 8/2/1 11/2/1
f 13/2/1 6/2/1 10/2/1
f 14/2/1 11/2/1 7/2/1
f 15/2/1 13/2/1 10/2/1
f 15/2/1 14/2/1 13/2/1
f 16/2/1 14/2/1 15/2/1
f 17/2/1 14/2/1 16/2/1
f 18/2/1 11/2/1 14/2/1
f 18/2/1 14/2/1 17/2/1
f 19/2/1 17/2/1 16/2/1
f 20/2/1 17/2/1 19/2/1
f 25/2/1 22/2/1 21/2/1
f 26/2/1 22/2/1 25/2/1
f 30/2/1 24/2/1 23/2/1
f 31/2/1 24/2/1 30/2/1
f 32/2/1 27/2/1 26/2/1
f 33/2/1 27/2/1 32/2/1
f 34/3/1 29/3/1 28/3/1
f 35/2/1 30/2/1 29/2/1
f 35/3/1 29/3/1 34/3/1
f 36/2/1 30/2/1 35/2/1
f 37/3/1 35/3/1 34/3/1
f 38/3/1 35/3/1 37/3/1
f 43/2/1 40/2/1 39/2/1
f 44/2/1 40/2/1 43/2/1
f 45/2/1 42/2/1 41/2/1
f 46/2/1 42/2/1 45/2/1
f 49/2/1 48/2/1 47/2/1
f 50/2/1 48/2/1 49/2/1
f 55/2/1 52/2/1 51/2/1
f 56/2/1 52/2/1 55/2/1
f 57/2/1 52/2/1 56/2/1
f 58/2/1 52/2/1 57/2/1
f 59/2/1 55/2/1 51/2/1
f 59/4/1 56/4/1 55/4/1
f 60/2/1 57/2/1 56/2/1
f 60/4/1 56/4/1 59/4/1
f 61/2/1 57/2/1 60/2/1
f 62/2/1 57/2/1 61/2/1
f 63/4/1 58/4/1 57/4/1
f 63/2/1 57/2/1 62/2/1
f 64/4/1 58/4/1 63/4/1
f 65/2/1 59/2/1 51/2/1
f 65/2/1 60/2/1 59/2/1
f 65/2/1 61/2/1 60/2/1
f 66/2/1 61/2/1 65/2/1
f 67/1/1 62/1/1 61/1/1
f 67/2/1 61/2/1 66/2/1
f 68/2/1 63/2/1 62/2/1
f 68/1/1 62/1/1 67/1/1
f 69/1/1 64/1/1 63/1/1
f 69/2/1 63/2/1 68/2/1
f 70/1/1 64/1/1 69/1/1
f 71/2/1 65/2/1 51/2/1
f 72/1/1 66/1/1 65/1/1
f 72/2/1 65/2/1 71/2/1
f 73/2/1 68/2/1 67/2/1
f 73/1/1 66/1/1 72/1/1
f 73/2/1 67/2/1 66/2/1
f 73/2/1 70/2/1 69/2/1
f 73/2/1 69/2/1 68/2/1
f 74/2/1 70/2/1 73/2/1
f 75/2/1 54/2/1 53/2/1
f 76/2/1 54/2/1 75/2/1
f 79/2/1 78/2/1 77/2/1
f 80/2/1 78/2/1 79/2/1
f 85/2/1 82/2/1 81/2/1
f 86/2/1 82/2/1 85/2/1
f 88/2/1 84/2/1 83/2/1
f 89/2/1 84/2/1 88/2/1
f 92/2/1 91/2/1 90/2/1
f 93/2/1 91/2/1 92/2/1
f 94/2/1 88/2/1 87/2/1
f 95/2/1 88/2/1 94/2/1
f 98/2/1 97/2/1 96/2/1
f 99/2/1 97/2/1 98/2/1
f 100/2/2 101/2/2 102/2/2
f 102/2/2 101/2/2 103/2/2
f 104/2/2 105/2/2 108/2/2
f 108/2/2 105/2/2 109/2/2
f 106/2/2 107/2/2 111/2/2
f 111/2/2 107/2/2 112/2/2
f 113/2/2 114/2/2 115/2/2
f 115/2/2 114/2/2 116/2/2
f 110/2/2 111/2/2 117/2/2
f 117/2/2 111/2/2 118/2/2
f 119/2/2 120/2/2 123/2/2
f 123/2/2 120/2/2 124/2/2
f 121/2/2 122/2/2 125/2/2
f 125/2/2 122/2/2 126/2/2
f 127/2/2 128/2/2 129/2/2
f 129/2/2 128/2/2 130/2/2
f 131/2/2 132/2/2 135/2/2
f 135/2/2 132/2/2 136/2/2
f 136/2/2 132/2/2 137/2/2
f 137/2/2 132/2/2 138/2/2
f 131/2/2 135/2/2 139/2/2
f 135/4/2 136/4/2 139/4/2
f 136/2/2 137/2/2 140/2/2
f 139/4/2 136/4/2 140/4/2
f 140/2/2 137/2/2 141/2/2
f 141/2/2 137/2/2 142/2/2
f 137/4/2 138/4/2 143/4/2
f 142/2/2 137/2/2 143/2/2
f 143/4/2 138/4/2 144/4/2
f 131/2/2 139/2/2 145/2/2
f 139/2/2 140/2/2 145/2/2
f 140/2/2 141/2/2 145/2/2
f 145/2/2 141/2/2 146/2/2
f 141/1/2 142/1/2 147/1/2
f 146/2/2 141/2/2 147/2/2
f 142/2/2 143/2/2 148/2/2
f 147/1/2 142/1/2 148/1/2
f 143/1/2 144/1/2 149/1/2
f 148/2/2 143/2/2 149/2/2
f 149/1/2 144/1/2 150/1/2
f 131/2/2 145/2/2 151/2/2
f 145/1/2 146/1/2 152/1/2
f 151/2/2 145/2/2 152/2/2
f 147/2/2 148/2/2 153/2/2
f 152/1/2 146/1/2 153/1/2
f 146/2/2 147/2/2 153/2/2
f 149/2/2 150/2/2 153/2/2
f 148/2/2 149/2/2 153/2/2
f 153/2/2 150/2/2 154/2/2
f 133/2/2 134/2/2 155/2/2
f 155/2/2 134/2/2 156/2/2
f 157/2/2 158/2/2 159/2/2
f 159/2/2 158/2/2 160/2/2
f 161/2/2 162/2/2 165/2/2
f 165/2/2 162/2/2 166/2/2
f 163/2/2 164/2/2 170/2/2
f 170/2/2 164/2/2 171/2/2
f 166/2/2 167/2/2 172/2/2
f 172/2/2 167/2/2 173/2/2
f 168/3/2 169/3/2 174/3/2
f 169/2/2 170/2/2 175/2/2
f 174/3/2 169/3/2 175/3/2
f 175/2/2 170/2/2 176/2/2
f 174/3/2 175/3/2 177/3/2
f 177/3/2 175/3/2 178/3/2
f 179/2/2 180/2/2 183/2/2
f 183/2/2 180/2/2 184/2/2
f 181/2/2 182/2/2 185/2/2
f 185/2/2 182/2/2 186/2/2
f 184/2/2 180/2/2 187/2/2
f 181/2/2 185/2/2 188/2/2
f 184/2/2 187/2/2 189/2/2
f 187/2/2 188/2/2 189/2/2
f 189/2/2 188/2/2 190/2/2
f 190/2/2 188/2/2 191/2/2
f 188/2/2 185/2/2 192/2/2
f 191/2/2 188/2/2 192/2/2
f 190/2/2 191/2/2 193/2/2
f 193/2/2 191/2/2 194/2/2
f 195/2/2 196/2/2 197/2/2
f 197/2/2 196/2/2 198/2/2
f 201/2/3 200/2/3 199/2/3
f 202/2/3 200/2/3 201/2/3
f 203/2/3 201/2/3 199/2/3
f 204/2/3 200/2/3 202/2/3
f 205/2/3 203/2/3 199/2/3
f 205/2/3 204/2/3 203/2/3
f 206/2/3 200/2/3 204/2/3
f 206/2/3 204/2/3 205/2/3
f 209/1/3 208/1/3 207/1/3
f 210/1/3 208/1/3 209/1/3
f 213/2/3 212/2/3 211/2/3
f 214/2/3 212/2/3 213/2/3
f 217/2/3 216/2/3 215/2/3
f 219/2/3 217/2/3 215/2/3
f 219/2/3 218/2/3 217/2/3
f 220/2/3 218/2/3 219/2/3
f 221/2/3 218/2/3 220/2/3
f 223/2/3 221/2/3 220/2/3
f 223/2/3 222/2/3 221/2/3
f 224/2/3 222/2/3 223/2/3
f 226/2/3 223/2/3 220/2/3
f 227/2/3 226/2/3 225/2/3
f 228/2/3 223/2/3 226/2/3
f 228/2/3 226/2/3 227/2/3
f 229/2/3 227/2/3 225/2/3
f 230/2/3 227/2/3 229/2/3
f 233/2/3 232/2/3 231/2/3
f 234/2/3 232/2/3 233/2/3
f 236/2/3 235/2/3 234/2/3
f 238/2/3 236/2/3 234/2/3
f 238/2/3 237/2/3 236/2/3
f 239/2/3 237/2/3 238/2/3
f 240/2/3 237/2/3 239/2/3
f 243/2/3 241/2/3 240/2/3
f 243/2/3 240/2/3 239/2/3
f 244/2/3 241/2/3 243/2/3
f 245/2/3 241/2/3 244/2/3
f 246/2/3 243/2/3 242/2/3
f 246/2/3 244/2/3 243/2/3
f 247/2/3 244/2/3 246/2/3
f 249/2/3 246/2/3 242/2/3
f 250/2/3 246/2/3 249/2/3
f 251/2/3 249/2/3 248/2/3
f 252/2/3 249/2/3 251/2/3
f 255/2/3 254/2/3 253/2/3
f 256/2/3 254/2/3 255/2/3
f 259/2/3 258/2/3 257/2/3
f 260/2/3 258/2/3 259/2/3
f 263/2/3 262/2/3 261/2/3
f 264/2/3 262/2/3 263/2/3
f 267/2/3 266/2/3 265/2/3
f 268/2/3 266/2/3 267/2/3
f 271/3/3 270/3/3 269/3/3
f 272/3/3 270/3/3 271/3/3
f 273/3/3 270/3/3 272/3/3
f 274/3/3 270/3/3 273/3/3
f 275/3/3 270/3/3 274/3/3
f 276/3/3 270/3/3 275/3/3
f 277/3/3 270/3/3 276/3/3
f 278/3/3 270/3/3 277/3/3
f 280/2/3 273/2/3 272/2/3
f 281/2/3 273/2/3 280/2/3
f 285/2/3 283/2/3 282/2/3
f 286/2/3 283/2/3 285/2/3
f 290/2/3 279/2/3 278/2/3
f 290/2/3 278/2/3 277/2/3
f 291/2/3 279/2/3 290/2/3
f 292/2/3 279/2/3 291/2/3
f 293/3/3 289/3/3 288/3/3
f 293/3/3 288/3/3 287/3/3
f 293/3/3 291/3/3 290/3/3
f 293/3/3 290/3/3 289/3/3
f 293/3/3 286/3/3 285/3/3
f 293/3/3 287/3/3 286/3/3
f 293/3/3 285/3/3 284/3/3
f 294/3/3 291/3/3 293/3/3
f 295/2/4 296/2/4 297/2/4
f 297/2/4 296/2/4 298/2/4
f 299/2/4 300/2/4 301/2/4
f 301/2/4 300/2/4 302/2/4
f 303/2/4 304/2/4 305/2/4
f 305/2/4 304/2/4 306/2/4
f 307/3/4 308/3/4 309/3/4
f 309/3/4 308/3/4 310/3/4
f 310/3/4 308/3/4 311/3/4
f 311/3/4 308/3/4 312/3/4
f 309/2/4 310/2/4 314/2/4
f 314/2/4 310/2/4 315/2/4
f 316/2/4 317/2/4 318/2/4
f 318/2/4 317/2/4 319/2/4
f 312/2/4 313/2/4 320/2/4
f 311/2/4 312/2/4 320/2/4
f 320/2/4 313/2/4 321/2/4
f 321/2/4 313/2/4 322/2/4
f 318/3/4 319/3/4 323/3/4
f 319/3/4 320/3/4 323/3/4
f 320/3/4 321/3/4 323/3/4
f 323/3/4 321/3/4 324/3/4
f 325/2/4 326/2/4 327/2/4
f 327/2/4 326/2/4 328/2/4
f 329/2/4 330/2/4 331/2/4
f 331/2/4 330/2/4 332/2/4
f 332/2/4 333/2/4 336/2/4
f 336/2/4 333/2/4 337/2/4
f 334/2/4 335/2/4 338/2/4
f 337/2/4 338/2/4 340/2/4
f 338/2/4 335/2/4 341/2/4
f 340/2/4 338/2/4 341/2/4
f 341/2/4 335/2/4 342/2/4
f 342/2/4 335/2/4 343/2/4
f 339/2/4 340/2/4 345/2/4
f 345/2/4 340/2/4 346/2/4
f 344/2/4 345/2/4 347/2/4
f 347/2/4 345/2/4 348/2/4
f 349/2/4 350/2/4 351/2/4
f 349/2/4 351/2/4 353/2/4
f 351/2/4 352/2/4 353/2/4
f 353/2/4 352/2/4 354/2/4
f 354/2/4 352/2/4 355/2/4
f 354/2/4 355/2/4 357/2/4
f 355/2/4 356/2/4 357/2/4
f 357/2/4 356/2/4 358/2/4
f 354/2/4 357/2/4 360/2/4
f 359/2/4 360/2/4 361/2/4
f 360/2/4 357/2/4 362/2/4
f 361/2/4 360/2/4 362/2/4
f 359/2/4 361/2/4 363/2/4
f 363/2/4 361/2/4 364/2/4
f 365/2/4 366/2/4 367/2/4
f 367/2/4 366/2/4 368/2/4
f 372/2/5 370/2/5 369/2/5
f 373/2/5 370/2/5 372/2/5
f 376/2/5 372/2/5 371/2/5
f 376/2/5 374/2/5 373/2/5
f 376/2/5 373/2/5 372/2/5
f 377/2/5 374/2/5 376/2/5
f 379/2/5 376/2/5 375/2/5
f 379/2/5 378/2/5 377/2/5
f 379/2/5 377/2/5 376/2/5
f 380/2/5 378/2/5 379/2/5
f 381/2/5 378/2/5 380/2/5
f 382/2/5 378/2/5 381/2/5
f 383/2/5 381/2/5 380/2/5
f 384/2/5 381/2/5 383/2/5
f 385/2/5 381/2/5 384/2/5
f 386/2/5 381/2/5 385/2/5
f 387/2/5 385/2/5 384/2/5
f 388/2/5 385/2/5 387/2/5
f 391/2/5 390/2/5 389/2/5
f 392/2/5 390/2/5 391/2/5
f 393/2/5 391/2/5 389/2/5
f 394/2/5 391/2/5 393/2/5
f 395/2/5 390/2/5 392/2/5
f 396/2/5 390/2/5 395/2/5
f 401/2/5 398/2/5 397/2/5
f 402/2/5 398/2/5 401/2/5
f 403/2/5 400/2/5 399/2/5
f 404/2/5 400/2/5 403/2/5
f 407/2/5 406/2/5 405/2/5
f 408/2/5 406/2/5 407/2/5
f 409/2/6 410/2/6 413/2/6
f 413/2/6 410/2/6 414/2/6
f 411/2/6 412/2/6 415/2/6
f 415/2/6 412/2/6 416/2/6
f 417/2/6 418/2/6 421/2/6
f 421/2/6 418/2/6 422/2/6
f 419/2/6 420/2/6 423/2/6
f 423/2/6 420/2/6 424/2/6
f 425/2/6 426/2/6 427/2/6
f 427/2/6 426/2/6 428/2/6
f 429/2/6 430/2/6 433/2/6
f 433/2/6 430/2/6 434/2/6
f 431/2/6 432/2/6 435/2/6
f 435/2/6 432/2/6 436/2/6
f 437/2/6 438/2/6 439/2/6
f 439/2/6 438/2/6 440/2/6
f 441/2/6 442/2/6 446/2/6
f 446/2/6 442/2/6 447/2/6
f 443/2/6 444/2/6 448/2/6
f 448/2/6 444/2/6 449/2/6
f 445/2/6 446/2/6 451/2/6
f 451/2/6 446/2/6 452/2/6
f 449/2/6 450/2/6 453/2/6
f 453/2/6 450/2/6 454/2/6
f 455/2/6 456/2/6 459/2/6
f 457/2/6 458/2/6 460/2/6
f 455/2/6 459/2/6 461/2/6
f 461/2/6 459/2/6 462/2/6
f 460/2/6 458/2/6 465/2/6
f 465/2/6 458/2/6 466/2/6
f 462/2/6 463/2/6 467/2/6
f 467/2/6 463/2/6 468/2/6
f 464/2/6 465/2/6 469/2/6
f 469/2/6 465/2/6 470/2/6
f 471/2/6 472/2/6 475/2/6
f 475/2/6 472/2/6 476/2/6
f 473/2/6 474/2/6 480/2/6
f 477/2/6 478/2/6 481/2/6
f 479/2/6 480/2/6 483/2/6
f 480/2/6 474/2/6 484/2/6
f 483/2/6 480/2/6 484/2/6
f 484/2/6 474/2/6 485/2/6
f 481/2/6 482/2/6 486/2/6
f 477/2/6 481/2/6 486/2/6
f 486/2/6 482/2/6 487/2/6
f 487/2/6 482/2/6 488/2/6
f 489/2/6 490/2/6 495/2/6
f 490/2/6 491/2/6 495/2/6
f 495/2/6 491/2/6 496/2/6
f 493/2/6 494/2/6 497/2/6
f 492/2/6 493/2/6 497/2/6
f 497/2/6 494/2/6 498/2/6
f 496/2/6 497/2/6 499/2/6
f 499/2/6 497/2/6 500/2/6
f 501/2/6 502/2/6 505/2/6
f 505/2/6 502/2/6 506/2/6
f 503/2/6 504/2/6 507/2/6
f 507/2/6 504/2/6 508/2/6
f 509/2/6 510/2/6 511/2/6
f 511/2/6 510/2/6 512/2/6
f 513/2/6 514/2/6 515/2/6
f 515/2/6 514/2/6 516/2/6
f 516/2/6 514/2/6 517/2/6
f 517/2/6 514/2/6 518/2/6
f 515/1/6 516/1/6 519/1/6
f 516/2/6 517/2/6 520/2/6
f 519/1/6 516/1/6 520/1/6
f 517/1/6 518/1/6 521/1/6
f 520/2/6 517/2/6 521/2/6
f 521/1/6 518/1/6 522/1/6
f 519/2/6 520/2/6 523/2/6
f 520/2/6 521/2/6 523/2/6
f 521/2/6 522/2/6 523/2/6
f 523/2/6 522/2/6 524/2/6
f 525/2/6 526/2/6 527/2/6
f 527/2/6 526/2/6 528/2/6
f 529/3/6 530/3/6 533/3/6
f 533/3/6 530/3/6 534/3/6
f 531/3/6 532/3/6 535/3/6
f 535/3/6 532/3/6 536/3/6
f 537/2/6 538/2/6 539/2/6
f 539/2/6 538/2/6 540/2/6
