# MagicaVoxel @ Ephtracy

# group
g turret1B

# material
mtllib turret1B.mtl
usemtl palette

# normals
vn -1 0 0
vn 1 0 0
vn 0 0 1
vn 0 0 -1
vn 0 -1 0
vn 0 1 0

# texcoords
vt 0.845703 0.5
vt 0.849609 0.5

# verts
v -4 7 -2
v -4 7 -3
v -4 8 -2
v -4 8 -3
v -3 0 2
v -3 0 -3
v -3 3 2
v -3 3 -3
v -3 5 -2
v -3 5 -4
v -3 6 -3
v -3 6 -4
v -3 7 -2
v -3 7 -3
v -3 8 -2
v -3 8 -3
v -3 9 -2
v -3 9 -3
v -3 9 -4
v -3 10 -3
v -3 10 -4
v -2 5 -1
v -2 5 -2
v -2 6 6
v -2 6 -1
v -2 6 -3
v -2 6 -4
v -2 6 -6
v -2 7 5
v -2 7 4
v -2 7 3
v -2 7 2
v -2 7 -1
v -2 7 -2
v -2 7 -4
v -2 7 -5
v -2 8 6
v -2 8 5
v -2 8 4
v -2 8 3
v -2 8 2
v -2 8 -1
v -2 8 -2
v -2 8 -4
v -2 8 -5
v -2 9 -1
v -2 9 -2
v -2 9 -3
v -2 9 -4
v -2 9 -6
v -1 2 3
v -1 2 2
v -1 3 2
v -1 3 -0
v -1 3 -2
v -1 4 4
v -1 4 3
v -1 5 6
v -1 5 4
v -1 5 2
v -1 5 -0
v -1 5 -1
v -1 5 -2
v -1 6 6
v -1 6 -1
v -1 8 6
v -1 8 5
v -1 8 4
v -1 8 3
v -1 8 2
v -1 8 1
v -1 8 -0
v -1 8 -1
v -1 9 6
v -1 9 5
v -1 9 4
v -1 9 3
v -1 9 2
v -1 9 1
v -1 9 -0
v -1 9 -1
v -1 9 -3
v -1 10 -1
v -1 10 -2
v -1 10 -3
v -1 10 -4
v -1 11 -2
v -1 11 -3
v -1 12 -3
v -1 12 -4
v 1 6 6
v 1 6 5
v 1 6 -4
v 1 6 -6
v 1 7 -4
v 1 7 -5
v 1 8 6
v 1 8 5
v 1 8 -4
v 1 8 -5
v 1 9 -4
v 1 9 -6
v -1 6 6
v -1 6 5
v -1 6 -4
v -1 6 -6
v -1 7 -4
v -1 7 -5
v -1 8 6
v -1 8 5
v -1 8 -4
v -1 8 -5
v -1 9 -4
v -1 9 -6
v 1 2 3
v 1 2 2
v 1 3 2
v 1 3 -0
v 1 3 -2
v 1 4 4
v 1 4 3
v 1 5 6
v 1 5 4
v 1 5 2
v 1 5 -0
v 1 5 -2
v 1 6 6
v 1 6 -0
v 1 8 6
v 1 8 5
v 1 8 4
v 1 8 3
v 1 8 2
v 1 8 1
v 1 8 -0
v 1 9 6
v 1 9 5
v 1 9 4
v 1 9 3
v 1 9 2
v 1 9 1
v 1 9 -0
v 1 9 -1
v 1 9 -3
v 1 10 -1
v 1 10 -2
v 1 10 -3
v 1 10 -4
v 1 11 -2
v 1 11 -3
v 1 12 -3
v 1 12 -4
v 2 5 -0
v 2 5 -3
v 2 6 6
v 2 6 -0
v 2 6 -2
v 2 6 -3
v 2 6 -4
v 2 6 -6
v 2 7 5
v 2 7 4
v 2 7 3
v 2 7 2
v 2 7 -1
v 2 7 -2
v 2 7 -4
v 2 7 -5
v 2 8 6
v 2 8 5
v 2 8 4
v 2 8 3
v 2 8 2
v 2 8 -0
v 2 8 -1
v 2 8 -2
v 2 8 -4
v 2 8 -5
v 2 9 -0
v 2 9 -2
v 2 9 -3
v 2 9 -4
v 2 9 -6
v 3 0 2
v 3 0 -3
v 3 3 2
v 3 3 -3
v 3 5 -3
v 3 5 -4
v 3 6 -2
v 3 6 -3
v 3 6 -4
v 3 7 -2
v 3 7 -3
v 3 8 -2
v 3 8 -3
v 3 9 -2
v 3 9 -3
v 3 9 -4
v 3 10 -3
v 3 10 -4
v 4 7 -2
v 4 7 -3
v 4 8 -2
v 4 8 -3
v -2 6 6
v -2 8 6
v -1 5 6
v -1 6 6
v -1 8 6
v -1 9 6
v 1 5 6
v 1 6 6
v 1 8 6
v 1 9 6
v 2 6 6
v 2 8 6
v -1 6 5
v -1 8 5
v 1 6 5
v 1 8 5
v -1 4 4
v -1 5 4
v 1 4 4
v 1 5 4
v -1 2 3
v -1 4 3
v 1 2 3
v 1 4 3
v -3 0 2
v -3 3 2
v -1 2 2
v -1 3 2
v 1 2 2
v 1 3 2
v 3 0 2
v 3 3 2
v -1 3 -0
v -1 5 -0
v 1 3 -0
v 1 5 -0
v 1 6 -0
v 1 8 -0
v 1 9 -0
v 2 5 -0
v 2 6 -0
v 2 8 -0
v 2 9 -0
v -2 5 -1
v -2 6 -1
v -2 8 -1
v -2 9 -1
v -1 5 -1
v -1 6 -1
v -1 8 -1
v -1 9 -1
v -1 10 -1
v 1 9 -1
v 1 10 -1
v -4 7 -2
v -4 8 -2
v -3 5 -2
v -3 7 -2
v -3 8 -2
v -3 9 -2
v -2 5 -2
v -2 7 -2
v -2 8 -2
v -2 9 -2
v -1 10 -2
v -1 11 -2
v 1 10 -2
v 1 11 -2
v 2 6 -2
v 2 7 -2
v 2 8 -2
v 2 9 -2
v 3 6 -2
v 3 7 -2
v 3 8 -2
v 3 9 -2
v 4 7 -2
v 4 8 -2
v -3 9 -3
v -3 10 -3
v -1 9 -3
v -1 10 -3
v -1 11 -3
v -1 12 -3
v 1 9 -3
v 1 10 -3
v 1 11 -3
v 1 12 -3
v 2 5 -3
v 2 6 -3
v 3 5 -3
v 3 6 -3
v 3 9 -3
v 3 10 -3
v -2 7 -5
v -2 8 -5
v -1 7 -5
v -1 8 -5
v 1 7 -5
v 1 8 -5
v 2 7 -5
v 2 8 -5
v -1 3 2
v -1 5 2
v 1 3 2
v 1 5 2
v -1 3 -2
v -1 5 -2
v 1 3 -2
v 1 5 -2
v -4 7 -3
v -4 8 -3
v -3 0 -3
v -3 3 -3
v -3 6 -3
v -3 7 -3
v -3 8 -3
v -3 9 -3
v -2 6 -3
v -2 9 -3
v 2 6 -3
v 2 9 -3
v 3 0 -3
v 3 3 -3
v 3 6 -3
v 3 7 -3
v 3 8 -3
v 3 9 -3
v 4 7 -3
v 4 8 -3
v -3 5 -4
v -3 6 -4
v -3 9 -4
v -3 10 -4
v -2 6 -4
v -2 7 -4
v -2 8 -4
v -2 9 -4
v -1 6 -4
v -1 7 -4
v -1 8 -4
v -1 9 -4
v -1 10 -4
v -1 12 -4
v 1 6 -4
v 1 7 -4
v 1 8 -4
v 1 9 -4
v 1 10 -4
v 1 12 -4
v 2 6 -4
v 2 7 -4
v 2 8 -4
v 2 9 -4
v 3 5 -4
v 3 6 -4
v 3 9 -4
v 3 10 -4
v -2 6 -6
v -2 9 -6
v -1 6 -6
v -1 9 -6
v 1 6 -6
v 1 9 -6
v 2 6 -6
v 2 9 -6
v -3 0 2
v 3 0 2
v -3 0 -3
v 3 0 -3
v -1 2 3
v 1 2 3
v -1 2 2
v 1 2 2
v -1 4 4
v 1 4 4
v -1 4 3
v 1 4 3
v -1 5 6
v 1 5 6
v -1 5 4
v 1 5 4
v -1 5 2
v 1 5 2
v -1 5 -0
v 1 5 -0
v 2 5 -0
v -2 5 -1
v -1 5 -1
v -3 5 -2
v -2 5 -2
v -1 5 -2
v 1 5 -2
v 2 5 -3
v 3 5 -3
v -3 5 -4
v 3 5 -4
v -2 6 6
v -1 6 6
v 1 6 6
v 2 6 6
v 1 6 -0
v 2 6 -0
v -2 6 -1
v -1 6 -1
v 2 6 -2
v 3 6 -2
v 2 6 -3
v 3 6 -3
v -2 6 -4
v -1 6 -4
v 1 6 -4
v 2 6 -4
v -2 6 -6
v -1 6 -6
v 1 6 -6
v 2 6 -6
v -4 7 -2
v -3 7 -2
v 3 7 -2
v 4 7 -2
v -4 7 -3
v -3 7 -3
v 3 7 -3
v 4 7 -3
v -1 8 6
v 1 8 6
v -1 8 5
v 1 8 5
v -2 8 -4
v -1 8 -4
v 1 8 -4
v 2 8 -4
v -2 8 -5
v -1 8 -5
v 1 8 -5
v 2 8 -5
v -3 9 -3
v -2 9 -3
v 2 9 -3
v 3 9 -3
v -3 9 -4
v -2 9 -4
v 2 9 -4
v 3 9 -4
v -3 3 2
v -1 3 2
v 1 3 2
v 3 3 2
v -1 3 -0
v 1 3 -0
v -1 3 -2
v 1 3 -2
v -3 3 -3
v 3 3 -3
v -1 6 6
v 1 6 6
v -1 6 5
v 1 6 5
v -3 6 -3
v -2 6 -3
v 2 6 -3
v 3 6 -3
v -3 6 -4
v -2 6 -4
v 2 6 -4
v 3 6 -4
v -2 7 -4
v -1 7 -4
v 1 7 -4
v 2 7 -4
v -2 7 -5
v -1 7 -5
v 1 7 -5
v 2 7 -5
v -2 8 6
v -1 8 6
v 1 8 6
v 2 8 6
v -2 8 5
v -1 8 5
v 1 8 5
v 2 8 5
v -2 8 4
v -1 8 4
v 1 8 4
v 2 8 4
v -2 8 3
v -1 8 3
v 1 8 3
v 2 8 3
v -2 8 2
v -1 8 2
v 1 8 2
v 2 8 2
v -1 8 1
v 1 8 1
v -1 8 -0
v 1 8 -0
v 2 8 -0
v -2 8 -1
v -1 8 -1
v -4 8 -2
v -3 8 -2
v 3 8 -2
v 4 8 -2
v -4 8 -3
v -3 8 -3
v 3 8 -3
v 4 8 -3
v -1 9 6
v 1 9 6
v -1 9 5
v 1 9 5
v -1 9 4
v 1 9 4
v -1 9 3
v 1 9 3
v -1 9 2
v 1 9 2
v -1 9 1
v 1 9 1
v -1 9 -0
v 1 9 -0
v 2 9 -0
v -2 9 -1
v -1 9 -1
v 1 9 -1
v -3 9 -2
v -2 9 -2
v 2 9 -2
v 3 9 -2
v -3 9 -3
v -1 9 -3
v 1 9 -3
v 3 9 -3
v -2 9 -4
v -1 9 -4
v 1 9 -4
v 2 9 -4
v -2 9 -6
v -1 9 -6
v 1 9 -6
v 2 9 -6
v -1 10 -1
v 1 10 -1
v -1 10 -2
v 1 10 -2
v -3 10 -3
v -1 10 -3
v 1 10 -3
v 3 10 -3
v -3 10 -4
v -1 10 -4
v 1 10 -4
v 3 10 -4
v -1 11 -2
v 1 11 -2
v -1 11 -3
v 1 11 -3
v -1 12 -3
v 1 12 -3
v -1 12 -4
v 1 12 -4

# faces
f 3/2/1 2/2/1 1/2/1
f 4/2/1 2/2/1 3/2/1
f 7/2/1 6/2/1 5/2/1
f 8/2/1 6/2/1 7/2/1
f 11/2/1 10/2/1 9/2/1
f 12/2/1 10/2/1 11/2/1
f 13/2/1 11/2/1 9/2/1
f 14/2/1 11/2/1 13/2/1
f 17/2/1 16/2/1 15/2/1
f 18/2/1 16/2/1 17/2/1
f 20/2/1 19/2/1 18/2/1
f 21/2/1 19/2/1 20/2/1
f 25/2/1 23/2/1 22/2/1
f 29/2/1 25/2/1 24/2/1
f 30/2/1 25/2/1 29/2/1
f 31/2/1 25/2/1 30/2/1
f 32/2/1 25/2/1 31/2/1
f 33/2/1 23/2/1 25/2/1
f 33/2/1 25/2/1 32/2/1
f 34/2/1 23/2/1 33/2/1
f 35/2/1 28/2/1 27/2/1
f 35/2/1 27/2/1 26/2/1
f 36/2/1 28/2/1 35/2/1
f 37/2/1 29/2/1 24/2/1
f 38/1/1 30/1/1 29/1/1
f 38/2/1 29/2/1 37/2/1
f 39/2/1 31/2/1 30/2/1
f 39/1/1 30/1/1 38/1/1
f 40/1/1 32/1/1 31/1/1
f 40/2/1 31/2/1 39/2/1
f 41/2/1 33/2/1 32/2/1
f 41/1/1 32/1/1 40/1/1
f 42/1/1 34/1/1 33/1/1
f 42/2/1 33/2/1 41/2/1
f 43/1/1 34/1/1 42/1/1
f 44/2/1 35/2/1 26/2/1
f 45/2/1 28/2/1 36/2/1
f 46/2/1 43/2/1 42/2/1
f 47/2/1 43/2/1 46/2/1
f 48/2/1 45/2/1 44/2/1
f 48/2/1 44/2/1 26/2/1
f 49/2/1 45/2/1 48/2/1
f 50/2/1 28/2/1 45/2/1
f 50/2/1 45/2/1 49/2/1
f 53/2/1 52/2/1 51/2/1
f 57/2/1 53/2/1 51/2/1
f 59/2/1 57/2/1 56/2/1
f 60/2/1 53/2/1 57/2/1
f 60/2/1 57/2/1 59/2/1
f 61/2/1 55/2/1 54/2/1
f 62/2/1 55/2/1 61/2/1
f 63/2/1 55/2/1 62/2/1
f 64/2/1 60/2/1 59/2/1
f 64/2/1 59/2/1 58/2/1
f 64/2/1 62/2/1 61/2/1
f 64/2/1 61/2/1 60/2/1
f 65/2/1 62/2/1 64/2/1
f 74/2/1 67/2/1 66/2/1
f 75/1/1 68/1/1 67/1/1
f 75/2/1 67/2/1 74/2/1
f 76/2/1 69/2/1 68/2/1
f 76/1/1 68/1/1 75/1/1
f 77/1/1 70/1/1 69/1/1
f 77/2/1 69/2/1 76/2/1
f 78/2/1 71/2/1 70/2/1
f 78/1/1 70/1/1 77/1/1
f 79/1/1 72/1/1 71/1/1
f 79/2/1 71/2/1 78/2/1
f 80/2/1 73/2/1 72/2/1
f 80/1/1 72/1/1 79/1/1
f 81/2/1 73/2/1 80/2/1
f 83/2/1 82/2/1 81/2/1
f 84/2/1 82/2/1 83/2/1
f 85/2/1 82/2/1 84/2/1
f 87/2/1 86/2/1 85/2/1
f 87/2/1 85/2/1 84/2/1
f 88/2/1 86/2/1 87/2/1
f 89/2/1 86/2/1 88/2/1
f 90/2/1 86/2/1 89/2/1
f 95/2/1 94/2/1 93/2/1
f 96/2/1 94/2/1 95/2/1
f 97/2/1 92/2/1 91/2/1
f 98/2/1 92/2/1 97/2/1
f 100/2/1 94/2/1 96/2/1
f 101/2/1 100/2/1 99/2/1
f 102/2/1 94/2/1 100/2/1
f 102/2/1 100/2/1 101/2/1
f 105/2/2 106/2/2 107/2/2
f 107/2/2 106/2/2 108/2/2
f 103/2/2 104/2/2 109/2/2
f 109/2/2 104/2/2 110/2/2
f 108/2/2 106/2/2 112/2/2
f 111/2/2 112/2/2 113/2/2
f 112/2/2 106/2/2 114/2/2
f 113/2/2 112/2/2 114/2/2
f 115/2/2 116/2/2 117/2/2
f 115/2/2 117/2/2 121/2/2
f 120/2/2 121/2/2 123/2/2
f 121/2/2 117/2/2 124/2/2
f 123/2/2 121/2/2 124/2/2
f 118/2/2 119/2/2 125/2/2
f 125/2/2 119/2/2 126/2/2
f 123/2/2 124/2/2 127/2/2
f 122/2/2 123/2/2 127/2/2
f 124/2/2 125/2/2 127/2/2
f 127/2/2 125/2/2 128/2/2
f 129/2/2 130/2/2 136/2/2
f 130/1/2 131/1/2 137/1/2
f 136/2/2 130/2/2 137/2/2
f 131/2/2 132/2/2 138/2/2
f 137/1/2 131/1/2 138/1/2
f 132/1/2 133/1/2 139/1/2
f 138/2/2 132/2/2 139/2/2
f 133/2/2 134/2/2 140/2/2
f 139/1/2 133/1/2 140/1/2
f 134/1/2 135/1/2 141/1/2
f 140/2/2 134/2/2 141/2/2
f 141/1/2 135/1/2 142/1/2
f 143/2/2 144/2/2 145/2/2
f 145/2/2 144/2/2 146/2/2
f 146/2/2 144/2/2 147/2/2
f 147/2/2 148/2/2 149/2/2
f 146/2/2 147/2/2 149/2/2
f 149/2/2 148/2/2 150/2/2
f 150/2/2 148/2/2 151/2/2
f 151/2/2 148/2/2 152/2/2
f 153/2/2 154/2/2 156/2/2
f 156/2/2 154/2/2 157/2/2
f 157/2/2 154/2/2 158/2/2
f 155/2/2 156/2/2 161/2/2
f 156/2/2 157/2/2 161/2/2
f 161/2/2 157/2/2 162/2/2
f 162/2/2 157/2/2 163/2/2
f 163/2/2 157/2/2 164/2/2
f 164/2/2 157/2/2 165/2/2
f 165/2/2 157/2/2 166/2/2
f 159/2/2 160/2/2 167/2/2
f 158/2/2 159/2/2 167/2/2
f 167/2/2 160/2/2 168/2/2
f 155/2/2 161/2/2 169/2/2
f 161/1/2 162/1/2 170/1/2
f 169/2/2 161/2/2 170/2/2
f 162/2/2 163/2/2 171/2/2
f 170/1/2 162/1/2 171/1/2
f 163/1/2 164/1/2 172/1/2
f 171/2/2 163/2/2 172/2/2
f 164/2/2 165/2/2 173/2/2
f 172/1/2 164/1/2 173/1/2
f 173/2/2 165/2/2 174/2/2
f 165/1/2 166/1/2 175/1/2
f 174/2/2 165/2/2 175/2/2
f 175/1/2 166/1/2 176/1/2
f 158/2/2 167/2/2 177/2/2
f 168/2/2 160/2/2 178/2/2
f 174/2/2 175/2/2 179/2/2
f 175/2/2 176/2/2 179/2/2
f 179/2/2 176/2/2 180/2/2
f 177/2/2 178/2/2 181/2/2
f 158/2/2 177/2/2 181/2/2
f 181/2/2 178/2/2 182/2/2
f 178/2/2 160/2/2 183/2/2
f 182/2/2 178/2/2 183/2/2
f 184/2/2 185/2/2 186/2/2
f 186/2/2 185/2/2 187/2/2
f 188/2/2 189/2/2 191/2/2
f 191/2/2 189/2/2 192/2/2
f 190/2/2 191/2/2 193/2/2
f 193/2/2 191/2/2 194/2/2
f 195/2/2 196/2/2 197/2/2
f 197/2/2 196/2/2 198/2/2
f 198/2/2 199/2/2 200/2/2
f 200/2/2 199/2/2 201/2/2
f 202/2/2 203/2/2 204/2/2
f 204/2/2 203/2/2 205/2/2
f 209/2/3 207/2/3 206/2/3
f 210/2/3 207/2/3 209/2/3
f 212/2/3 209/2/3 208/2/3
f 213/2/3 209/2/3 212/2/3
f 214/2/3 211/2/3 210/2/3
f 215/2/3 211/2/3 214/2/3
f 216/2/3 214/2/3 213/2/3
f 217/2/3 214/2/3 216/2/3
f 220/1/3 219/1/3 218/1/3
f 221/1/3 219/1/3 220/1/3
f 224/2/3 223/2/3 222/2/3
f 225/2/3 223/2/3 224/2/3
f 228/2/3 227/2/3 226/2/3
f 229/2/3 227/2/3 228/2/3
f 232/2/3 231/2/3 230/2/3
f 233/2/3 231/2/3 232/2/3
f 234/2/3 232/2/3 230/2/3
f 236/2/3 234/2/3 230/2/3
f 236/2/3 235/2/3 234/2/3
f 237/2/3 235/2/3 236/2/3
f 240/2/3 239/2/3 238/2/3
f 241/2/3 239/2/3 240/2/3
f 245/2/3 242/2/3 241/2/3
f 246/2/3 242/2/3 245/2/3
f 247/2/3 244/2/3 243/2/3
f 248/2/3 244/2/3 247/2/3
f 253/2/3 250/2/3 249/2/3
f 254/2/3 250/2/3 253/2/3
f 255/2/3 252/2/3 251/2/3
f 256/2/3 252/2/3 255/2/3
f 258/2/3 257/2/3 256/2/3
f 259/2/3 257/2/3 258/2/3
f 263/2/3 261/2/3 260/2/3
f 264/2/3 261/2/3 263/2/3
f 266/2/3 263/2/3 262/2/3
f 266/2/3 265/2/3 264/2/3
f 266/2/3 264/2/3 263/2/3
f 267/2/3 265/2/3 266/2/3
f 268/2/3 265/2/3 267/2/3
f 269/2/3 265/2/3 268/2/3
f 272/2/3 271/2/3 270/2/3
f 273/2/3 271/2/3 272/2/3
f 278/2/3 275/2/3 274/2/3
f 278/2/3 277/2/3 276/2/3
f 278/2/3 276/2/3 275/2/3
f 279/2/3 277/2/3 278/2/3
f 280/2/3 277/2/3 279/2/3
f 281/2/3 277/2/3 280/2/3
f 282/2/3 280/2/3 279/2/3
f 283/2/3 280/2/3 282/2/3
f 286/2/3 285/2/3 284/2/3
f 287/2/3 285/2/3 286/2/3
f 292/2/3 289/2/3 288/2/3
f 293/2/3 289/2/3 292/2/3
f 296/2/3 295/2/3 294/2/3
f 297/2/3 295/2/3 296/2/3
f 298/2/3 291/2/3 290/2/3
f 299/2/3 291/2/3 298/2/3
f 302/2/3 301/2/3 300/2/3
f 303/2/3 301/2/3 302/2/3
f 306/2/3 305/2/3 304/2/3
f 307/2/3 305/2/3 306/2/3
f 308/2/4 309/2/4 310/2/4
f 310/2/4 309/2/4 311/2/4
f 312/2/4 313/2/4 314/2/4
f 314/2/4 313/2/4 315/2/4
f 316/2/4 317/2/4 321/2/4
f 321/2/4 317/2/4 322/2/4
f 320/2/4 321/2/4 324/2/4
f 322/2/4 323/2/4 324/2/4
f 321/2/4 322/2/4 324/2/4
f 324/2/4 323/2/4 325/2/4
f 318/2/4 319/2/4 328/2/4
f 328/2/4 319/2/4 329/2/4
f 326/2/4 327/2/4 330/2/4
f 330/2/4 327/2/4 331/2/4
f 331/2/4 327/2/4 332/2/4
f 332/2/4 327/2/4 333/2/4
f 331/2/4 332/2/4 334/2/4
f 334/2/4 332/2/4 335/2/4
f 336/2/4 337/2/4 340/2/4
f 338/2/4 339/2/4 343/2/4
f 336/2/4 340/2/4 344/2/4
f 341/2/4 342/2/4 345/2/4
f 345/2/4 342/2/4 346/2/4
f 343/2/4 339/2/4 347/2/4
f 347/2/4 339/2/4 348/2/4
f 336/2/4 344/2/4 350/2/4
f 348/2/4 349/2/4 350/2/4
f 347/2/4 348/2/4 350/2/4
f 346/2/4 347/2/4 350/2/4
f 345/2/4 346/2/4 350/2/4
f 344/2/4 345/2/4 350/2/4
f 350/2/4 349/2/4 351/2/4
f 351/2/4 349/2/4 352/2/4
f 352/2/4 349/2/4 353/2/4
f 353/2/4 349/2/4 354/2/4
f 354/2/4 349/2/4 355/2/4
f 336/2/4 350/2/4 356/2/4
f 351/2/4 352/2/4 357/2/4
f 357/2/4 352/2/4 358/2/4
f 353/2/4 354/2/4 359/2/4
f 336/2/4 356/2/4 360/2/4
f 360/2/4 356/2/4 361/2/4
f 359/2/4 354/2/4 362/2/4
f 362/2/4 354/2/4 363/2/4
f 364/2/4 365/2/4 366/2/4
f 366/2/4 365/2/4 367/2/4
f 368/2/4 369/2/4 370/2/4
f 370/2/4 369/2/4 371/2/4
f 374/2/5 373/2/5 372/2/5
f 375/2/5 373/2/5 374/2/5
f 378/2/5 377/2/5 376/2/5
f 379/2/5 377/2/5 378/2/5
f 382/2/5 381/2/5 380/2/5
f 383/2/5 381/2/5 382/2/5
f 386/2/5 385/2/5 384/2/5
f 387/2/5 385/2/5 386/2/5
f 390/2/5 389/2/5 388/2/5
f 391/2/5 389/2/5 390/2/5
f 396/2/5 394/2/5 393/2/5
f 397/2/5 394/2/5 396/2/5
f 398/2/5 392/2/5 391/2/5
f 399/2/5 397/2/5 396/2/5
f 399/2/5 398/2/5 397/2/5
f 399/2/5 392/2/5 398/2/5
f 399/2/5 396/2/5 395/2/5
f 401/2/5 399/2/5 395/2/5
f 401/2/5 400/2/5 399/2/5
f 402/2/5 400/2/5 401/2/5
f 407/2/5 406/2/5 405/2/5
f 408/2/5 406/2/5 407/2/5
f 409/2/5 404/2/5 403/2/5
f 410/2/5 404/2/5 409/2/5
f 413/2/5 412/2/5 411/2/5
f 414/2/5 412/2/5 413/2/5
f 419/2/5 416/2/5 415/2/5
f 420/2/5 416/2/5 419/2/5
f 421/2/5 418/2/5 417/2/5
f 422/2/5 418/2/5 421/2/5
f 427/2/5 424/2/5 423/2/5
f 428/2/5 424/2/5 427/2/5
f 429/2/5 426/2/5 425/2/5
f 430/2/5 426/2/5 429/2/5
f 433/2/5 432/2/5 431/2/5
f 434/2/5 432/2/5 433/2/5
f 439/2/5 436/2/5 435/2/5
f 440/2/5 436/2/5 439/2/5
f 441/2/5 438/2/5 437/2/5
f 442/2/5 438/2/5 441/2/5
f 447/2/5 444/2/5 443/2/5
f 448/2/5 444/2/5 447/2/5
f 449/2/5 446/2/5 445/2/5
f 450/2/5 446/2/5 449/2/5
f 451/2/6 452/2/6 455/2/6
f 453/2/6 454/2/6 455/2/6
f 452/2/6 453/2/6 455/2/6
f 455/2/6 454/2/6 456/2/6
f 451/2/6 455/2/6 457/2/6
f 456/2/6 454/2/6 458/2/6
f 451/2/6 457/2/6 459/2/6
f 457/2/6 458/2/6 459/2/6
f 458/2/6 454/2/6 460/2/6
f 459/2/6 458/2/6 460/2/6
f 461/2/6 462/2/6 463/2/6
f 463/2/6 462/2/6 464/2/6
f 465/2/6 466/2/6 469/2/6
f 469/2/6 466/2/6 470/2/6
f 467/2/6 468/2/6 471/2/6
f 471/2/6 468/2/6 472/2/6
f 473/2/6 474/2/6 477/2/6
f 477/2/6 474/2/6 478/2/6
f 475/2/6 476/2/6 479/2/6
f 479/2/6 476/2/6 480/2/6
f 481/2/6 482/2/6 485/2/6
f 485/2/6 482/2/6 486/2/6
f 483/2/6 484/2/6 487/2/6
f 487/2/6 484/2/6 488/2/6
f 485/1/6 486/1/6 489/1/6
f 489/1/6 486/1/6 490/1/6
f 487/1/6 488/1/6 491/1/6
f 491/1/6 488/1/6 492/1/6
f 489/2/6 490/2/6 493/2/6
f 493/2/6 490/2/6 494/2/6
f 491/2/6 492/2/6 495/2/6
f 495/2/6 492/2/6 496/2/6
f 493/1/6 494/1/6 497/1/6
f 497/1/6 494/1/6 498/1/6
f 495/1/6 496/1/6 499/1/6
f 499/1/6 496/1/6 500/1/6
f 497/2/6 498/2/6 501/2/6
f 499/2/6 500/2/6 502/2/6
f 497/2/6 501/2/6 503/2/6
f 502/2/6 500/2/6 504/2/6
f 504/2/6 500/2/6 505/2/6
f 497/2/6 503/2/6 506/2/6
f 506/2/6 503/2/6 507/2/6
f 508/2/6 509/2/6 512/2/6
f 512/2/6 509/2/6 513/2/6
f 510/2/6 511/2/6 514/2/6
f 514/2/6 511/2/6 515/2/6
f 516/2/6 517/2/6 518/2/6
f 518/2/6 517/2/6 519/2/6
f 518/1/6 519/1/6 520/1/6
f 520/1/6 519/1/6 521/1/6
f 520/2/6 521/2/6 522/2/6
f 522/2/6 521/2/6 523/2/6
f 522/1/6 523/1/6 524/1/6
f 524/1/6 523/1/6 525/1/6
f 524/2/6 525/2/6 526/2/6
f 526/2/6 525/2/6 527/2/6
f 526/1/6 527/1/6 528/1/6
f 528/1/6 527/1/6 529/1/6
f 528/2/6 529/2/6 532/2/6
f 529/2/6 530/2/6 532/2/6
f 532/2/6 530/2/6 533/2/6
f 531/2/6 532/2/6 535/2/6
f 533/2/6 530/2/6 536/2/6
f 534/2/6 535/2/6 538/2/6
f 535/2/6 532/2/6 539/2/6
f 538/2/6 535/2/6 539/2/6
f 536/2/6 537/2/6 540/2/6
f 533/2/6 536/2/6 540/2/6
f 540/2/6 537/2/6 541/2/6
f 542/2/6 543/2/6 546/2/6
f 546/2/6 543/2/6 547/2/6
f 544/2/6 545/2/6 548/2/6
f 548/2/6 545/2/6 549/2/6
f 550/2/6 551/2/6 552/2/6
f 552/2/6 551/2/6 553/2/6
f 554/2/6 555/2/6 558/2/6
f 558/2/6 555/2/6 559/2/6
f 556/2/6 557/2/6 560/2/6
f 560/2/6 557/2/6 561/2/6
f 562/2/6 563/2/6 564/2/6
f 564/2/6 563/2/6 565/2/6
f 566/2/6 567/2/6 568/2/6
f 568/2/6 567/2/6 569/2/6
