# MagicaVoxel @ Ephtracy

# material
mtllib gun2.mtl
usemtl palette

# normals
vn -1 0 0
vn 1 0 0
vn 0 0 1
vn 0 0 -1
vn 0 -1 0
vn 0 1 0

# texcoords
vt 0.814453 0.5
vt 0.818359 0.5

# verts
v -15 52 -29
v -15 52 -32
v -15 53 -32
v -15 53 -33
v -15 55 -29
v -15 55 -33
v -15 57 -30
v -15 57 -32
v -15 58 -30
v -15 58 -32
v -15 59 -30
v -15 59 -32
v -13 55 -29
v -13 55 -33
v -13 57 -30
v -13 57 -32
v -13 58 -29
v -13 58 -30
v -13 58 -32
v -13 58 -33
v -10 56 -29
v -10 56 -30
v -10 56 -32
v -10 56 -33
v -10 57 -29
v -10 57 -30
v -10 57 -32
v -10 57 -33
v -4 56 -29
v -4 56 -30
v -4 57 -29
v -4 57 -30
v -3 56 -32
v -3 56 -33
v -3 57 -32
v -3 57 -33
v -2 56 -29
v -2 56 -30
v -2 57 -29
v -2 57 -30
v -1 56 -32
v -1 56 -33
v -1 57 -32
v -1 57 -33
v -12 52 -29
v -12 52 -32
v -12 53 -29
v -12 53 -32
v -11 53 -29
v -11 53 -33
v -11 54 -29
v -11 54 -33
v -11 56 -29
v -11 56 -30
v -11 56 -32
v -11 56 -33
v -11 57 -29
v -11 57 -30
v -11 57 -32
v -11 57 -33
v -9 54 -29
v -9 54 -33
v -9 55 -29
v -9 55 -33
v -8 56 -29
v -8 56 -30
v -8 57 -29
v -8 57 -30
v -7 56 -32
v -7 56 -33
v -7 57 -32
v -7 57 -33
v -3 56 -29
v -3 56 -30
v -3 57 -29
v -3 57 -30
v -2 56 -32
v -2 56 -33
v -2 57 -32
v -2 57 -33
v 0 55 -29
v 0 55 -33
v 0 56 -30
v 0 56 -32
v 0 57 -30
v 0 57 -32
v 0 58 -29
v 0 58 -30
v 0 58 -32
v 0 58 -33
v 0 59 -30
v 0 59 -32
v -15 52 -29
v -15 55 -29
v -13 55 -29
v -13 58 -29
v -12 52 -29
v -12 53 -29
v -11 53 -29
v -11 54 -29
v -11 56 -29
v -11 57 -29
v -10 56 -29
v -10 57 -29
v -9 54 -29
v -9 55 -29
v -8 56 -29
v -8 57 -29
v -4 56 -29
v -4 57 -29
v -3 56 -29
v -3 57 -29
v -2 56 -29
v -2 57 -29
v 0 55 -29
v 0 58 -29
v -15 57 -30
v -15 58 -30
v -15 59 -30
v -14 57 -30
v -14 58 -30
v -13 57 -30
v -13 58 -30
v -11 56 -30
v -11 57 -30
v -10 56 -30
v -10 57 -30
v -8 56 -30
v -8 57 -30
v -4 56 -30
v -4 57 -30
v -3 56 -30
v -3 57 -30
v -2 56 -30
v -2 57 -30
v -2 58 -30
v -2 59 -30
v -1 58 -30
v -1 59 -30
v 0 58 -30
v 0 59 -30
v -15 52 -32
v -15 53 -32
v -15 57 -32
v -15 58 -32
v -15 59 -32
v -14 57 -32
v -14 58 -32
v -13 57 -32
v -13 58 -32
v -12 52 -32
v -12 53 -32
v -11 56 -32
v -11 57 -32
v -10 56 -32
v -10 57 -32
v -7 56 -32
v -7 57 -32
v -3 56 -32
v -3 57 -32
v -2 56 -32
v -2 57 -32
v -2 58 -32
v -2 59 -32
v -1 56 -32
v -1 57 -32
v -1 58 -32
v -1 59 -32
v 0 58 -32
v 0 59 -32
v -15 53 -33
v -15 55 -33
v -13 55 -33
v -13 58 -33
v -11 53 -33
v -11 54 -33
v -11 56 -33
v -11 57 -33
v -10 56 -33
v -10 57 -33
v -9 54 -33
v -9 55 -33
v -7 56 -33
v -7 57 -33
v -3 56 -33
v -3 57 -33
v -2 56 -33
v -2 57 -33
v -1 56 -33
v -1 57 -33
v 0 55 -33
v 0 58 -33
v -15 52 -29
v -12 52 -29
v -15 52 -32
v -12 52 -32
v -12 53 -29
v -11 53 -29
v -15 53 -32
v -12 53 -32
v -15 53 -33
v -11 53 -33
v -11 54 -29
v -9 54 -29
v -11 54 -33
v -9 54 -33
v -9 55 -29
v 0 55 -29
v -9 55 -33
v 0 55 -33
v -11 57 -29
v -10 57 -29
v -8 57 -29
v -4 57 -29
v -3 57 -29
v -2 57 -29
v -15 57 -30
v -14 57 -30
v -13 57 -30
v -11 57 -30
v -10 57 -30
v -8 57 -30
v -4 57 -30
v -3 57 -30
v -2 57 -30
v -15 57 -32
v -14 57 -32
v -13 57 -32
v -11 57 -32
v -10 57 -32
v -7 57 -32
v -3 57 -32
v -2 57 -32
v -1 57 -32
v -11 57 -33
v -10 57 -33
v -7 57 -33
v -3 57 -33
v -2 57 -33
v -1 57 -33
v -15 55 -29
v -13 55 -29
v -15 55 -33
v -13 55 -33
v -11 56 -29
v -10 56 -29
v -8 56 -29
v -4 56 -29
v -3 56 -29
v -2 56 -29
v -11 56 -30
v -10 56 -30
v -8 56 -30
v -4 56 -30
v -3 56 -30
v -2 56 -30
v -11 56 -32
v -10 56 -32
v -7 56 -32
v -3 56 -32
v -2 56 -32
v -1 56 -32
v -11 56 -33
v -10 56 -33
v -7 56 -33
v -3 56 -33
v -2 56 -33
v -1 56 -33
v -13 58 -29
v 0 58 -29
v -13 58 -30
v -2 58 -30
v -1 58 -30
v 0 58 -30
v -13 58 -32
v -2 58 -32
v -1 58 -32
v 0 58 -32
v -13 58 -33
v 0 58 -33
v -15 59 -30
v -2 59 -30
v -1 59 -30
v 0 59 -30
v -15 59 -32
v -2 59 -32
v -1 59 -32
v 0 59 -32

# faces
f 3/2/1 2/2/1 1/2/1
f 5/2/1 3/2/1 1/2/1
f 5/2/1 4/2/1 3/2/1
f 6/2/1 4/2/1 5/2/1
f 9/1/1 8/1/1 7/1/1
f 10/1/1 8/1/1 9/1/1
f 11/2/1 10/2/1 9/2/1
f 12/2/1 10/2/1 11/2/1
f 15/2/1 14/2/1 13/2/1
f 16/2/1 14/2/1 15/2/1
f 17/2/1 15/2/1 13/2/1
f 18/2/1 15/2/1 17/2/1
f 19/2/1 14/2/1 16/2/1
f 20/2/1 14/2/1 19/2/1
f 25/2/1 22/2/1 21/2/1
f 26/2/1 22/2/1 25/2/1
f 27/2/1 24/2/1 23/2/1
f 28/2/1 24/2/1 27/2/1
f 31/2/1 30/2/1 29/2/1
f 32/2/1 30/2/1 31/2/1
f 35/2/1 34/2/1 33/2/1
f 36/2/1 34/2/1 35/2/1
f 39/2/1 38/2/1 37/2/1
f 40/2/1 38/2/1 39/2/1
f 43/2/1 42/2/1 41/2/1
f 44/2/1 42/2/1 43/2/1
f 45/2/2 46/2/2 47/2/2
f 47/2/2 46/2/2 48/2/2
f 49/2/2 50/2/2 51/2/2
f 51/2/2 50/2/2 52/2/2
f 53/2/2 54/2/2 57/2/2
f 57/2/2 54/2/2 58/2/2
f 55/2/2 56/2/2 59/2/2
f 59/2/2 56/2/2 60/2/2
f 61/2/2 62/2/2 63/2/2
f 63/2/2 62/2/2 64/2/2
f 65/2/2 66/2/2 67/2/2
f 67/2/2 66/2/2 68/2/2
f 69/2/2 70/2/2 71/2/2
f 71/2/2 70/2/2 72/2/2
f 73/2/2 74/2/2 75/2/2
f 75/2/2 74/2/2 76/2/2
f 77/2/2 78/2/2 79/2/2
f 79/2/2 78/2/2 80/2/2
f 81/2/2 82/2/2 83/2/2
f 83/2/2 82/2/2 84/2/2
f 81/2/2 83/2/2 85/2/2
f 83/1/2 84/1/2 85/1/2
f 84/2/2 82/2/2 86/2/2
f 85/1/2 84/1/2 86/1/2
f 81/2/2 85/2/2 87/2/2
f 85/2/2 86/2/2 87/2/2
f 87/2/2 86/2/2 88/2/2
f 86/2/2 82/2/2 89/2/2
f 88/2/2 86/2/2 89/2/2
f 89/2/2 82/2/2 90/2/2
f 88/2/2 89/2/2 91/2/2
f 91/2/2 89/2/2 92/2/2
f 95/2/3 94/2/3 93/2/3
f 97/2/3 95/2/3 93/2/3
f 97/2/3 96/2/3 95/2/3
f 98/2/3 96/2/3 97/2/3
f 99/2/3 96/2/3 98/2/3
f 100/2/3 96/2/3 99/2/3
f 101/2/3 96/2/3 100/2/3
f 102/2/3 96/2/3 101/2/3
f 103/2/3 101/2/3 100/2/3
f 104/2/3 96/2/3 102/2/3
f 105/2/3 103/2/3 100/2/3
f 105/2/3 104/2/3 103/2/3
f 106/2/3 104/2/3 105/2/3
f 107/2/3 104/2/3 106/2/3
f 108/2/3 96/2/3 104/2/3
f 108/2/3 104/2/3 107/2/3
f 109/2/3 107/2/3 106/2/3
f 110/2/3 96/2/3 108/2/3
f 111/2/3 109/2/3 106/2/3
f 111/2/3 110/2/3 109/2/3
f 112/2/3 96/2/3 110/2/3
f 112/2/3 110/2/3 111/2/3
f 113/2/3 111/2/3 106/2/3
f 114/2/3 96/2/3 112/2/3
f 115/2/3 113/2/3 106/2/3
f 115/2/3 114/2/3 113/2/3
f 116/2/3 96/2/3 114/2/3
f 116/2/3 114/2/3 115/2/3
f 120/1/3 118/1/3 117/1/3
f 121/2/3 119/2/3 118/2/3
f 121/1/3 118/1/3 120/1/3
f 122/2/3 121/2/3 120/2/3
f 123/2/3 119/2/3 121/2/3
f 123/2/3 121/2/3 122/2/3
f 126/1/3 125/1/3 124/1/3
f 127/1/3 125/1/3 126/1/3
f 130/1/3 129/1/3 128/1/3
f 131/1/3 129/1/3 130/1/3
f 134/1/3 133/1/3 132/1/3
f 135/1/3 133/1/3 134/1/3
f 136/2/3 119/2/3 123/2/3
f 137/2/3 119/2/3 136/2/3
f 138/1/3 137/1/3 136/1/3
f 139/1/3 137/1/3 138/1/3
f 140/2/3 139/2/3 138/2/3
f 141/2/3 139/2/3 140/2/3
f 144/1/4 145/1/4 147/1/4
f 145/2/4 146/2/4 148/2/4
f 147/1/4 145/1/4 148/1/4
f 147/2/4 148/2/4 149/2/4
f 148/2/4 146/2/4 150/2/4
f 149/2/4 148/2/4 150/2/4
f 142/2/4 143/2/4 151/2/4
f 151/2/4 143/2/4 152/2/4
f 153/1/4 154/1/4 155/1/4
f 155/1/4 154/1/4 156/1/4
f 157/1/4 158/1/4 159/1/4
f 159/1/4 158/1/4 160/1/4
f 150/2/4 146/2/4 163/2/4
f 163/2/4 146/2/4 164/2/4
f 161/1/4 162/1/4 165/1/4
f 165/1/4 162/1/4 166/1/4
f 163/1/4 164/1/4 167/1/4
f 167/1/4 164/1/4 168/1/4
f 167/2/4 168/2/4 169/2/4
f 169/2/4 168/2/4 170/2/4
f 171/2/4 172/2/4 173/2/4
f 171/2/4 173/2/4 175/2/4
f 173/2/4 174/2/4 175/2/4
f 175/2/4 174/2/4 176/2/4
f 176/2/4 174/2/4 177/2/4
f 177/2/4 174/2/4 178/2/4
f 176/2/4 177/2/4 179/2/4
f 178/2/4 174/2/4 180/2/4
f 176/2/4 179/2/4 181/2/4
f 179/2/4 180/2/4 181/2/4
f 181/2/4 180/2/4 182/2/4
f 182/2/4 180/2/4 183/2/4
f 180/2/4 174/2/4 184/2/4
f 183/2/4 180/2/4 184/2/4
f 182/2/4 183/2/4 185/2/4
f 184/2/4 174/2/4 186/2/4
f 182/2/4 185/2/4 187/2/4
f 185/2/4 186/2/4 187/2/4
f 186/2/4 174/2/4 188/2/4
f 187/2/4 186/2/4 188/2/4
f 182/2/4 187/2/4 189/2/4
f 188/2/4 174/2/4 190/2/4
f 182/2/4 189/2/4 191/2/4
f 189/2/4 190/2/4 191/2/4
f 190/2/4 174/2/4 192/2/4
f 191/2/4 190/2/4 192/2/4
f 195/2/5 194/2/5 193/2/5
f 196/2/5 194/2/5 195/2/5
f 200/2/5 198/2/5 197/2/5
f 201/2/5 200/2/5 199/2/5
f 202/2/5 198/2/5 200/2/5
f 202/2/5 200/2/5 201/2/5
f 205/2/5 204/2/5 203/2/5
f 206/2/5 204/2/5 205/2/5
f 209/2/5 208/2/5 207/2/5
f 210/2/5 208/2/5 209/2/5
f 220/2/5 212/2/5 211/2/5
f 221/2/5 212/2/5 220/2/5
f 222/2/5 214/2/5 213/2/5
f 223/2/5 214/2/5 222/2/5
f 224/2/5 216/2/5 215/2/5
f 225/2/5 216/2/5 224/2/5
f 226/1/5 218/1/5 217/1/5
f 227/2/5 219/2/5 218/2/5
f 227/1/5 218/1/5 226/1/5
f 228/2/5 219/2/5 227/2/5
f 235/2/5 230/2/5 229/2/5
f 236/2/5 230/2/5 235/2/5
f 237/2/5 232/2/5 231/2/5
f 238/2/5 232/2/5 237/2/5
f 239/2/5 234/2/5 233/2/5
f 240/2/5 234/2/5 239/2/5
f 241/2/6 242/2/6 243/2/6
f 243/2/6 242/2/6 244/2/6
f 245/2/6 246/2/6 251/2/6
f 251/2/6 246/2/6 252/2/6
f 247/2/6 248/2/6 253/2/6
f 253/2/6 248/2/6 254/2/6
f 249/2/6 250/2/6 255/2/6
f 255/2/6 250/2/6 256/2/6
f 257/2/6 258/2/6 263/2/6
f 263/2/6 258/2/6 264/2/6
f 259/2/6 260/2/6 265/2/6
f 265/2/6 260/2/6 266/2/6
f 261/2/6 262/2/6 267/2/6
f 267/2/6 262/2/6 268/2/6
f 269/2/6 270/2/6 271/2/6
f 271/2/6 270/2/6 272/2/6
f 272/2/6 270/2/6 273/2/6
f 273/2/6 270/2/6 274/2/6
f 275/2/6 276/2/6 279/2/6
f 277/2/6 278/2/6 279/2/6
f 276/2/6 277/2/6 279/2/6
f 279/2/6 278/2/6 280/2/6
f 281/2/6 282/2/6 285/2/6
f 282/1/6 283/1/6 286/1/6
f 285/2/6 282/2/6 286/2/6
f 283/2/6 284/2/6 287/2/6
f 286/1/6 283/1/6 287/1/6
f 287/2/6 284/2/6 288/2/6
