# MagicaVoxel @ Ephtracy

# material
mtllib enemy-drone.mtl
usemtl palette

# normals
vn -1 0 0
vn 1 0 0
vn 0 0 1
vn 0 0 -1
vn 0 -1 0
vn 0 1 0

# texcoords
vt 0.814453 0.5
vt 0.818359 0.5
vt 0.822266 0.5
vt 0.958984 0.5

# verts
v -5 3 2
v -5 3 -2
v -5 4 2
v -5 4 -2
v -5 6 2
v -5 6 -2
v -5 7 2
v -5 7 -2
v -4 1 1
v -4 1 -1
v -4 2 3
v -4 2 2
v -4 2 1
v -4 2 -1
v -4 2 -2
v -4 2 -3
v -4 3 3
v -4 3 2
v -4 3 -2
v -4 3 -3
v -4 4 4
v -4 4 3
v -4 4 2
v -4 4 -2
v -4 4 -3
v -4 4 -4
v -4 6 4
v -4 6 3
v -4 6 2
v -4 6 -2
v -4 6 -3
v -4 6 -4
v -4 7 3
v -4 7 2
v -4 7 -2
v -4 7 -3
v -4 8 3
v -4 8 2
v -4 8 1
v -4 8 -1
v -4 8 -2
v -4 8 -3
v -4 9 1
v -4 9 -1
v -3 1 3
v -3 1 2
v -3 1 1
v -3 1 -1
v -3 1 -2
v -3 1 -3
v -3 2 4
v -3 2 3
v -3 2 2
v -3 2 1
v -3 2 -1
v -3 2 -2
v -3 2 -3
v -3 2 -4
v -3 3 3
v -3 3 -3
v -3 4 4
v -3 4 3
v -3 4 -3
v -3 4 -4
v -3 6 4
v -3 6 3
v -3 6 -3
v -3 6 -4
v -3 7 3
v -3 7 -3
v -3 8 4
v -3 8 3
v -3 8 2
v -3 8 1
v -3 8 -1
v -3 8 -2
v -3 8 -3
v -3 8 -4
v -3 9 3
v -3 9 2
v -3 9 1
v -3 9 -1
v -3 9 -2
v -3 9 -3
v -2 0 2
v -2 0 -2
v -2 1 2
v -2 1 -2
v -2 3 5
v -2 3 4
v -2 3 -4
v -2 3 -5
v -2 4 5
v -2 4 4
v -2 6 5
v -2 6 4
v -2 7 5
v -2 7 4
v -2 7 -4
v -2 7 -5
v -2 9 2
v -2 9 1
v -2 9 -2
v -2 10 2
v -2 10 1
v -2 10 -2
v -1 1 4
v -1 1 3
v -1 1 -3
v -1 1 -4
v -1 2 4
v -1 2 3
v -1 2 -3
v -1 2 -4
v -1 8 4
v -1 8 3
v -1 8 -3
v -1 8 -4
v -1 9 4
v -1 9 3
v -1 9 -3
v -1 9 -4
v 1 1 4
v 1 1 3
v 1 1 -3
v 1 1 -4
v 1 2 4
v 1 2 3
v 1 2 -3
v 1 2 -4
v 1 8 4
v 1 8 3
v 1 8 -3
v 1 8 -4
v 1 9 4
v 1 9 3
v 1 9 -3
v 1 9 -4
v 2 0 2
v 2 0 -2
v 2 1 2
v 2 1 -2
v 2 3 5
v 2 3 4
v 2 3 -4
v 2 3 -5
v 2 4 5
v 2 4 4
v 2 6 5
v 2 6 4
v 2 7 5
v 2 7 4
v 2 7 -4
v 2 7 -5
v 2 9 2
v 2 9 1
v 2 9 -2
v 2 10 2
v 2 10 1
v 2 10 -2
v 3 1 3
v 3 1 2
v 3 1 1
v 3 1 -1
v 3 1 -2
v 3 1 -3
v 3 2 4
v 3 2 3
v 3 2 2
v 3 2 1
v 3 2 -1
v 3 2 -2
v 3 2 -3
v 3 2 -4
v 3 3 3
v 3 3 -3
v 3 4 4
v 3 4 3
v 3 4 -3
v 3 4 -4
v 3 6 4
v 3 6 3
v 3 6 -3
v 3 6 -4
v 3 7 3
v 3 7 -3
v 3 8 4
v 3 8 3
v 3 8 2
v 3 8 1
v 3 8 -1
v 3 8 -2
v 3 8 -3
v 3 8 -4
v 3 9 3
v 3 9 2
v 3 9 1
v 3 9 -1
v 3 9 -2
v 3 9 -3
v 4 1 1
v 4 1 -1
v 4 2 3
v 4 2 2
v 4 2 1
v 4 2 -1
v 4 2 -2
v 4 2 -3
v 4 3 3
v 4 3 2
v 4 3 -2
v 4 3 -3
v 4 4 4
v 4 4 3
v 4 4 2
v 4 4 -2
v 4 4 -3
v 4 4 -4
v 4 6 4
v 4 6 3
v 4 6 2
v 4 6 -2
v 4 6 -3
v 4 6 -4
v 4 7 3
v 4 7 2
v 4 7 -2
v 4 7 -3
v 4 8 3
v 4 8 2
v 4 8 1
v 4 8 -1
v 4 8 -2
v 4 8 -3
v 4 9 1
v 4 9 -1
v 5 3 2
v 5 3 -2
v 5 4 2
v 5 4 -2
v 5 6 2
v 5 6 -2
v 5 7 2
v 5 7 -2
v -2 3 5
v -2 4 5
v -2 6 5
v -2 7 5
v -1 3 5
v -1 4 5
v -1 6 5
v -1 7 5
v 1 3 5
v 1 4 5
v 1 6 5
v 1 7 5
v 2 3 5
v 2 4 5
v 2 6 5
v 2 7 5
v -4 4 4
v -4 6 4
v -3 2 4
v -3 4 4
v -3 6 4
v -3 8 4
v -2 3 4
v -2 4 4
v -2 6 4
v -2 7 4
v -1 1 4
v -1 2 4
v -1 3 4
v -1 7 4
v -1 8 4
v -1 9 4
v 1 1 4
v 1 2 4
v 1 3 4
v 1 7 4
v 1 8 4
v 1 9 4
v 2 3 4
v 2 4 4
v 2 6 4
v 2 7 4
v 3 2 4
v 3 4 4
v 3 6 4
v 3 8 4
v 4 4 4
v 4 6 4
v -4 2 3
v -4 3 3
v -4 4 3
v -4 6 3
v -4 7 3
v -4 8 3
v -3 1 3
v -3 2 3
v -3 3 3
v -3 4 3
v -3 6 3
v -3 7 3
v -3 8 3
v -3 9 3
v -2 8 3
v -2 9 3
v -1 1 3
v -1 2 3
v -1 8 3
v -1 9 3
v 1 1 3
v 1 2 3
v 1 8 3
v 1 9 3
v 2 8 3
v 2 9 3
v 3 1 3
v 3 2 3
v 3 3 3
v 3 4 3
v 3 6 3
v 3 7 3
v 3 8 3
v 3 9 3
v 4 2 3
v 4 3 3
v 4 4 3
v 4 6 3
v 4 7 3
v 4 8 3
v -5 3 2
v -5 4 2
v -5 6 2
v -5 7 2
v -4 3 2
v -4 4 2
v -4 6 2
v -4 7 2
v -2 0 2
v -2 1 2
v -2 9 2
v -2 10 2
v 2 0 2
v 2 1 2
v 2 9 2
v 2 10 2
v 4 3 2
v 4 4 2
v 4 6 2
v 4 7 2
v 5 3 2
v 5 4 2
v 5 6 2
v 5 7 2
v -4 1 1
v -4 2 1
v -4 8 1
v -4 9 1
v -3 1 1
v -3 2 1
v -3 8 1
v -3 9 1
v 3 1 1
v 3 2 1
v 3 8 1
v 3 9 1
v 4 1 1
v 4 2 1
v 4 8 1
v 4 9 1
v -4 1 -1
v -4 2 -1
v -4 8 -1
v -4 9 -1
v -3 1 -1
v -3 2 -1
v -3 8 -1
v -3 9 -1
v 3 1 -1
v 3 2 -1
v 3 8 -1
v 3 9 -1
v 4 1 -1
v 4 2 -1
v 4 8 -1
v 4 9 -1
v -5 3 -2
v -5 4 -2
v -5 6 -2
v -5 7 -2
v -4 3 -2
v -4 4 -2
v -4 6 -2
v -4 7 -2
v -2 0 -2
v -2 1 -2
v -2 9 -2
v -2 10 -2
v 2 0 -2
v 2 1 -2
v 2 9 -2
v 2 10 -2
v 4 3 -2
v 4 4 -2
v 4 6 -2
v 4 7 -2
v 5 3 -2
v 5 4 -2
v 5 6 -2
v 5 7 -2
v -4 2 -3
v -4 3 -3
v -4 4 -3
v -4 6 -3
v -4 7 -3
v -4 8 -3
v -3 1 -3
v -3 2 -3
v -3 3 -3
v -3 4 -3
v -3 6 -3
v -3 7 -3
v -3 8 -3
v -3 9 -3
v -1 1 -3
v -1 2 -3
v -1 8 -3
v -1 9 -3
v 1 1 -3
v 1 2 -3
v 1 8 -3
v 1 9 -3
v 3 1 -3
v 3 2 -3
v 3 3 -3
v 3 4 -3
v 3 6 -3
v 3 7 -3
v 3 8 -3
v 3 9 -3
v 4 2 -3
v 4 3 -3
v 4 4 -3
v 4 6 -3
v 4 7 -3
v 4 8 -3
v -4 4 -4
v -4 6 -4
v -3 2 -4
v -3 4 -4
v -3 6 -4
v -3 8 -4
v -2 3 -4
v -2 7 -4
v -1 1 -4
v -1 2 -4
v -1 8 -4
v -1 9 -4
v 1 1 -4
v 1 2 -4
v 1 8 -4
v 1 9 -4
v 2 3 -4
v 2 7 -4
v 3 2 -4
v 3 4 -4
v 3 6 -4
v 3 8 -4
v 4 4 -4
v 4 6 -4
v -2 3 -5
v -2 7 -5
v 2 3 -5
v 2 7 -5
v -2 0 2
v 2 0 2
v 0 0 -0
v 1 0 -0
v 0 0 -1
v 1 0 -1
v -2 0 -2
v 2 0 -2
v -1 1 4
v 1 1 4
v -3 1 3
v -1 1 3
v 1 1 3
v 3 1 3
v -3 1 2
v -2 1 2
v 2 1 2
v 3 1 2
v -4 1 1
v -3 1 1
v 3 1 1
v 4 1 1
v -4 1 -1
v -3 1 -1
v 3 1 -1
v 4 1 -1
v -3 1 -2
v -2 1 -2
v 2 1 -2
v 3 1 -2
v -3 1 -3
v -1 1 -3
v 1 1 -3
v 3 1 -3
v -1 1 -4
v 1 1 -4
v -3 2 4
v -1 2 4
v 1 2 4
v 3 2 4
v -4 2 3
v -3 2 3
v -1 2 3
v 1 2 3
v 3 2 3
v 4 2 3
v -4 2 2
v -3 2 2
v 3 2 2
v 4 2 2
v -4 2 1
v -3 2 1
v 3 2 1
v 4 2 1
v -4 2 -1
v -3 2 -1
v 3 2 -1
v 4 2 -1
v -4 2 -2
v -3 2 -2
v 3 2 -2
v 4 2 -2
v -4 2 -3
v -3 2 -3
v -1 2 -3
v 1 2 -3
v 3 2 -3
v 4 2 -3
v -3 2 -4
v -1 2 -4
v 1 2 -4
v 3 2 -4
v -2 3 5
v -1 3 5
v 1 3 5
v 2 3 5
v -2 3 4
v -1 3 4
v 1 3 4
v 2 3 4
v -5 3 2
v -4 3 2
v 4 3 2
v 5 3 2
v -5 3 -2
v -4 3 -2
v 4 3 -2
v 5 3 -2
v -2 3 -4
v 2 3 -4
v -2 3 -5
v 2 3 -5
v -4 4 4
v -3 4 4
v 3 4 4
v 4 4 4
v -4 4 3
v -3 4 3
v 3 4 3
v 4 4 3
v -4 4 -3
v -3 4 -3
v 3 4 -3
v 4 4 -3
v -4 4 -4
v -3 4 -4
v 3 4 -4
v 4 4 -4
v -4 6 4
v -3 6 4
v 3 6 4
v 4 6 4
v -4 6 3
v -3 6 3
v 3 6 3
v 4 6 3
v -4 6 -3
v -3 6 -3
v 3 6 -3
v 4 6 -3
v -4 6 -4
v -3 6 -4
v 3 6 -4
v 4 6 -4
v -2 7 5
v -1 7 5
v 1 7 5
v 2 7 5
v -2 7 4
v -1 7 4
v 1 7 4
v 2 7 4
v -5 7 2
v -4 7 2
v 4 7 2
v 5 7 2
v -5 7 -2
v -4 7 -2
v 4 7 -2
v 5 7 -2
v -2 7 -4
v 2 7 -4
v -2 7 -5
v 2 7 -5
v -3 8 4
v -1 8 4
v 1 8 4
v 3 8 4
v -4 8 3
v -3 8 3
v -2 8 3
v -1 8 3
v 1 8 3
v 2 8 3
v 3 8 3
v 4 8 3
v -4 8 2
v -3 8 2
v 3 8 2
v 4 8 2
v -4 8 1
v -3 8 1
v 3 8 1
v 4 8 1
v -4 8 -1
v -3 8 -1
v 3 8 -1
v 4 8 -1
v -4 8 -2
v -3 8 -2
v 3 8 -2
v 4 8 -2
v -4 8 -3
v -3 8 -3
v -1 8 -3
v 1 8 -3
v 3 8 -3
v 4 8 -3
v -3 8 -4
v -1 8 -4
v 1 8 -4
v 3 8 -4
v -1 9 4
v 1 9 4
v -3 9 3
v -2 9 3
v -1 9 3
v 1 9 3
v 2 9 3
v 3 9 3
v -3 9 2
v -2 9 2
v 2 9 2
v 3 9 2
v -4 9 1
v -3 9 1
v -2 9 1
v 2 9 1
v 3 9 1
v 4 9 1
v -4 9 -1
v -3 9 -1
v 3 9 -1
v 4 9 -1
v -3 9 -2
v -2 9 -2
v 2 9 -2
v 3 9 -2
v -3 9 -3
v -1 9 -3
v 1 9 -3
v 3 9 -3
v -1 9 -4
v 1 9 -4
v -2 10 2
v 2 10 2
v -2 10 1
v -1 10 1
v 1 10 1
v 2 10 1
v -1 10 -0
v 1 10 -0
v -2 10 -2
v 2 10 -2

# faces
f 3/2/1 2/2/1 1/2/1
f 4/2/1 2/2/1 3/2/1
f 5/3/1 4/3/1 3/3/1
f 6/3/1 4/3/1 5/3/1
f 7/2/1 6/2/1 5/2/1
f 8/2/1 6/2/1 7/2/1
f 13/3/1 10/3/1 9/3/1
f 14/3/1 10/3/1 13/3/1
f 17/2/1 12/2/1 11/2/1
f 18/3/1 13/3/1 12/3/1
f 18/2/1 12/2/1 17/2/1
f 18/3/1 14/3/1 13/3/1
f 18/3/1 15/3/1 14/3/1
f 19/2/1 16/2/1 15/2/1
f 19/3/1 15/3/1 18/3/1
f 20/2/1 16/2/1 19/2/1
f 22/3/1 18/3/1 17/3/1
f 23/3/1 18/3/1 22/3/1
f 24/3/1 20/3/1 19/3/1
f 25/3/1 20/3/1 24/3/1
f 27/3/1 23/3/1 22/3/1
f 27/3/1 22/3/1 21/3/1
f 28/3/1 23/3/1 27/3/1
f 29/3/1 23/3/1 28/3/1
f 30/3/1 26/3/1 25/3/1
f 30/3/1 25/3/1 24/3/1
f 31/3/1 26/3/1 30/3/1
f 32/3/1 26/3/1 31/3/1
f 33/3/1 29/3/1 28/3/1
f 34/3/1 29/3/1 33/3/1
f 35/3/1 31/3/1 30/3/1
f 36/3/1 31/3/1 35/3/1
f 37/2/1 34/2/1 33/2/1
f 38/3/1 35/3/1 34/3/1
f 38/2/1 34/2/1 37/2/1
f 39/3/1 35/3/1 38/3/1
f 40/3/1 35/3/1 39/3/1
f 41/2/1 36/2/1 35/2/1
f 41/3/1 35/3/1 40/3/1
f 42/2/1 36/2/1 41/2/1
f 43/3/1 40/3/1 39/3/1
f 44/3/1 40/3/1 43/3/1
f 52/2/1 46/2/1 45/2/1
f 53/3/1 47/3/1 46/3/1
f 53/2/1 46/2/1 52/2/1
f 54/3/1 47/3/1 53/3/1
f 55/3/1 49/3/1 48/3/1
f 56/2/1 50/2/1 49/2/1
f 56/3/1 49/3/1 55/3/1
f 57/2/1 50/2/1 56/2/1
f 59/3/1 52/3/1 51/3/1
f 60/3/1 58/3/1 57/3/1
f 61/3/1 59/3/1 51/3/1
f 62/3/1 59/3/1 61/3/1
f 63/3/1 58/3/1 60/3/1
f 64/3/1 58/3/1 63/3/1
f 69/3/1 66/3/1 65/3/1
f 70/3/1 68/3/1 67/3/1
f 71/3/1 69/3/1 65/3/1
f 72/3/1 69/3/1 71/3/1
f 77/3/1 68/3/1 70/3/1
f 78/3/1 68/3/1 77/3/1
f 79/2/1 73/2/1 72/2/1
f 80/3/1 74/3/1 73/3/1
f 80/2/1 73/2/1 79/2/1
f 81/3/1 74/3/1 80/3/1
f 82/3/1 76/3/1 75/3/1
f 83/2/1 77/2/1 76/2/1
f 83/3/1 76/3/1 82/3/1
f 84/2/1 77/2/1 83/2/1
f 87/3/1 86/3/1 85/3/1
f 88/3/1 86/3/1 87/3/1
f 93/3/1 90/3/1 89/3/1
f 94/3/1 90/3/1 93/3/1
f 95/1/1 94/1/1 93/1/1
f 96/1/1 94/1/1 95/1/1
f 97/3/1 96/3/1 95/3/1
f 98/3/1 96/3/1 97/3/1
f 99/3/1 92/3/1 91/3/1
f 100/3/1 92/3/1 99/3/1
f 104/1/1 102/1/1 101/1/1
f 105/3/1 103/3/1 102/3/1
f 105/1/1 102/1/1 104/1/1
f 106/3/1 103/3/1 105/3/1
f 111/3/1 108/3/1 107/3/1
f 112/3/1 108/3/1 111/3/1
f 113/3/1 110/3/1 109/3/1
f 114/3/1 110/3/1 113/3/1
f 119/1/1 116/1/1 115/1/1
f 120/1/1 116/1/1 119/1/1
f 121/3/1 118/3/1 117/3/1
f 122/3/1 118/3/1 121/3/1
f 123/3/2 124/3/2 127/3/2
f 127/3/2 124/3/2 128/3/2
f 125/3/2 126/3/2 129/3/2
f 129/3/2 126/3/2 130/3/2
f 131/1/2 132/1/2 135/1/2
f 135/1/2 132/1/2 136/1/2
f 133/3/2 134/3/2 137/3/2
f 137/3/2 134/3/2 138/3/2
f 139/3/2 140/3/2 141/3/2
f 141/3/2 140/3/2 142/3/2
f 143/3/2 144/3/2 147/3/2
f 147/3/2 144/3/2 148/3/2
f 147/1/2 148/1/2 149/1/2
f 149/1/2 148/1/2 150/1/2
f 149/3/2 150/3/2 151/3/2
f 151/3/2 150/3/2 152/3/2
f 145/3/2 146/3/2 153/3/2
f 153/3/2 146/3/2 154/3/2
f 155/1/2 156/1/2 158/1/2
f 156/3/2 157/3/2 159/3/2
f 158/1/2 156/1/2 159/1/2
f 159/3/2 157/3/2 160/3/2
f 161/2/2 162/2/2 168/2/2
f 162/3/2 163/3/2 169/3/2
f 168/2/2 162/2/2 169/2/2
f 169/3/2 163/3/2 170/3/2
f 164/3/2 165/3/2 171/3/2
f 165/2/2 166/2/2 172/2/2
f 171/3/2 165/3/2 172/3/2
f 172/2/2 166/2/2 173/2/2
f 167/3/2 168/3/2 175/3/2
f 173/3/2 174/3/2 176/3/2
f 167/3/2 175/3/2 177/3/2
f 177/3/2 175/3/2 178/3/2
f 176/3/2 174/3/2 179/3/2
f 179/3/2 174/3/2 180/3/2
f 181/3/2 182/3/2 185/3/2
f 183/3/2 184/3/2 186/3/2
f 181/3/2 185/3/2 187/3/2
f 187/3/2 185/3/2 188/3/2
f 186/3/2 184/3/2 193/3/2
f 193/3/2 184/3/2 194/3/2
f 188/2/2 189/2/2 195/2/2
f 189/3/2 190/3/2 196/3/2
f 195/2/2 189/2/2 196/2/2
f 196/3/2 190/3/2 197/3/2
f 191/3/2 192/3/2 198/3/2
f 192/2/2 193/2/2 199/2/2
f 198/3/2 192/3/2 199/3/2
f 199/2/2 193/2/2 200/2/2
f 201/3/2 202/3/2 205/3/2
f 205/3/2 202/3/2 206/3/2
f 203/2/2 204/2/2 209/2/2
f 204/3/2 205/3/2 210/3/2
f 209/2/2 204/2/2 210/2/2
f 205/3/2 206/3/2 210/3/2
f 206/3/2 207/3/2 210/3/2
f 207/2/2 208/2/2 211/2/2
f 210/3/2 207/3/2 211/3/2
f 211/2/2 208/2/2 212/2/2
f 209/3/2 210/3/2 214/3/2
f 214/3/2 210/3/2 215/3/2
f 211/3/2 212/3/2 216/3/2
f 216/3/2 212/3/2 217/3/2
f 214/3/2 215/3/2 219/3/2
f 213/3/2 214/3/2 219/3/2
f 219/3/2 215/3/2 220/3/2
f 220/3/2 215/3/2 221/3/2
f 217/3/2 218/3/2 222/3/2
f 216/3/2 217/3/2 222/3/2
f 222/3/2 218/3/2 223/3/2
f 223/3/2 218/3/2 224/3/2
f 220/3/2 221/3/2 225/3/2
f 225/3/2 221/3/2 226/3/2
f 222/3/2 223/3/2 227/3/2
f 227/3/2 223/3/2 228/3/2
f 225/2/2 226/2/2 229/2/2
f 226/3/2 227/3/2 230/3/2
f 229/2/2 226/2/2 230/2/2
f 230/3/2 227/3/2 231/3/2
f 231/3/2 227/3/2 232/3/2
f 227/2/2 228/2/2 233/2/2
f 232/3/2 227/3/2 233/3/2
f 233/2/2 228/2/2 234/2/2
f 231/3/2 232/3/2 235/3/2
f 235/3/2 232/3/2 236/3/2
f 237/2/2 238/2/2 239/2/2
f 239/2/2 238/2/2 240/2/2
f 239/3/2 240/3/2 241/3/2
f 241/3/2 240/3/2 242/3/2
f 241/2/2 242/2/2 243/2/2
f 243/2/2 242/2/2 244/2/2
f 249/3/3 246/3/3 245/3/3
f 250/1/3 247/1/3 246/1/3
f 250/3/3 246/3/3 249/3/3
f 251/3/3 248/3/3 247/3/3
f 251/1/3 247/1/3 250/1/3
f 252/3/3 248/3/3 251/3/3
f 253/1/3 250/1/3 249/1/3
f 253/1/3 251/1/3 250/1/3
f 253/1/3 252/1/3 251/1/3
f 254/1/3 252/1/3 253/1/3
f 255/1/3 252/1/3 254/1/3
f 256/1/3 252/1/3 255/1/3
f 257/3/3 254/3/3 253/3/3
f 258/1/3 255/1/3 254/1/3
f 258/3/3 254/3/3 257/3/3
f 259/3/3 256/3/3 255/3/3
f 259/1/3 255/1/3 258/1/3
f 260/3/3 256/3/3 259/3/3
f 264/3/3 262/3/3 261/3/3
f 265/3/3 262/3/3 264/3/3
f 267/3/3 264/3/3 263/3/3
f 267/3/3 266/3/3 265/3/3
f 267/3/3 265/3/3 264/3/3
f 268/3/3 266/3/3 267/3/3
f 269/3/3 266/3/3 268/3/3
f 270/3/3 266/3/3 269/3/3
f 272/3/3 267/3/3 263/3/3
f 273/3/3 267/3/3 272/3/3
f 274/3/3 266/3/3 270/3/3
f 275/3/3 266/3/3 274/3/3
f 277/3/3 273/3/3 272/3/3
f 277/3/3 272/3/3 271/3/3
f 278/3/3 273/3/3 277/3/3
f 279/3/3 273/3/3 278/3/3
f 280/3/3 275/3/3 274/3/3
f 281/1/3 276/1/3 275/1/3
f 281/3/3 275/3/3 280/3/3
f 282/1/3 276/1/3 281/1/3
f 283/3/3 279/3/3 278/3/3
f 286/3/3 281/3/3 280/3/3
f 287/3/3 285/3/3 284/3/3
f 287/3/3 286/3/3 285/3/3
f 287/3/3 283/3/3 278/3/3
f 287/3/3 284/3/3 283/3/3
f 288/3/3 286/3/3 287/3/3
f 289/3/3 286/3/3 288/3/3
f 290/3/3 281/3/3 286/3/3
f 290/3/3 286/3/3 289/3/3
f 291/3/3 289/3/3 288/3/3
f 292/3/3 289/3/3 291/3/3
f 300/2/3 294/2/3 293/2/3
f 301/3/3 295/3/3 294/3/3
f 301/2/3 294/2/3 300/2/3
f 302/3/3 295/3/3 301/3/3
f 303/3/3 297/3/3 296/3/3
f 304/2/3 298/2/3 297/2/3
f 304/3/3 297/3/3 303/3/3
f 305/2/3 298/2/3 304/2/3
f 307/2/3 306/2/3 305/2/3
f 308/2/3 306/2/3 307/2/3
f 309/2/3 300/2/3 299/2/3
f 310/2/3 300/2/3 309/2/3
f 311/1/3 308/1/3 307/1/3
f 312/1/3 308/1/3 311/1/3
f 317/1/3 316/1/3 315/1/3
f 318/1/3 316/1/3 317/1/3
f 319/2/3 314/2/3 313/2/3
f 320/2/3 314/2/3 319/2/3
f 325/2/3 318/2/3 317/2/3
f 326/2/3 318/2/3 325/2/3
f 327/2/3 321/2/3 320/2/3
f 328/3/3 322/3/3 321/3/3
f 328/2/3 321/2/3 327/2/3
f 329/3/3 322/3/3 328/3/3
f 330/3/3 324/3/3 323/3/3
f 331/2/3 325/2/3 324/2/3
f 331/3/3 324/3/3 330/3/3
f 332/2/3 325/2/3 331/2/3
f 337/2/3 334/2/3 333/2/3
f 338/3/3 335/3/3 334/3/3
f 338/2/3 334/2/3 337/2/3
f 339/2/3 336/2/3 335/2/3
f 339/3/3 335/3/3 338/3/3
f 340/2/3 336/2/3 339/2/3
f 345/3/3 342/3/3 341/3/3
f 346/3/3 342/3/3 345/3/3
f 347/1/3 344/1/3 343/1/3
f 348/1/3 344/1/3 347/1/3
f 353/2/3 350/2/3 349/2/3
f 354/3/3 351/3/3 350/3/3
f 354/2/3 350/2/3 353/2/3
f 355/2/3 352/2/3 351/2/3
f 355/3/3 351/3/3 354/3/3
f 356/2/3 352/2/3 355/2/3
f 361/3/3 358/3/3 357/3/3
f 362/3/3 358/3/3 361/3/3
f 363/3/3 360/3/3 359/3/3
f 364/3/3 360/3/3 363/3/3
f 369/3/3 366/3/3 365/3/3
f 370/3/3 366/3/3 369/3/3
f 371/3/3 368/3/3 367/3/3
f 372/3/3 368/3/3 371/3/3
f 373/3/4 374/3/4 377/3/4
f 377/3/4 374/3/4 378/3/4
f 375/3/4 376/3/4 379/3/4
f 379/3/4 376/3/4 380/3/4
f 381/3/4 382/3/4 385/3/4
f 385/3/4 382/3/4 386/3/4
f 383/3/4 384/3/4 387/3/4
f 387/3/4 384/3/4 388/3/4
f 389/2/4 390/2/4 393/2/4
f 390/3/4 391/3/4 394/3/4
f 393/2/4 390/2/4 394/2/4
f 391/2/4 392/2/4 395/2/4
f 394/3/4 391/3/4 395/3/4
f 395/2/4 392/2/4 396/2/4
f 397/3/4 398/3/4 401/3/4
f 401/3/4 398/3/4 402/3/4
f 399/3/4 400/3/4 403/3/4
f 403/3/4 400/3/4 404/3/4
f 405/2/4 406/2/4 409/2/4
f 406/3/4 407/3/4 410/3/4
f 409/2/4 406/2/4 410/2/4
f 407/2/4 408/2/4 411/2/4
f 410/3/4 407/3/4 411/3/4
f 411/2/4 408/2/4 412/2/4
f 413/2/4 414/2/4 420/2/4
f 414/3/4 415/3/4 421/3/4
f 420/2/4 414/2/4 421/2/4
f 421/3/4 415/3/4 422/3/4
f 416/3/4 417/3/4 423/3/4
f 417/2/4 418/2/4 424/2/4
f 423/3/4 417/3/4 424/3/4
f 424/2/4 418/2/4 425/2/4
f 419/2/4 420/2/4 427/2/4
f 427/2/4 420/2/4 428/2/4
f 425/2/4 426/2/4 429/2/4
f 429/2/4 426/2/4 430/2/4
f 431/2/4 432/2/4 435/2/4
f 435/2/4 432/2/4 436/2/4
f 433/2/4 434/2/4 441/2/4
f 441/2/4 434/2/4 442/2/4
f 436/2/4 437/2/4 443/2/4
f 437/3/4 438/3/4 444/3/4
f 443/2/4 437/2/4 444/2/4
f 444/3/4 438/3/4 445/3/4
f 439/3/4 440/3/4 446/3/4
f 440/2/4 441/2/4 447/2/4
f 446/3/4 440/3/4 447/3/4
f 447/2/4 441/2/4 448/2/4
f 449/3/4 450/3/4 452/3/4
f 452/3/4 450/3/4 453/3/4
f 451/3/4 452/3/4 455/3/4
f 453/3/4 454/3/4 455/3/4
f 452/3/4 453/3/4 455/3/4
f 455/3/4 454/3/4 456/3/4
f 451/3/4 455/3/4 458/3/4
f 456/3/4 454/3/4 459/3/4
f 457/3/4 458/3/4 461/3/4
f 458/3/4 455/3/4 462/3/4
f 461/3/4 458/3/4 462/3/4
f 459/3/4 460/3/4 463/3/4
f 456/3/4 459/3/4 463/3/4
f 463/3/4 460/3/4 464/3/4
f 462/3/4 455/3/4 465/3/4
f 456/3/4 463/3/4 466/3/4
f 462/3/4 465/3/4 467/3/4
f 465/3/4 466/3/4 467/3/4
f 467/3/4 466/3/4 468/3/4
f 468/3/4 466/3/4 469/3/4
f 466/3/4 463/3/4 470/3/4
f 469/3/4 466/3/4 470/3/4
f 468/3/4 469/3/4 471/3/4
f 471/3/4 469/3/4 472/3/4
f 473/3/4 474/3/4 475/3/4
f 475/3/4 474/3/4 476/3/4
f 479/3/5 478/3/5 477/3/5
f 480/3/5 478/3/5 479/3/5
f 481/3/5 479/3/5 477/3/5
f 481/4/5 480/4/5 479/4/5
f 482/3/5 478/3/5 480/3/5
f 482/4/5 480/4/5 481/4/5
f 483/3/5 481/3/5 477/3/5
f 483/3/5 482/3/5 481/3/5
f 484/3/5 478/3/5 482/3/5
f 484/3/5 482/3/5 483/3/5
f 488/3/5 486/3/5 485/3/5
f 489/3/5 486/3/5 488/3/5
f 491/2/5 488/2/5 487/2/5
f 491/2/5 490/2/5 489/2/5
f 491/2/5 489/2/5 488/2/5
f 492/2/5 490/2/5 491/2/5
f 493/2/5 490/2/5 492/2/5
f 494/2/5 490/2/5 493/2/5
f 496/3/5 492/3/5 491/3/5
f 497/3/5 494/3/5 493/3/5
f 499/3/5 496/3/5 495/3/5
f 500/3/5 492/3/5 496/3/5
f 500/3/5 496/3/5 499/3/5
f 501/3/5 498/3/5 497/3/5
f 501/3/5 497/3/5 493/3/5
f 502/3/5 498/3/5 501/3/5
f 503/3/5 492/3/5 500/3/5
f 504/3/5 492/3/5 503/3/5
f 505/3/5 501/3/5 493/3/5
f 506/3/5 501/3/5 505/3/5
f 507/2/5 504/2/5 503/2/5
f 507/2/5 505/2/5 504/2/5
f 507/2/5 506/2/5 505/2/5
f 508/2/5 506/2/5 507/2/5
f 509/2/5 506/2/5 508/2/5
f 510/2/5 506/2/5 509/2/5
f 511/3/5 509/3/5 508/3/5
f 512/3/5 509/3/5 511/3/5
f 518/3/5 514/3/5 513/3/5
f 519/3/5 514/3/5 518/3/5
f 520/3/5 516/3/5 515/3/5
f 521/3/5 516/3/5 520/3/5
f 523/2/5 518/2/5 517/2/5
f 524/2/5 518/2/5 523/2/5
f 525/2/5 522/2/5 521/2/5
f 526/2/5 522/2/5 525/2/5
f 527/3/5 524/3/5 523/3/5
f 528/3/5 524/3/5 527/3/5
f 529/3/5 526/3/5 525/3/5
f 530/3/5 526/3/5 529/3/5
f 535/3/5 532/3/5 531/3/5
f 536/3/5 532/3/5 535/3/5
f 537/3/5 534/3/5 533/3/5
f 538/3/5 534/3/5 537/3/5
f 539/2/5 536/2/5 535/2/5
f 540/2/5 536/2/5 539/2/5
f 543/2/5 538/2/5 537/2/5
f 544/2/5 538/2/5 543/2/5
f 545/3/5 541/3/5 540/3/5
f 546/3/5 541/3/5 545/3/5
f 547/3/5 543/3/5 542/3/5
f 548/3/5 543/3/5 547/3/5
f 553/3/5 550/3/5 549/3/5
f 554/1/5 551/1/5 550/1/5
f 554/3/5 550/3/5 553/3/5
f 555/3/5 552/3/5 551/3/5
f 555/1/5 551/1/5 554/1/5
f 556/3/5 552/3/5 555/3/5
f 561/2/5 558/2/5 557/2/5
f 562/2/5 558/2/5 561/2/5
f 563/2/5 560/2/5 559/2/5
f 564/2/5 560/2/5 563/2/5
f 567/3/5 566/3/5 565/3/5
f 568/3/5 566/3/5 567/3/5
f 573/3/5 570/3/5 569/3/5
f 574/3/5 570/3/5 573/3/5
f 575/3/5 572/3/5 571/3/5
f 576/3/5 572/3/5 575/3/5
f 581/3/5 578/3/5 577/3/5
f 582/3/5 578/3/5 581/3/5
f 583/3/5 580/3/5 579/3/5
f 584/3/5 580/3/5 583/3/5
f 585/3/6 586/3/6 589/3/6
f 589/3/6 586/3/6 590/3/6
f 587/3/6 588/3/6 591/3/6
f 591/3/6 588/3/6 592/3/6
f 593/3/6 594/3/6 597/3/6
f 597/3/6 594/3/6 598/3/6
f 595/3/6 596/3/6 599/3/6
f 599/3/6 596/3/6 600/3/6
f 601/3/6 602/3/6 605/3/6
f 602/1/6 603/1/6 606/1/6
f 605/3/6 602/3/6 606/3/6
f 603/3/6 604/3/6 607/3/6
f 606/1/6 603/1/6 607/1/6
f 607/3/6 604/3/6 608/3/6
f 609/2/6 610/2/6 613/2/6
f 613/2/6 610/2/6 614/2/6
f 611/2/6 612/2/6 615/2/6
f 615/2/6 612/2/6 616/2/6
f 617/3/6 618/3/6 619/3/6
f 619/3/6 618/3/6 620/3/6
f 621/3/6 622/3/6 626/3/6
f 626/3/6 622/3/6 627/3/6
f 627/3/6 622/3/6 628/3/6
f 623/3/6 624/3/6 629/3/6
f 629/3/6 624/3/6 630/3/6
f 630/3/6 624/3/6 631/3/6
f 625/2/6 626/2/6 633/2/6
f 633/2/6 626/2/6 634/2/6
f 631/2/6 632/2/6 635/2/6
f 635/2/6 632/2/6 636/2/6
f 633/3/6 634/3/6 637/3/6
f 637/3/6 634/3/6 638/3/6
f 635/3/6 636/3/6 639/3/6
f 639/3/6 636/3/6 640/3/6
f 641/3/6 642/3/6 645/3/6
f 645/3/6 642/3/6 646/3/6
f 643/3/6 644/3/6 647/3/6
f 647/3/6 644/3/6 648/3/6
f 645/2/6 646/2/6 649/2/6
f 649/2/6 646/2/6 650/2/6
f 647/2/6 648/2/6 653/2/6
f 653/2/6 648/2/6 654/2/6
f 650/3/6 651/3/6 655/3/6
f 655/3/6 651/3/6 656/3/6
f 652/3/6 653/3/6 657/3/6
f 657/3/6 653/3/6 658/3/6
f 659/1/6 660/1/6 663/1/6
f 663/1/6 660/1/6 664/1/6
f 661/2/6 662/2/6 667/2/6
f 662/1/6 663/1/6 668/1/6
f 667/2/6 662/2/6 668/2/6
f 663/1/6 664/1/6 668/1/6
f 664/1/6 665/1/6 668/1/6
f 665/2/6 666/2/6 669/2/6
f 668/1/6 665/1/6 669/1/6
f 669/2/6 666/2/6 670/2/6
f 667/3/6 668/3/6 672/3/6
f 672/3/6 668/3/6 673/3/6
f 669/3/6 670/3/6 674/3/6
f 674/3/6 670/3/6 675/3/6
f 672/3/6 673/3/6 677/3/6
f 671/3/6 672/3/6 677/3/6
f 677/3/6 673/3/6 678/3/6
f 675/3/6 676/3/6 679/3/6
f 674/3/6 675/3/6 679/3/6
f 679/3/6 676/3/6 680/3/6
f 678/3/6 673/3/6 681/3/6
f 681/3/6 673/3/6 682/3/6
f 674/3/6 679/3/6 683/3/6
f 683/3/6 679/3/6 684/3/6
f 681/2/6 682/2/6 685/2/6
f 682/2/6 683/2/6 685/2/6
f 683/2/6 684/2/6 685/2/6
f 685/2/6 684/2/6 686/2/6
f 686/2/6 684/2/6 687/2/6
f 687/2/6 684/2/6 688/2/6
f 686/3/6 687/3/6 689/3/6
f 689/3/6 687/3/6 690/3/6
f 691/1/6 692/1/6 693/1/6
f 693/1/6 692/1/6 694/1/6
f 694/1/6 692/1/6 695/1/6
f 695/1/6 692/1/6 696/1/6
f 693/3/6 694/3/6 697/3/6
f 694/1/6 695/1/6 697/1/6
f 695/3/6 696/3/6 698/3/6
f 697/1/6 695/1/6 698/1/6
f 693/3/6 697/3/6 699/3/6
f 697/3/6 698/3/6 699/3/6
f 698/3/6 696/3/6 700/3/6
f 699/3/6 698/3/6 700/3/6
