# MagicaVoxel @ Ephtracy

# material
mtllib gun1.mtl
usemtl palette

# normals
vn -1 0 0
vn 1 0 0
vn 0 0 1
vn 0 0 -1
vn 0 -1 0
vn 0 1 0

# texcoords
vt 0.818359 0.5
vt 0.822266 0.5

# verts
v -10 0 2
v -10 0 -2
v -10 3 2
v -10 3 -2
v -10 5 1
v -10 5 -1
v -10 7 1
v -10 7 -1
v -8 3 2
v -8 3 -2
v -8 5 1
v -8 5 -1
v -8 6 2
v -8 6 1
v -8 6 -1
v -8 6 -2
v 4 7 1
v 4 7 -1
v 4 8 1
v 4 8 -1
v 5 3 3
v 5 3 2
v 5 3 -2
v 5 3 -3
v 5 4 3
v 5 4 2
v 5 4 -2
v 5 4 -3
v 5 5 3
v 5 5 2
v 5 5 -2
v 5 5 -3
v 5 6 3
v 5 6 2
v 5 6 1
v 5 6 -1
v 5 6 -2
v 5 6 -3
v 5 7 3
v 5 7 2
v 5 7 1
v 5 7 -1
v 5 7 -2
v 5 7 -3
v 5 8 2
v 5 8 1
v 5 8 -1
v 5 8 -2
v 5 9 1
v 5 9 -1
v -7 0 2
v -7 0 -2
v -7 1 2
v -7 1 -2
v -6 1 2
v -6 1 -2
v -6 2 2
v -6 2 -2
v -4 2 2
v -4 2 -2
v -4 3 2
v -4 3 -2
v 6 3 3
v 6 3 2
v 6 3 -2
v 6 3 -3
v 6 4 3
v 6 4 2
v 6 4 -2
v 6 4 -3
v 6 5 3
v 6 5 2
v 6 5 -2
v 6 5 -3
v 6 6 3
v 6 6 2
v 6 6 1
v 6 6 -1
v 6 6 -2
v 6 6 -3
v 6 7 3
v 6 7 2
v 6 7 1
v 6 7 -1
v 6 7 -2
v 6 7 -3
v 6 8 2
v 6 8 1
v 6 8 -1
v 6 8 -2
v 7 7 1
v 7 7 -1
v 7 8 1
v 7 8 -1
v 8 8 1
v 8 8 -1
v 8 9 1
v 8 9 -1
v 10 3 2
v 10 3 -2
v 10 4 1
v 10 4 -1
v 10 5 1
v 10 5 -1
v 10 6 2
v 10 6 1
v 10 6 -1
v 10 6 -2
v 10 7 1
v 10 7 -1
v 5 3 3
v 5 4 3
v 5 5 3
v 5 6 3
v 5 7 3
v 6 3 3
v 6 4 3
v 6 5 3
v 6 6 3
v 6 7 3
v -10 0 2
v -10 3 2
v -8 3 2
v -8 6 2
v -7 0 2
v -7 1 2
v -6 1 2
v -6 2 2
v -6 4 2
v -6 5 2
v -5 4 2
v -5 5 2
v -4 2 2
v -4 3 2
v -4 4 2
v -4 5 2
v -3 4 2
v -3 5 2
v -2 4 2
v -2 5 2
v 0 4 2
v 0 5 2
v 2 4 2
v 2 5 2
v 5 3 2
v 5 4 2
v 5 5 2
v 5 6 2
v 5 7 2
v 5 8 2
v 6 3 2
v 6 4 2
v 6 5 2
v 6 6 2
v 6 7 2
v 6 8 2
v 9 4 2
v 9 5 2
v 10 3 2
v 10 6 2
v -10 5 1
v -10 7 1
v -8 5 1
v -8 6 1
v -2 6 1
v -2 7 1
v -1 6 1
v -1 7 1
v 0 6 1
v 0 7 1
v 1 6 1
v 1 7 1
v 2 6 1
v 2 7 1
v 3 6 1
v 3 7 1
v 4 7 1
v 4 8 1
v 5 6 1
v 5 7 1
v 5 8 1
v 5 9 1
v 6 6 1
v 6 7 1
v 6 8 1
v 7 7 1
v 7 8 1
v 8 8 1
v 8 9 1
v 10 6 1
v 10 7 1
v -10 5 -1
v -10 7 -1
v -8 5 -1
v -8 6 -1
v -2 6 -1
v -2 7 -1
v -1 6 -1
v -1 7 -1
v 0 6 -1
v 0 7 -1
v 1 6 -1
v 1 7 -1
v 2 6 -1
v 2 7 -1
v 3 6 -1
v 3 7 -1
v 4 7 -1
v 4 8 -1
v 5 6 -1
v 5 7 -1
v 5 8 -1
v 5 9 -1
v 6 6 -1
v 6 7 -1
v 6 8 -1
v 7 7 -1
v 7 8 -1
v 8 8 -1
v 8 9 -1
v 10 6 -1
v 10 7 -1
v -10 0 -2
v -10 3 -2
v -8 3 -2
v -8 6 -2
v -7 0 -2
v -7 1 -2
v -6 1 -2
v -6 2 -2
v -6 4 -2
v -6 5 -2
v -5 4 -2
v -5 5 -2
v -4 2 -2
v -4 3 -2
v -4 4 -2
v -4 5 -2
v -3 4 -2
v -3 5 -2
v -2 4 -2
v -2 5 -2
v 0 4 -2
v 0 5 -2
v 2 4 -2
v 2 5 -2
v 5 3 -2
v 5 4 -2
v 5 5 -2
v 5 6 -2
v 5 7 -2
v 5 8 -2
v 6 3 -2
v 6 4 -2
v 6 5 -2
v 6 6 -2
v 6 7 -2
v 6 8 -2
v 9 4 -2
v 9 5 -2
v 10 3 -2
v 10 6 -2
v 5 3 -3
v 5 4 -3
v 5 5 -3
v 5 6 -3
v 5 7 -3
v 6 3 -3
v 6 4 -3
v 6 5 -3
v 6 6 -3
v 6 7 -3
v -10 0 2
v -7 0 2
v -10 0 -2
v -7 0 -2
v -7 1 2
v -6 1 2
v -7 1 -2
v -6 1 -2
v -6 2 2
v -4 2 2
v -6 2 -2
v -4 2 -2
v 5 3 3
v 6 3 3
v -4 3 2
v 5 3 2
v 6 3 2
v 10 3 2
v -4 3 -2
v 5 3 -2
v 6 3 -2
v 10 3 -2
v 5 3 -3
v 6 3 -3
v -10 5 1
v -8 5 1
v -10 5 -1
v -8 5 -1
v 7 8 1
v 8 8 1
v 7 8 -1
v 8 8 -1
v -10 3 2
v -8 3 2
v -10 3 -2
v -8 3 -2
v -8 6 2
v 5 6 2
v 6 6 2
v 10 6 2
v -8 6 1
v -2 6 1
v -1 6 1
v 0 6 1
v 1 6 1
v 2 6 1
v 3 6 1
v 5 6 1
v 6 6 1
v 10 6 1
v -8 6 -1
v -2 6 -1
v -1 6 -1
v 0 6 -1
v 1 6 -1
v 2 6 -1
v 3 6 -1
v 5 6 -1
v 6 6 -1
v 10 6 -1
v -8 6 -2
v 5 6 -2
v 6 6 -2
v 10 6 -2
v 5 7 3
v 6 7 3
v 5 7 2
v 6 7 2
v -10 7 1
v -2 7 1
v -1 7 1
v 0 7 1
v 1 7 1
v 2 7 1
v 3 7 1
v 4 7 1
v 7 7 1
v 10 7 1
v -10 7 -1
v -2 7 -1
v -1 7 -1
v 0 7 -1
v 1 7 -1
v 2 7 -1
v 3 7 -1
v 4 7 -1
v 7 7 -1
v 10 7 -1
v 5 7 -2
v 6 7 -2
v 5 7 -3
v 6 7 -3
v 5 8 2
v 6 8 2
v 4 8 1
v 5 8 1
v 6 8 1
v 4 8 -1
v 5 8 -1
v 6 8 -1
v 5 8 -2
v 6 8 -2
v 5 9 1
v 8 9 1
v 5 9 -1
v 8 9 -1

# faces
f 3/1/1 2/1/1 1/1/1
f 4/1/1 2/1/1 3/1/1
f 7/1/1 6/1/1 5/1/1
f 8/1/1 6/1/1 7/1/1
f 11/1/1 10/1/1 9/1/1
f 12/1/1 10/1/1 11/1/1
f 13/1/1 11/1/1 9/1/1
f 14/1/1 11/1/1 13/1/1
f 15/1/1 10/1/1 12/1/1
f 16/1/1 10/1/1 15/1/1
f 19/2/1 18/2/1 17/2/1
f 20/2/1 18/2/1 19/2/1
f 25/1/1 22/1/1 21/1/1
f 26/1/1 22/1/1 25/1/1
f 27/1/1 24/1/1 23/1/1
f 28/1/1 24/1/1 27/1/1
f 29/2/1 26/2/1 25/2/1
f 30/2/1 26/2/1 29/2/1
f 31/2/1 28/2/1 27/2/1
f 32/2/1 28/2/1 31/2/1
f 33/1/1 30/1/1 29/1/1
f 34/1/1 30/1/1 33/1/1
f 37/1/1 32/1/1 31/1/1
f 38/1/1 32/1/1 37/1/1
f 39/2/1 34/2/1 33/2/1
f 40/1/1 35/1/1 34/1/1
f 40/2/1 34/2/1 39/2/1
f 41/1/1 35/1/1 40/1/1
f 42/1/1 37/1/1 36/1/1
f 43/2/1 38/2/1 37/2/1
f 43/1/1 37/1/1 42/1/1
f 44/2/1 38/2/1 43/2/1
f 45/1/1 41/1/1 40/1/1
f 46/1/1 41/1/1 45/1/1
f 47/1/1 43/1/1 42/1/1
f 48/1/1 43/1/1 47/1/1
f 49/2/1 47/2/1 46/2/1
f 50/2/1 47/2/1 49/2/1
f 51/1/2 52/1/2 53/1/2
f 53/1/2 52/1/2 54/1/2
f 55/1/2 56/1/2 57/1/2
f 57/1/2 56/1/2 58/1/2
f 59/1/2 60/1/2 61/1/2
f 61/1/2 60/1/2 62/1/2
f 63/1/2 64/1/2 67/1/2
f 67/1/2 64/1/2 68/1/2
f 65/1/2 66/1/2 69/1/2
f 69/1/2 66/1/2 70/1/2
f 67/2/2 68/2/2 71/2/2
f 71/2/2 68/2/2 72/2/2
f 69/2/2 70/2/2 73/2/2
f 73/2/2 70/2/2 74/2/2
f 71/1/2 72/1/2 75/1/2
f 75/1/2 72/1/2 76/1/2
f 73/1/2 74/1/2 79/1/2
f 79/1/2 74/1/2 80/1/2
f 75/2/2 76/2/2 81/2/2
f 76/1/2 77/1/2 82/1/2
f 81/2/2 76/2/2 82/2/2
f 82/1/2 77/1/2 83/1/2
f 78/1/2 79/1/2 84/1/2
f 79/2/2 80/2/2 85/2/2
f 84/1/2 79/1/2 85/1/2
f 85/2/2 80/2/2 86/2/2
f 82/1/2 83/1/2 87/1/2
f 87/1/2 83/1/2 88/1/2
f 84/1/2 85/1/2 89/1/2
f 89/1/2 85/1/2 90/1/2
f 91/2/2 92/2/2 93/2/2
f 93/2/2 92/2/2 94/2/2
f 95/2/2 96/2/2 97/2/2
f 97/2/2 96/2/2 98/2/2
f 99/1/2 100/1/2 101/1/2
f 101/1/2 100/1/2 102/1/2
f 99/1/2 101/1/2 103/1/2
f 101/2/2 102/2/2 103/2/2
f 102/1/2 100/1/2 104/1/2
f 103/2/2 102/2/2 104/2/2
f 99/1/2 103/1/2 105/1/2
f 103/1/2 104/1/2 105/1/2
f 105/1/2 104/1/2 106/1/2
f 104/1/2 100/1/2 107/1/2
f 106/1/2 104/1/2 107/1/2
f 107/1/2 100/1/2 108/1/2
f 106/1/2 107/1/2 109/1/2
f 109/1/2 107/1/2 110/1/2
f 116/1/3 112/1/3 111/1/3
f 117/2/3 113/2/3 112/2/3
f 117/1/3 112/1/3 116/1/3
f 118/1/3 114/1/3 113/1/3
f 118/2/3 113/2/3 117/2/3
f 119/2/3 115/2/3 114/2/3
f 119/1/3 114/1/3 118/1/3
f 120/2/3 115/2/3 119/2/3
f 123/1/3 122/1/3 121/1/3
f 125/1/3 123/1/3 121/1/3
f 125/1/3 124/1/3 123/1/3
f 126/1/3 124/1/3 125/1/3
f 127/1/3 124/1/3 126/1/3
f 128/1/3 124/1/3 127/1/3
f 129/1/3 124/1/3 128/1/3
f 130/1/3 124/1/3 129/1/3
f 131/1/3 129/1/3 128/1/3
f 131/2/3 130/2/3 129/2/3
f 132/1/3 124/1/3 130/1/3
f 132/2/3 130/2/3 131/2/3
f 133/1/3 131/1/3 128/1/3
f 133/1/3 132/1/3 131/1/3
f 134/1/3 132/1/3 133/1/3
f 135/1/3 132/1/3 134/1/3
f 136/1/3 124/1/3 132/1/3
f 136/1/3 132/1/3 135/1/3
f 137/1/3 135/1/3 134/1/3
f 137/2/3 136/2/3 135/2/3
f 138/1/3 124/1/3 136/1/3
f 138/2/3 136/2/3 137/2/3
f 139/1/3 137/1/3 134/1/3
f 139/1/3 138/1/3 137/1/3
f 140/1/3 124/1/3 138/1/3
f 140/1/3 138/1/3 139/1/3
f 141/1/3 139/1/3 134/1/3
f 141/2/3 140/2/3 139/2/3
f 142/1/3 124/1/3 140/1/3
f 142/2/3 140/2/3 141/2/3
f 143/1/3 141/1/3 134/1/3
f 143/1/3 142/1/3 141/1/3
f 144/1/3 124/1/3 142/1/3
f 144/1/3 142/1/3 143/1/3
f 145/1/3 143/1/3 134/1/3
f 146/2/3 144/2/3 143/2/3
f 146/1/3 143/1/3 145/1/3
f 147/1/3 124/1/3 144/1/3
f 147/2/3 144/2/3 146/2/3
f 148/1/3 124/1/3 147/1/3
f 155/1/3 150/1/3 149/1/3
f 156/1/3 150/1/3 155/1/3
f 157/1/3 152/1/3 151/1/3
f 157/2/3 153/2/3 152/2/3
f 158/1/3 154/1/3 153/1/3
f 158/2/3 153/2/3 157/2/3
f 159/1/3 157/1/3 151/1/3
f 159/1/3 158/1/3 157/1/3
f 160/1/3 154/1/3 158/1/3
f 160/1/3 158/1/3 159/1/3
f 163/1/3 162/1/3 161/1/3
f 164/1/3 162/1/3 163/1/3
f 165/1/3 162/1/3 164/1/3
f 166/1/3 162/1/3 165/1/3
f 167/2/3 166/2/3 165/2/3
f 168/2/3 166/2/3 167/2/3
f 169/1/3 168/1/3 167/1/3
f 170/1/3 168/1/3 169/1/3
f 171/2/3 170/2/3 169/2/3
f 172/2/3 170/2/3 171/2/3
f 173/1/3 172/1/3 171/1/3
f 174/1/3 172/1/3 173/1/3
f 175/2/3 174/2/3 173/2/3
f 176/2/3 174/2/3 175/2/3
f 177/1/3 176/1/3 175/1/3
f 179/1/3 177/1/3 175/1/3
f 180/2/3 178/2/3 177/2/3
f 180/1/3 177/1/3 179/1/3
f 181/2/3 178/2/3 180/2/3
f 185/2/3 182/2/3 181/2/3
f 186/1/3 184/1/3 183/1/3
f 186/2/3 185/2/3 184/2/3
f 187/2/3 182/2/3 185/2/3
f 187/2/3 185/2/3 186/2/3
f 188/2/3 182/2/3 187/2/3
f 189/2/3 182/2/3 188/2/3
f 190/1/3 186/1/3 183/1/3
f 191/1/3 186/1/3 190/1/3
f 192/1/4 193/1/4 194/1/4
f 194/1/4 193/1/4 195/1/4
f 195/1/4 193/1/4 196/1/4
f 196/1/4 193/1/4 197/1/4
f 196/2/4 197/2/4 198/2/4
f 198/2/4 197/2/4 199/2/4
f 198/1/4 199/1/4 200/1/4
f 200/1/4 199/1/4 201/1/4
f 200/2/4 201/2/4 202/2/4
f 202/2/4 201/2/4 203/2/4
f 202/1/4 203/1/4 204/1/4
f 204/1/4 203/1/4 205/1/4
f 204/2/4 205/2/4 206/2/4
f 206/2/4 205/2/4 207/2/4
f 206/1/4 207/1/4 208/1/4
f 206/1/4 208/1/4 210/1/4
f 208/2/4 209/2/4 211/2/4
f 210/1/4 208/1/4 211/1/4
f 211/2/4 209/2/4 212/2/4
f 212/2/4 213/2/4 216/2/4
f 214/1/4 215/1/4 217/1/4
f 215/2/4 216/2/4 217/2/4
f 216/2/4 213/2/4 218/2/4
f 217/2/4 216/2/4 218/2/4
f 218/2/4 213/2/4 219/2/4
f 219/2/4 213/2/4 220/2/4
f 214/1/4 217/1/4 221/1/4
f 221/1/4 217/1/4 222/1/4
f 223/1/4 224/1/4 225/1/4
f 223/1/4 225/1/4 227/1/4
f 225/1/4 226/1/4 227/1/4
f 227/1/4 226/1/4 228/1/4
f 228/1/4 226/1/4 229/1/4
f 229/1/4 226/1/4 230/1/4
f 230/1/4 226/1/4 231/1/4
f 231/1/4 226/1/4 232/1/4
f 230/1/4 231/1/4 233/1/4
f 231/2/4 232/2/4 233/2/4
f 232/1/4 226/1/4 234/1/4
f 233/2/4 232/2/4 234/2/4
f 230/1/4 233/1/4 235/1/4
f 233/1/4 234/1/4 235/1/4
f 235/1/4 234/1/4 236/1/4
f 236/1/4 234/1/4 237/1/4
f 234/1/4 226/1/4 238/1/4
f 237/1/4 234/1/4 238/1/4
f 236/1/4 237/1/4 239/1/4
f 237/2/4 238/2/4 239/2/4
f 238/1/4 226/1/4 240/1/4
f 239/2/4 238/2/4 240/2/4
f 236/1/4 239/1/4 241/1/4
f 239/1/4 240/1/4 241/1/4
f 240/1/4 226/1/4 242/1/4
f 241/1/4 240/1/4 242/1/4
f 236/1/4 241/1/4 243/1/4
f 241/2/4 242/2/4 243/2/4
f 242/1/4 226/1/4 244/1/4
f 243/2/4 242/2/4 244/2/4
f 236/1/4 243/1/4 245/1/4
f 243/1/4 244/1/4 245/1/4
f 244/1/4 226/1/4 246/1/4
f 245/1/4 244/1/4 246/1/4
f 236/1/4 245/1/4 247/1/4
f 245/2/4 246/2/4 248/2/4
f 247/1/4 245/1/4 248/1/4
f 246/1/4 226/1/4 249/1/4
f 248/2/4 246/2/4 249/2/4
f 249/1/4 226/1/4 250/1/4
f 251/1/4 252/1/4 257/1/4
f 257/1/4 252/1/4 258/1/4
f 253/1/4 254/1/4 259/1/4
f 254/2/4 255/2/4 259/2/4
f 255/1/4 256/1/4 260/1/4
f 259/2/4 255/2/4 260/2/4
f 253/1/4 259/1/4 261/1/4
f 259/1/4 260/1/4 261/1/4
f 260/1/4 256/1/4 262/1/4
f 261/1/4 260/1/4 262/1/4
f 263/1/4 264/1/4 268/1/4
f 264/2/4 265/2/4 269/2/4
f 268/1/4 264/1/4 269/1/4
f 265/1/4 266/1/4 270/1/4
f 269/2/4 265/2/4 270/2/4
f 266/2/4 267/2/4 271/2/4
f 270/1/4 266/1/4 271/1/4
f 271/2/4 267/2/4 272/2/4
f 275/1/5 274/1/5 273/1/5
f 276/1/5 274/1/5 275/1/5
f 279/1/5 278/1/5 277/1/5
f 280/1/5 278/1/5 279/1/5
f 283/1/5 282/1/5 281/1/5
f 284/1/5 282/1/5 283/1/5
f 288/1/5 286/1/5 285/1/5
f 289/1/5 286/1/5 288/1/5
f 291/1/5 288/1/5 287/1/5
f 291/1/5 290/1/5 289/1/5
f 291/1/5 289/1/5 288/1/5
f 292/1/5 290/1/5 291/1/5
f 293/1/5 290/1/5 292/1/5
f 294/1/5 290/1/5 293/1/5
f 295/1/5 293/1/5 292/1/5
f 296/1/5 293/1/5 295/1/5
f 299/1/5 298/1/5 297/1/5
f 300/1/5 298/1/5 299/1/5
f 303/2/5 302/2/5 301/2/5
f 304/2/5 302/2/5 303/2/5
f 305/1/6 306/1/6 307/1/6
f 307/1/6 306/1/6 308/1/6
f 309/1/6 310/1/6 313/1/6
f 313/1/6 310/1/6 314/1/6
f 314/1/6 310/1/6 315/1/6
f 315/1/6 310/1/6 316/1/6
f 316/1/6 310/1/6 317/1/6
f 317/1/6 310/1/6 318/1/6
f 318/1/6 310/1/6 319/1/6
f 319/1/6 310/1/6 320/1/6
f 311/1/6 312/1/6 321/1/6
f 321/1/6 312/1/6 322/1/6
f 323/1/6 324/1/6 333/1/6
f 324/1/6 325/1/6 333/1/6
f 329/1/6 330/1/6 333/1/6
f 328/1/6 329/1/6 333/1/6
f 327/1/6 328/1/6 333/1/6
f 326/1/6 327/1/6 333/1/6
f 325/1/6 326/1/6 333/1/6
f 333/1/6 330/1/6 334/1/6
f 331/1/6 332/1/6 335/1/6
f 335/1/6 332/1/6 336/1/6
f 337/2/6 338/2/6 339/2/6
f 339/2/6 338/2/6 340/2/6
f 341/1/6 342/1/6 351/1/6
f 342/2/6 343/2/6 352/2/6
f 351/1/6 342/1/6 352/1/6
f 343/1/6 344/1/6 353/1/6
f 352/2/6 343/2/6 353/2/6
f 344/2/6 345/2/6 354/2/6
f 353/1/6 344/1/6 354/1/6
f 345/1/6 346/1/6 355/1/6
f 354/2/6 345/2/6 355/2/6
f 346/2/6 347/2/6 356/2/6
f 355/1/6 346/1/6 356/1/6
f 347/1/6 348/1/6 357/1/6
f 356/2/6 347/2/6 357/2/6
f 357/1/6 348/1/6 358/1/6
f 349/1/6 350/1/6 359/1/6
f 359/1/6 350/1/6 360/1/6
f 361/2/6 362/2/6 363/2/6
f 363/2/6 362/2/6 364/2/6
f 365/1/6 366/1/6 368/1/6
f 368/1/6 366/1/6 369/1/6
f 367/2/6 368/2/6 370/2/6
f 370/2/6 368/2/6 371/2/6
f 371/1/6 372/1/6 373/1/6
f 373/1/6 372/1/6 374/1/6
f 375/2/6 376/2/6 377/2/6
f 377/2/6 376/2/6 378/2/6
