# MagicaVoxel @ Ephtracy

# material
mtllib gun2.mtl
usemtl palette

# normals
vn -1 0 0
vn 1 0 0
vn 0 0 1
vn 0 0 -1
vn 0 -1 0
vn 0 1 0

# texcoords
vt 0.818359 0.5
vt 0.822266 0.5

# verts
v -10 0 2
v -10 0 -2
v -10 3 2
v -10 3 -2
v -10 5 1
v -10 5 -1
v -10 7 1
v -10 7 -1
v -8 3 2
v -8 3 -2
v -8 5 1
v -8 5 -1
v -8 6 2
v -8 6 1
v -8 6 -1
v -8 6 -2
v 0 4 2
v 0 4 1
v 0 4 -1
v 0 4 -2
v 0 5 2
v 0 5 1
v 0 5 -1
v 0 5 -2
v 4 3 2
v 4 3 1
v 4 3 -1
v 4 3 -2
v 4 6 2
v 4 6 1
v 4 6 -1
v 4 6 -2
v 7 3 2
v 7 3 1
v 7 3 -1
v 7 3 -2
v 7 6 2
v 7 6 1
v 7 6 -1
v 7 6 -2
v 9 3 2
v 9 3 1
v 9 3 -1
v 9 3 -2
v 9 6 2
v 9 6 1
v 9 6 -1
v 9 6 -2
v -7 0 2
v -7 0 -2
v -7 1 2
v -7 1 -2
v -6 1 2
v -6 1 -2
v -6 2 2
v -6 2 -2
v -4 2 2
v -4 2 -2
v -4 3 2
v -4 3 -2
v -1 4 2
v -1 4 1
v -1 4 -1
v -1 4 -2
v -1 5 2
v -1 5 1
v -1 5 -1
v -1 5 -2
v 3 3 2
v 3 3 1
v 3 3 -1
v 3 3 -2
v 3 6 2
v 3 6 1
v 3 6 -1
v 3 6 -2
v 6 3 2
v 6 3 1
v 6 3 -1
v 6 3 -2
v 6 6 2
v 6 6 1
v 6 6 -1
v 6 6 -2
v 8 3 2
v 8 3 1
v 8 3 -1
v 8 3 -2
v 8 6 2
v 8 6 1
v 8 6 -1
v 8 6 -2
v 10 3 2
v 10 3 -2
v 10 4 1
v 10 4 -1
v 10 5 1
v 10 5 -1
v 10 6 2
v 10 6 1
v 10 6 -1
v 10 6 -2
v 10 7 1
v 10 7 -1
v -10 0 2
v -10 3 2
v -8 3 2
v -8 6 2
v -7 0 2
v -7 1 2
v -6 1 2
v -6 2 2
v -4 2 2
v -4 3 2
v -1 4 2
v -1 5 2
v 0 4 2
v 0 5 2
v 3 3 2
v 3 6 2
v 4 3 2
v 4 6 2
v 6 3 2
v 6 6 2
v 7 3 2
v 7 6 2
v 8 3 2
v 8 6 2
v 9 3 2
v 9 6 2
v 10 3 2
v 10 6 2
v -10 5 1
v -10 7 1
v -8 5 1
v -8 6 1
v -1 4 1
v -1 5 1
v 0 4 1
v 0 5 1
v 3 3 1
v 3 6 1
v 3 7 1
v 4 3 1
v 4 6 1
v 4 7 1
v 6 3 1
v 6 6 1
v 6 7 1
v 7 3 1
v 7 6 1
v 7 7 1
v 8 3 1
v 8 6 1
v 8 7 1
v 9 3 1
v 9 6 1
v 9 7 1
v 10 6 1
v 10 7 1
v -10 5 -1
v -10 7 -1
v -8 5 -1
v -8 6 -1
v -1 4 -1
v -1 5 -1
v 0 4 -1
v 0 5 -1
v 3 3 -1
v 3 6 -1
v 3 7 -1
v 4 3 -1
v 4 6 -1
v 4 7 -1
v 6 3 -1
v 6 6 -1
v 6 7 -1
v 7 3 -1
v 7 6 -1
v 7 7 -1
v 8 3 -1
v 8 6 -1
v 8 7 -1
v 9 3 -1
v 9 6 -1
v 9 7 -1
v 10 6 -1
v 10 7 -1
v -10 0 -2
v -10 3 -2
v -8 3 -2
v -8 6 -2
v -7 0 -2
v -7 1 -2
v -6 1 -2
v -6 2 -2
v -4 2 -2
v -4 3 -2
v -1 4 -2
v -1 5 -2
v 0 4 -2
v 0 5 -2
v 3 3 -2
v 3 6 -2
v 4 3 -2
v 4 6 -2
v 6 3 -2
v 6 6 -2
v 7 3 -2
v 7 6 -2
v 8 3 -2
v 8 6 -2
v 9 3 -2
v 9 6 -2
v 10 3 -2
v 10 6 -2
v -10 0 2
v -7 0 2
v -10 0 -2
v -7 0 -2
v -7 1 2
v -6 1 2
v -7 1 -2
v -6 1 -2
v -6 2 2
v -4 2 2
v -6 2 -2
v -4 2 -2
v -4 3 2
v 3 3 2
v 4 3 2
v 6 3 2
v 7 3 2
v 8 3 2
v 9 3 2
v 10 3 2
v 0 3 1
v 1 3 1
v 3 3 1
v 4 3 1
v 6 3 1
v 7 3 1
v 8 3 1
v 9 3 1
v 0 3 -1
v 1 3 -1
v 3 3 -1
v 4 3 -1
v 6 3 -1
v 7 3 -1
v 8 3 -1
v 9 3 -1
v -4 3 -2
v 3 3 -2
v 4 3 -2
v 6 3 -2
v 7 3 -2
v 8 3 -2
v 9 3 -2
v 10 3 -2
v -1 5 2
v 0 5 2
v -10 5 1
v -8 5 1
v -1 5 1
v 0 5 1
v -10 5 -1
v -8 5 -1
v -1 5 -1
v 0 5 -1
v -1 5 -2
v 0 5 -2
v -10 3 2
v -8 3 2
v -10 3 -2
v -8 3 -2
v -1 4 2
v 0 4 2
v -1 4 1
v 0 4 1
v -1 4 -1
v 0 4 -1
v -1 4 -2
v 0 4 -2
v -8 6 2
v 3 6 2
v 4 6 2
v 6 6 2
v 7 6 2
v 8 6 2
v 9 6 2
v 10 6 2
v -8 6 1
v 3 6 1
v 4 6 1
v 6 6 1
v 7 6 1
v 8 6 1
v 9 6 1
v 10 6 1
v -8 6 -1
v 3 6 -1
v 4 6 -1
v 6 6 -1
v 7 6 -1
v 8 6 -1
v 9 6 -1
v 10 6 -1
v -8 6 -2
v 3 6 -2
v 4 6 -2
v 6 6 -2
v 7 6 -2
v 8 6 -2
v 9 6 -2
v 10 6 -2
v -10 7 1
v 3 7 1
v 4 7 1
v 6 7 1
v 7 7 1
v 8 7 1
v 9 7 1
v 10 7 1
v -10 7 -1
v 3 7 -1
v 4 7 -1
v 6 7 -1
v 7 7 -1
v 8 7 -1
v 9 7 -1
v 10 7 -1

# faces
f 3/1/1 2/1/1 1/1/1
f 4/1/1 2/1/1 3/1/1
f 7/1/1 6/1/1 5/1/1
f 8/1/1 6/1/1 7/1/1
f 11/1/1 10/1/1 9/1/1
f 12/1/1 10/1/1 11/1/1
f 13/1/1 11/1/1 9/1/1
f 14/1/1 11/1/1 13/1/1
f 15/1/1 10/1/1 12/1/1
f 16/1/1 10/1/1 15/1/1
f 21/1/1 18/1/1 17/1/1
f 22/1/1 18/1/1 21/1/1
f 23/1/1 20/1/1 19/1/1
f 24/1/1 20/1/1 23/1/1
f 29/1/1 26/1/1 25/1/1
f 30/1/1 26/1/1 29/1/1
f 31/1/1 28/1/1 27/1/1
f 32/1/1 28/1/1 31/1/1
f 37/1/1 34/1/1 33/1/1
f 38/1/1 34/1/1 37/1/1
f 39/1/1 36/1/1 35/1/1
f 40/1/1 36/1/1 39/1/1
f 45/1/1 42/1/1 41/1/1
f 46/1/1 42/1/1 45/1/1
f 47/1/1 44/1/1 43/1/1
f 48/1/1 44/1/1 47/1/1
f 49/1/2 50/1/2 51/1/2
f 51/1/2 50/1/2 52/1/2
f 53/1/2 54/1/2 55/1/2
f 55/1/2 54/1/2 56/1/2
f 57/1/2 58/1/2 59/1/2
f 59/1/2 58/1/2 60/1/2
f 61/1/2 62/1/2 65/1/2
f 65/1/2 62/1/2 66/1/2
f 63/1/2 64/1/2 67/1/2
f 67/1/2 64/1/2 68/1/2
f 69/1/2 70/1/2 73/1/2
f 73/1/2 70/1/2 74/1/2
f 71/1/2 72/1/2 75/1/2
f 75/1/2 72/1/2 76/1/2
f 77/1/2 78/1/2 81/1/2
f 81/1/2 78/1/2 82/1/2
f 79/1/2 80/1/2 83/1/2
f 83/1/2 80/1/2 84/1/2
f 85/1/2 86/1/2 89/1/2
f 89/1/2 86/1/2 90/1/2
f 87/1/2 88/1/2 91/1/2
f 91/1/2 88/1/2 92/1/2
f 93/1/2 94/1/2 95/1/2
f 95/1/2 94/1/2 96/1/2
f 93/1/2 95/1/2 97/1/2
f 95/2/2 96/2/2 97/2/2
f 96/1/2 94/1/2 98/1/2
f 97/2/2 96/2/2 98/2/2
f 93/1/2 97/1/2 99/1/2
f 97/1/2 98/1/2 99/1/2
f 99/1/2 98/1/2 100/1/2
f 98/1/2 94/1/2 101/1/2
f 100/1/2 98/1/2 101/1/2
f 101/1/2 94/1/2 102/1/2
f 100/1/2 101/1/2 103/1/2
f 103/1/2 101/1/2 104/1/2
f 107/1/3 106/1/3 105/1/3
f 109/1/3 107/1/3 105/1/3
f 109/1/3 108/1/3 107/1/3
f 110/1/3 108/1/3 109/1/3
f 111/1/3 108/1/3 110/1/3
f 112/1/3 108/1/3 111/1/3
f 113/1/3 108/1/3 112/1/3
f 114/1/3 108/1/3 113/1/3
f 115/1/3 108/1/3 114/1/3
f 116/1/3 108/1/3 115/1/3
f 117/1/3 115/1/3 114/1/3
f 118/1/3 108/1/3 116/1/3
f 119/1/3 117/1/3 114/1/3
f 119/1/3 118/1/3 117/1/3
f 120/1/3 108/1/3 118/1/3
f 120/1/3 118/1/3 119/1/3
f 123/1/3 122/1/3 121/1/3
f 124/1/3 122/1/3 123/1/3
f 127/1/3 126/1/3 125/1/3
f 128/1/3 126/1/3 127/1/3
f 131/1/3 130/1/3 129/1/3
f 132/1/3 130/1/3 131/1/3
f 135/1/3 134/1/3 133/1/3
f 136/1/3 134/1/3 135/1/3
f 139/2/3 138/2/3 137/2/3
f 140/2/3 138/2/3 139/2/3
f 142/1/3 134/1/3 136/1/3
f 143/1/3 134/1/3 142/1/3
f 144/2/3 142/2/3 141/2/3
f 144/2/3 143/2/3 142/2/3
f 145/2/3 143/2/3 144/2/3
f 146/2/3 143/2/3 145/2/3
f 148/1/3 146/1/3 145/1/3
f 149/1/3 146/1/3 148/1/3
f 150/2/3 148/2/3 147/2/3
f 150/2/3 149/2/3 148/2/3
f 151/2/3 149/2/3 150/2/3
f 152/2/3 149/2/3 151/2/3
f 154/1/3 152/1/3 151/1/3
f 155/1/3 152/1/3 154/1/3
f 156/2/3 154/2/3 153/2/3
f 156/2/3 155/2/3 154/2/3
f 157/2/3 155/2/3 156/2/3
f 158/2/3 155/2/3 157/2/3
f 159/1/3 158/1/3 157/1/3
f 160/1/3 158/1/3 159/1/3
f 161/1/4 162/1/4 163/1/4
f 163/1/4 162/1/4 164/1/4
f 165/2/4 166/2/4 167/2/4
f 167/2/4 166/2/4 168/2/4
f 164/1/4 162/1/4 170/1/4
f 170/1/4 162/1/4 171/1/4
f 169/2/4 170/2/4 172/2/4
f 170/2/4 171/2/4 172/2/4
f 172/2/4 171/2/4 173/2/4
f 173/2/4 171/2/4 174/2/4
f 173/1/4 174/1/4 176/1/4
f 176/1/4 174/1/4 177/1/4
f 175/2/4 176/2/4 178/2/4
f 176/2/4 177/2/4 178/2/4
f 178/2/4 177/2/4 179/2/4
f 179/2/4 177/2/4 180/2/4
f 179/1/4 180/1/4 182/1/4
f 182/1/4 180/1/4 183/1/4
f 181/2/4 182/2/4 184/2/4
f 182/2/4 183/2/4 184/2/4
f 184/2/4 183/2/4 185/2/4
f 185/2/4 183/2/4 186/2/4
f 185/1/4 186/1/4 187/1/4
f 187/1/4 186/1/4 188/1/4
f 189/1/4 190/1/4 191/1/4
f 189/1/4 191/1/4 193/1/4
f 191/1/4 192/1/4 193/1/4
f 193/1/4 192/1/4 194/1/4
f 194/1/4 192/1/4 195/1/4
f 195/1/4 192/1/4 196/1/4
f 196/1/4 192/1/4 197/1/4
f 197/1/4 192/1/4 198/1/4
f 198/1/4 192/1/4 199/1/4
f 199/1/4 192/1/4 200/1/4
f 198/1/4 199/1/4 201/1/4
f 200/1/4 192/1/4 202/1/4
f 198/1/4 201/1/4 203/1/4
f 201/1/4 202/1/4 203/1/4
f 202/1/4 192/1/4 204/1/4
f 203/1/4 202/1/4 204/1/4
f 205/1/4 206/1/4 207/1/4
f 207/1/4 206/1/4 208/1/4
f 209/1/4 210/1/4 211/1/4
f 211/1/4 210/1/4 212/1/4
f 213/1/4 214/1/4 215/1/4
f 215/1/4 214/1/4 216/1/4
f 219/1/5 218/1/5 217/1/5
f 220/1/5 218/1/5 219/1/5
f 223/1/5 222/1/5 221/1/5
f 224/1/5 222/1/5 223/1/5
f 227/1/5 226/1/5 225/1/5
f 228/1/5 226/1/5 227/1/5
f 237/1/5 230/1/5 229/1/5
f 238/1/5 230/1/5 237/1/5
f 239/1/5 230/1/5 238/1/5
f 240/1/5 232/1/5 231/1/5
f 241/1/5 232/1/5 240/1/5
f 242/1/5 234/1/5 233/1/5
f 243/1/5 234/1/5 242/1/5
f 244/1/5 236/1/5 235/1/5
f 245/1/5 237/1/5 229/1/5
f 245/2/5 238/2/5 237/2/5
f 246/1/5 239/1/5 238/1/5
f 246/2/5 238/2/5 245/2/5
f 247/2/5 240/2/5 239/2/5
f 247/1/5 239/1/5 246/1/5
f 248/1/5 241/1/5 240/1/5
f 248/2/5 240/2/5 247/2/5
f 249/2/5 242/2/5 241/2/5
f 249/1/5 241/1/5 248/1/5
f 250/1/5 243/1/5 242/1/5
f 250/2/5 242/2/5 249/2/5
f 251/2/5 244/2/5 243/2/5
f 251/1/5 243/1/5 250/1/5
f 252/1/5 236/1/5 244/1/5
f 252/2/5 244/2/5 251/2/5
f 253/1/5 245/1/5 229/1/5
f 253/1/5 247/1/5 246/1/5
f 253/1/5 246/1/5 245/1/5
f 254/1/5 247/1/5 253/1/5
f 255/1/5 249/1/5 248/1/5
f 256/1/5 249/1/5 255/1/5
f 257/1/5 251/1/5 250/1/5
f 258/1/5 251/1/5 257/1/5
f 259/1/5 236/1/5 252/1/5
f 260/1/5 236/1/5 259/1/5
f 265/1/5 262/1/5 261/1/5
f 266/1/5 262/1/5 265/1/5
f 267/1/5 264/1/5 263/1/5
f 268/1/5 264/1/5 267/1/5
f 271/1/5 270/1/5 269/1/5
f 272/1/5 270/1/5 271/1/5
f 273/1/6 274/1/6 275/1/6
f 275/1/6 274/1/6 276/1/6
f 277/1/6 278/1/6 279/1/6
f 279/1/6 278/1/6 280/1/6
f 281/1/6 282/1/6 283/1/6
f 283/1/6 282/1/6 284/1/6
f 285/1/6 286/1/6 293/1/6
f 293/1/6 286/1/6 294/1/6
f 287/1/6 288/1/6 295/1/6
f 295/1/6 288/1/6 296/1/6
f 289/1/6 290/1/6 297/1/6
f 297/1/6 290/1/6 298/1/6
f 291/1/6 292/1/6 299/1/6
f 299/1/6 292/1/6 300/1/6
f 301/1/6 302/1/6 309/1/6
f 309/1/6 302/1/6 310/1/6
f 303/1/6 304/1/6 311/1/6
f 311/1/6 304/1/6 312/1/6
f 305/1/6 306/1/6 313/1/6
f 313/1/6 306/1/6 314/1/6
f 307/1/6 308/1/6 315/1/6
f 315/1/6 308/1/6 316/1/6
f 317/1/6 318/1/6 325/1/6
f 318/2/6 319/2/6 326/2/6
f 325/1/6 318/1/6 326/1/6
f 319/1/6 320/1/6 327/1/6
f 326/2/6 319/2/6 327/2/6
f 320/2/6 321/2/6 328/2/6
f 327/1/6 320/1/6 328/1/6
f 321/1/6 322/1/6 329/1/6
f 328/2/6 321/2/6 329/2/6
f 322/2/6 323/2/6 330/2/6
f 329/1/6 322/1/6 330/1/6
f 323/1/6 324/1/6 331/1/6
f 330/2/6 323/2/6 331/2/6
f 331/1/6 324/1/6 332/1/6
