# MagicaVoxel @ Ephtracy

# material
mtllib gun3.mtl
usemtl palette

# normals
vn -1 0 0
vn 1 0 0
vn 0 0 1
vn 0 0 -1
vn 0 -1 0
vn 0 1 0

# texcoords
vt 0.818359 0.5
vt 0.822266 0.5

# verts
v -10 0 2
v -10 0 -2
v -10 3 2
v -10 3 -2
v -10 5 1
v -10 5 -1
v -10 7 1
v -10 7 -1
v -8 3 2
v -8 3 -2
v -8 4 2
v -8 4 -2
v -8 5 1
v -8 5 -1
v -8 6 2
v -8 6 1
v -8 6 -1
v -8 6 -2
v -7 0 2
v -7 0 -2
v -7 1 2
v -7 1 -2
v -6 1 2
v -6 1 -2
v -6 2 2
v -6 2 -2
v -4 2 2
v -4 2 -2
v -4 3 2
v -4 3 -2
v 10 3 2
v 10 3 -2
v 10 4 1
v 10 4 -1
v 10 5 1
v 10 5 -1
v 10 6 2
v 10 6 1
v 10 6 -1
v 10 6 -2
v 10 7 1
v 10 7 -1
v -10 0 2
v -10 3 2
v -8 3 2
v -8 4 2
v -8 6 2
v -7 0 2
v -7 1 2
v -6 1 2
v -6 2 2
v -6 4 2
v -6 6 2
v -5 3 2
v -5 5 2
v -4 2 2
v -4 3 2
v -3 4 2
v -3 5 2
v -2 5 2
v -2 6 2
v 0 3 2
v 0 4 2
v 1 3 2
v 1 5 2
v 3 4 2
v 3 5 2
v 4 4 2
v 4 5 2
v 6 4 2
v 6 5 2
v 7 4 2
v 7 5 2
v 8 4 2
v 8 5 2
v 9 4 2
v 9 5 2
v 10 3 2
v 10 6 2
v -10 5 1
v -10 7 1
v -8 5 1
v -8 6 1
v -6 6 1
v -2 6 1
v 6 6 1
v 6 7 1
v 7 6 1
v 7 7 1
v 8 6 1
v 8 7 1
v 9 6 1
v 9 7 1
v 10 6 1
v 10 7 1
v -10 5 -1
v -10 7 -1
v -8 5 -1
v -8 6 -1
v -6 6 -1
v -2 6 -1
v 6 6 -1
v 6 7 -1
v 7 6 -1
v 7 7 -1
v 8 6 -1
v 8 7 -1
v 9 6 -1
v 9 7 -1
v 10 6 -1
v 10 7 -1
v -10 0 -2
v -10 3 -2
v -8 3 -2
v -8 4 -2
v -8 6 -2
v -7 0 -2
v -7 1 -2
v -6 1 -2
v -6 2 -2
v -6 4 -2
v -6 6 -2
v -5 3 -2
v -5 5 -2
v -4 2 -2
v -4 3 -2
v -3 4 -2
v -3 5 -2
v -2 5 -2
v -2 6 -2
v 0 3 -2
v 0 4 -2
v 1 3 -2
v 1 5 -2
v 3 4 -2
v 3 5 -2
v 4 4 -2
v 4 5 -2
v 6 4 -2
v 6 5 -2
v 7 4 -2
v 7 5 -2
v 8 4 -2
v 8 5 -2
v 9 4 -2
v 9 5 -2
v 10 3 -2
v 10 6 -2
v -10 0 2
v -7 0 2
v -10 0 -2
v -7 0 -2
v -7 1 2
v -6 1 2
v -7 1 -2
v -6 1 -2
v -6 2 2
v -4 2 2
v -6 2 -2
v -4 2 -2
v -4 3 2
v 0 3 2
v 1 3 2
v 10 3 2
v -4 3 -2
v 0 3 -2
v 1 3 -2
v 10 3 -2
v -10 5 1
v -8 5 1
v -10 5 -1
v -8 5 -1
v -10 3 2
v -8 3 2
v -10 3 -2
v -8 3 -2
v -8 6 2
v -6 6 2
v -2 6 2
v 10 6 2
v -8 6 1
v -6 6 1
v -2 6 1
v 6 6 1
v 7 6 1
v 8 6 1
v 9 6 1
v 10 6 1
v -8 6 -1
v -6 6 -1
v -2 6 -1
v 6 6 -1
v 7 6 -1
v 8 6 -1
v 9 6 -1
v 10 6 -1
v -8 6 -2
v -6 6 -2
v -2 6 -2
v 10 6 -2
v -10 7 1
v 6 7 1
v 7 7 1
v 8 7 1
v 9 7 1
v 10 7 1
v -10 7 -1
v 6 7 -1
v 7 7 -1
v 8 7 -1
v 9 7 -1
v 10 7 -1

# faces
f 3/1/1 2/1/1 1/1/1
f 4/1/1 2/1/1 3/1/1
f 7/1/1 6/1/1 5/1/1
f 8/1/1 6/1/1 7/1/1
f 11/2/1 10/2/1 9/2/1
f 12/2/1 10/2/1 11/2/1
f 13/1/1 12/1/1 11/1/1
f 14/1/1 12/1/1 13/1/1
f 15/1/1 13/1/1 11/1/1
f 16/1/1 13/1/1 15/1/1
f 17/1/1 12/1/1 14/1/1
f 18/1/1 12/1/1 17/1/1
f 19/1/2 20/1/2 21/1/2
f 21/1/2 20/1/2 22/1/2
f 23/1/2 24/1/2 25/1/2
f 25/1/2 24/1/2 26/1/2
f 27/1/2 28/1/2 29/1/2
f 29/1/2 28/1/2 30/1/2
f 31/1/2 32/1/2 33/1/2
f 33/1/2 32/1/2 34/1/2
f 31/1/2 33/1/2 35/1/2
f 33/2/2 34/2/2 35/2/2
f 34/1/2 32/1/2 36/1/2
f 35/2/2 34/2/2 36/2/2
f 31/1/2 35/1/2 37/1/2
f 35/1/2 36/1/2 37/1/2
f 37/1/2 36/1/2 38/1/2
f 36/1/2 32/1/2 39/1/2
f 38/1/2 36/1/2 39/1/2
f 39/1/2 32/1/2 40/1/2
f 38/1/2 39/1/2 41/1/2
f 41/1/2 39/1/2 42/1/2
f 45/1/3 44/1/3 43/1/3
f 48/1/3 45/1/3 43/1/3
f 49/1/3 45/1/3 48/1/3
f 50/1/3 45/1/3 49/1/3
f 51/1/3 45/1/3 50/1/3
f 52/1/3 47/1/3 46/1/3
f 52/2/3 46/2/3 45/2/3
f 53/1/3 47/1/3 52/1/3
f 54/1/3 45/1/3 51/1/3
f 54/2/3 53/2/3 52/2/3
f 54/2/3 52/2/3 45/2/3
f 55/2/3 53/2/3 54/2/3
f 56/1/3 54/1/3 51/1/3
f 56/1/3 55/1/3 54/1/3
f 57/1/3 55/1/3 56/1/3
f 58/1/3 55/1/3 57/1/3
f 59/2/3 53/2/3 55/2/3
f 59/1/3 55/1/3 58/1/3
f 60/2/3 59/2/3 58/2/3
f 60/2/3 53/2/3 59/2/3
f 61/2/3 53/2/3 60/2/3
f 62/1/3 58/1/3 57/1/3
f 63/2/3 60/2/3 58/2/3
f 63/1/3 58/1/3 62/1/3
f 64/2/3 63/2/3 62/2/3
f 65/1/3 61/1/3 60/1/3
f 65/2/3 63/2/3 64/2/3
f 65/2/3 60/2/3 63/2/3
f 66/1/3 65/1/3 64/1/3
f 67/1/3 61/1/3 65/1/3
f 67/1/3 65/1/3 66/1/3
f 68/1/3 66/1/3 64/1/3
f 68/2/3 67/2/3 66/2/3
f 69/1/3 61/1/3 67/1/3
f 69/2/3 67/2/3 68/2/3
f 70/1/3 68/1/3 64/1/3
f 70/1/3 69/1/3 68/1/3
f 71/1/3 61/1/3 69/1/3
f 71/1/3 69/1/3 70/1/3
f 72/1/3 70/1/3 64/1/3
f 72/2/3 71/2/3 70/2/3
f 73/1/3 61/1/3 71/1/3
f 73/2/3 71/2/3 72/2/3
f 74/1/3 72/1/3 64/1/3
f 74/1/3 73/1/3 72/1/3
f 75/1/3 61/1/3 73/1/3
f 75/1/3 73/1/3 74/1/3
f 76/1/3 74/1/3 64/1/3
f 76/2/3 75/2/3 74/2/3
f 77/1/3 61/1/3 75/1/3
f 77/2/3 75/2/3 76/2/3
f 78/1/3 76/1/3 64/1/3
f 78/1/3 77/1/3 76/1/3
f 79/1/3 61/1/3 77/1/3
f 79/1/3 77/1/3 78/1/3
f 82/1/3 81/1/3 80/1/3
f 83/1/3 81/1/3 82/1/3
f 84/1/3 81/1/3 83/1/3
f 85/1/3 81/1/3 84/1/3
f 86/1/3 81/1/3 85/1/3
f 87/1/3 81/1/3 86/1/3
f 88/2/3 87/2/3 86/2/3
f 89/2/3 87/2/3 88/2/3
f 90/1/3 89/1/3 88/1/3
f 91/1/3 89/1/3 90/1/3
f 92/2/3 91/2/3 90/2/3
f 93/2/3 91/2/3 92/2/3
f 94/1/3 93/1/3 92/1/3
f 95/1/3 93/1/3 94/1/3
f 96/1/4 97/1/4 98/1/4
f 98/1/4 97/1/4 99/1/4
f 99/1/4 97/1/4 100/1/4
f 100/1/4 97/1/4 101/1/4
f 101/1/4 97/1/4 102/1/4
f 102/1/4 97/1/4 103/1/4
f 102/2/4 103/2/4 104/2/4
f 104/2/4 103/2/4 105/2/4
f 104/1/4 105/1/4 106/1/4
f 106/1/4 105/1/4 107/1/4
f 106/2/4 107/2/4 108/2/4
f 108/2/4 107/2/4 109/2/4
f 108/1/4 109/1/4 110/1/4
f 110/1/4 109/1/4 111/1/4
f 112/1/4 113/1/4 114/1/4
f 112/1/4 114/1/4 117/1/4
f 117/1/4 114/1/4 118/1/4
f 118/1/4 114/1/4 119/1/4
f 119/1/4 114/1/4 120/1/4
f 115/1/4 116/1/4 121/1/4
f 114/2/4 115/2/4 121/2/4
f 121/1/4 116/1/4 122/1/4
f 120/1/4 114/1/4 123/1/4
f 121/2/4 122/2/4 123/2/4
f 114/2/4 121/2/4 123/2/4
f 123/2/4 122/2/4 124/2/4
f 120/1/4 123/1/4 125/1/4
f 123/1/4 124/1/4 125/1/4
f 125/1/4 124/1/4 126/1/4
f 126/1/4 124/1/4 127/1/4
f 124/2/4 122/2/4 128/2/4
f 127/1/4 124/1/4 128/1/4
f 127/2/4 128/2/4 129/2/4
f 128/2/4 122/2/4 129/2/4
f 129/2/4 122/2/4 130/2/4
f 126/1/4 127/1/4 131/1/4
f 127/2/4 129/2/4 132/2/4
f 131/1/4 127/1/4 132/1/4
f 131/2/4 132/2/4 133/2/4
f 129/1/4 130/1/4 134/1/4
f 133/2/4 132/2/4 134/2/4
f 132/2/4 129/2/4 134/2/4
f 133/1/4 134/1/4 135/1/4
f 134/1/4 130/1/4 136/1/4
f 135/1/4 134/1/4 136/1/4
f 133/1/4 135/1/4 137/1/4
f 135/2/4 136/2/4 137/2/4
f 136/1/4 130/1/4 138/1/4
f 137/2/4 136/2/4 138/2/4
f 133/1/4 137/1/4 139/1/4
f 137/1/4 138/1/4 139/1/4
f 138/1/4 130/1/4 140/1/4
f 139/1/4 138/1/4 140/1/4
f 133/1/4 139/1/4 141/1/4
f 139/2/4 140/2/4 141/2/4
f 140/1/4 130/1/4 142/1/4
f 141/2/4 140/2/4 142/2/4
f 133/1/4 141/1/4 143/1/4
f 141/1/4 142/1/4 143/1/4
f 142/1/4 130/1/4 144/1/4
f 143/1/4 142/1/4 144/1/4
f 133/1/4 143/1/4 145/1/4
f 143/2/4 144/2/4 145/2/4
f 144/1/4 130/1/4 146/1/4
f 145/2/4 144/2/4 146/2/4
f 133/1/4 145/1/4 147/1/4
f 145/1/4 146/1/4 147/1/4
f 146/1/4 130/1/4 148/1/4
f 147/1/4 146/1/4 148/1/4
f 151/1/5 150/1/5 149/1/5
f 152/1/5 150/1/5 151/1/5
f 155/1/5 154/1/5 153/1/5
f 156/1/5 154/1/5 155/1/5
f 159/1/5 158/1/5 157/1/5
f 160/1/5 158/1/5 159/1/5
f 165/1/5 162/1/5 161/1/5
f 166/2/5 163/2/5 162/2/5
f 166/1/5 162/1/5 165/1/5
f 167/1/5 164/1/5 163/1/5
f 167/2/5 163/2/5 166/2/5
f 168/1/5 164/1/5 167/1/5
f 171/1/5 170/1/5 169/1/5
f 172/1/5 170/1/5 171/1/5
f 173/1/6 174/1/6 175/1/6
f 175/1/6 174/1/6 176/1/6
f 177/1/6 178/1/6 181/1/6
f 178/2/6 179/2/6 182/2/6
f 181/1/6 178/1/6 182/1/6
f 179/1/6 180/1/6 183/1/6
f 182/2/6 179/2/6 183/2/6
f 183/1/6 180/1/6 184/1/6
f 184/1/6 180/1/6 185/1/6
f 185/1/6 180/1/6 186/1/6
f 186/1/6 180/1/6 187/1/6
f 187/1/6 180/1/6 188/1/6
f 189/1/6 190/1/6 197/1/6
f 190/2/6 191/2/6 198/2/6
f 197/1/6 190/1/6 198/1/6
f 195/1/6 196/1/6 199/1/6
f 198/2/6 191/2/6 199/2/6
f 191/1/6 192/1/6 199/1/6
f 194/1/6 195/1/6 199/1/6
f 193/1/6 194/1/6 199/1/6
f 192/1/6 193/1/6 199/1/6
f 199/1/6 196/1/6 200/1/6
f 201/1/6 202/1/6 207/1/6
f 202/2/6 203/2/6 208/2/6
f 207/1/6 202/1/6 208/1/6
f 203/1/6 204/1/6 209/1/6
f 208/2/6 203/2/6 209/2/6
f 204/2/6 205/2/6 210/2/6
f 209/1/6 204/1/6 210/1/6
f 205/1/6 206/1/6 211/1/6
f 210/2/6 205/2/6 211/2/6
f 211/1/6 206/1/6 212/1/6
