# MagicaVoxel @ Ephtracy

# group
g gun1

# material
mtllib gun1.mtl
usemtl palette

# normals
vn -1 0 0
vn 1 0 0
vn 0 0 1
vn 0 0 -1
vn 0 -1 0
vn 0 1 0

# texcoords
vt 0.814453 0.5
vt 0.849609 0.5
vt 0.943359 0.5
vt 0.978516 0.5

# verts
v -3 4 3
v -3 4 1
v -3 5 7
v -3 5 5
v -3 6 7
v -3 6 5
v -3 6 3
v -3 6 1
v -2 4 7
v -2 4 5
v -2 5 7
v -2 5 5
v -1 0 -3
v -1 0 -5
v -1 2 7
v -1 2 -3
v -1 4 9
v -1 4 7
v -1 4 5
v -1 4 3
v -1 4 1
v -1 4 -1
v -1 4 -5
v -1 4 -9
v -1 5 3
v -1 5 1
v -1 6 9
v -1 6 7
v -1 6 5
v -1 6 3
v -1 6 1
v -1 6 -1
v -1 6 -3
v -1 6 -9
v -1 8 6
v -1 8 -3
v -1 9 7
v -1 9 6
v 1 0 -3
v 1 0 -5
v 1 2 7
v 1 2 -3
v 1 4 9
v 1 4 7
v 1 4 5
v 1 4 3
v 1 4 1
v 1 4 -1
v 1 4 -5
v 1 4 -9
v 1 6 9
v 1 6 7
v 1 6 5
v 1 6 3
v 1 6 1
v 1 6 -1
v 1 6 -3
v 1 6 -9
v 1 8 6
v 1 8 -3
v 1 9 7
v 1 9 6
v 2 4 7
v 2 4 5
v 2 5 7
v 2 5 5
v 3 4 3
v 3 4 1
v 3 5 7
v 3 5 5
v 3 6 7
v 3 6 5
v 3 6 3
v 3 6 1
v -1 4 9
v -1 6 9
v 1 4 9
v 1 6 9
v -3 5 7
v -3 6 7
v -2 4 7
v -2 5 7
v -1 2 7
v -1 4 7
v -1 6 7
v -1 9 7
v 1 2 7
v 1 4 7
v 1 6 7
v 1 9 7
v 2 4 7
v 2 5 7
v 3 5 7
v 3 6 7
v -3 4 3
v -3 6 3
v -2 4 3
v -2 5 3
v -1 4 3
v -1 5 3
v -1 6 3
v 1 4 3
v 1 6 3
v 3 4 3
v 3 6 3
v -1 0 -3
v -1 2 -3
v 1 0 -3
v 1 2 -3
v -1 8 6
v -1 9 6
v 1 8 6
v 1 9 6
v -3 5 5
v -3 6 5
v -2 4 5
v -2 5 5
v -1 4 5
v -1 6 5
v 1 4 5
v 1 6 5
v 2 4 5
v 2 5 5
v 3 5 5
v 3 6 5
v -3 4 1
v -3 6 1
v -2 4 1
v -2 5 1
v -1 4 1
v -1 5 1
v -1 6 1
v 1 4 1
v 1 6 1
v 3 4 1
v 3 6 1
v -1 6 -3
v -1 8 -3
v 1 6 -3
v 1 8 -3
v -1 0 -5
v -1 4 -5
v 1 0 -5
v 1 4 -5
v -1 4 -9
v -1 6 -9
v 1 4 -9
v 1 6 -9
v -1 0 -3
v 1 0 -3
v -1 0 -5
v 1 0 -5
v -1 2 7
v 1 2 7
v -1 2 -3
v 1 2 -3
v -1 4 9
v 1 4 9
v -2 4 7
v -1 4 7
v 1 4 7
v 2 4 7
v -2 4 5
v -1 4 5
v 1 4 5
v 2 4 5
v -3 4 3
v -2 4 3
v -1 4 3
v 1 4 3
v 3 4 3
v -3 4 1
v -2 4 1
v -1 4 1
v 1 4 1
v 3 4 1
v -1 4 -5
v 1 4 -5
v -1 4 -9
v 1 4 -9
v -3 5 7
v -2 5 7
v 2 5 7
v 3 5 7
v -3 5 5
v -2 5 5
v 2 5 5
v 3 5 5
v -1 6 9
v 1 6 9
v -3 6 7
v -1 6 7
v 1 6 7
v 3 6 7
v -3 6 5
v -1 6 5
v 1 6 5
v 3 6 5
v -3 6 3
v -1 6 3
v 1 6 3
v 3 6 3
v -3 6 1
v -1 6 1
v 1 6 1
v 3 6 1
v -1 6 -3
v 1 6 -3
v -1 6 -9
v 1 6 -9
v -1 8 6
v 1 8 6
v -1 8 -3
v 1 8 -3
v -1 9 7
v 1 9 7
v -1 9 6
v 1 9 6

# faces
f 5/3/1 4/3/1 3/3/1
f 6/3/1 4/3/1 5/3/1
f 7/3/1 2/3/1 1/3/1
f 8/3/1 2/3/1 7/3/1
f 11/3/1 10/3/1 9/3/1
f 12/3/1 10/3/1 11/3/1
f 16/3/1 14/3/1 13/3/1
f 18/3/1 16/3/1 15/3/1
f 19/3/1 16/3/1 18/3/1
f 20/3/1 16/3/1 19/3/1
f 21/3/1 16/3/1 20/3/1
f 22/3/1 16/3/1 21/3/1
f 23/3/1 14/3/1 16/3/1
f 23/3/1 16/3/1 22/3/1
f 25/1/1 20/1/1 19/1/1
f 26/1/1 22/1/1 21/1/1
f 27/1/1 18/1/1 17/1/1
f 28/1/1 18/1/1 27/1/1
f 29/1/1 25/1/1 19/1/1
f 30/1/1 25/1/1 29/1/1
f 31/1/1 22/1/1 26/1/1
f 32/3/1 24/3/1 23/3/1
f 32/3/1 23/3/1 22/3/1
f 32/1/1 22/1/1 31/1/1
f 33/3/1 24/3/1 32/3/1
f 34/3/1 24/3/1 33/3/1
f 35/3/1 30/3/1 29/3/1
f 35/3/1 33/3/1 32/3/1
f 35/3/1 32/3/1 31/3/1
f 35/3/1 29/3/1 28/3/1
f 35/3/1 31/3/1 30/3/1
f 36/3/1 33/3/1 35/3/1
f 37/3/1 35/3/1 28/3/1
f 38/3/1 35/3/1 37/3/1
f 39/3/2 40/3/2 42/3/2
f 41/3/2 42/3/2 44/3/2
f 44/3/2 42/3/2 45/3/2
f 45/3/2 42/3/2 46/3/2
f 46/3/2 42/3/2 47/3/2
f 47/3/2 42/3/2 48/3/2
f 42/3/2 40/3/2 49/3/2
f 48/3/2 42/3/2 49/3/2
f 43/1/2 44/1/2 51/1/2
f 51/1/2 44/1/2 52/1/2
f 45/1/2 46/1/2 53/1/2
f 53/1/2 46/1/2 54/1/2
f 47/1/2 48/1/2 55/1/2
f 49/3/2 50/3/2 56/3/2
f 48/3/2 49/3/2 56/3/2
f 55/1/2 48/1/2 56/1/2
f 56/3/2 50/3/2 57/3/2
f 57/3/2 50/3/2 58/3/2
f 53/3/2 54/3/2 59/3/2
f 54/3/2 55/3/2 59/3/2
f 56/3/2 57/3/2 59/3/2
f 55/3/2 56/3/2 59/3/2
f 52/3/2 53/3/2 59/3/2
f 59/3/2 57/3/2 60/3/2
f 52/3/2 59/3/2 61/3/2
f 61/3/2 59/3/2 62/3/2
f 63/3/2 64/3/2 65/3/2
f 65/3/2 64/3/2 66/3/2
f 69/3/2 70/3/2 71/3/2
f 71/3/2 70/3/2 72/3/2
f 67/3/2 68/3/2 73/3/2
f 73/3/2 68/3/2 74/3/2
f 77/1/3 76/1/3 75/1/3
f 78/1/3 76/1/3 77/1/3
f 82/3/3 80/3/3 79/3/3
f 84/3/3 82/3/3 81/3/3
f 85/3/3 80/3/3 82/3/3
f 85/3/3 82/3/3 84/3/3
f 87/3/3 84/3/3 83/3/3
f 88/3/3 84/3/3 87/3/3
f 89/3/3 86/3/3 85/3/3
f 90/3/3 86/3/3 89/3/3
f 91/3/3 89/3/3 88/3/3
f 92/3/3 89/3/3 91/3/3
f 93/3/3 89/3/3 92/3/3
f 94/3/3 89/3/3 93/3/3
f 97/3/3 96/3/3 95/3/3
f 98/3/3 96/3/3 97/3/3
f 99/2/3 98/2/3 97/2/3
f 100/3/3 96/3/3 98/3/3
f 100/2/3 98/2/3 99/2/3
f 101/3/3 96/3/3 100/3/3
f 104/3/3 103/3/3 102/3/3
f 105/3/3 103/3/3 104/3/3
f 108/3/3 107/3/3 106/3/3
f 109/3/3 107/3/3 108/3/3
f 110/3/4 111/3/4 112/3/4
f 112/3/4 111/3/4 113/3/4
f 114/3/4 115/3/4 117/3/4
f 116/3/4 117/3/4 118/3/4
f 117/3/4 115/3/4 119/3/4
f 118/3/4 117/3/4 119/3/4
f 120/3/4 121/3/4 122/3/4
f 122/3/4 121/3/4 123/3/4
f 123/3/4 121/3/4 124/3/4
f 124/3/4 121/3/4 125/3/4
f 126/3/4 127/3/4 128/3/4
f 128/3/4 127/3/4 129/3/4
f 128/2/4 129/2/4 130/2/4
f 129/3/4 127/3/4 131/3/4
f 130/2/4 129/2/4 131/2/4
f 131/3/4 127/3/4 132/3/4
f 133/3/4 134/3/4 135/3/4
f 135/3/4 134/3/4 136/3/4
f 137/3/4 138/3/4 139/3/4
f 139/3/4 138/3/4 140/3/4
f 141/3/4 142/3/4 143/3/4
f 143/3/4 142/3/4 144/3/4
f 145/3/4 146/3/4 147/3/4
f 147/3/4 146/3/4 148/3/4
f 151/3/5 150/3/5 149/3/5
f 152/3/5 150/3/5 151/3/5
f 155/3/5 154/3/5 153/3/5
f 156/3/5 154/3/5 155/3/5
f 160/1/5 158/1/5 157/1/5
f 161/1/5 158/1/5 160/1/5
f 163/3/5 160/3/5 159/3/5
f 164/3/5 160/3/5 163/3/5
f 165/3/5 162/3/5 161/3/5
f 166/3/5 162/3/5 165/3/5
f 172/3/5 168/3/5 167/3/5
f 173/2/5 169/2/5 168/2/5
f 173/3/5 168/3/5 172/3/5
f 174/2/5 169/2/5 173/2/5
f 175/3/5 171/3/5 170/3/5
f 176/3/5 171/3/5 175/3/5
f 179/3/5 178/3/5 177/3/5
f 180/3/5 178/3/5 179/3/5
f 185/3/5 182/3/5 181/3/5
f 186/3/5 182/3/5 185/3/5
f 187/3/5 184/3/5 183/3/5
f 188/3/5 184/3/5 187/3/5
f 189/1/6 190/1/6 192/1/6
f 192/1/6 190/1/6 193/1/6
f 191/3/6 192/3/6 195/3/6
f 195/3/6 192/3/6 196/3/6
f 193/3/6 194/3/6 197/3/6
f 197/3/6 194/3/6 198/3/6
f 199/3/6 200/3/6 203/3/6
f 203/3/6 200/3/6 204/3/6
f 201/3/6 202/3/6 205/3/6
f 205/3/6 202/3/6 206/3/6
f 207/3/6 208/3/6 209/3/6
f 209/3/6 208/3/6 210/3/6
f 211/3/6 212/3/6 213/3/6
f 213/3/6 212/3/6 214/3/6
f 215/3/6 216/3/6 217/3/6
f 217/3/6 216/3/6 218/3/6
