# MagicaVoxel @ Ephtracy

# group
g floor1

# material
mtllib floor1.mtl
usemtl palette

# normals
vn -1 0 0
vn 1 0 0
vn 0 0 1
vn 0 0 -1
vn 0 -1 0
vn 0 1 0

# texcoords
vt 0.955078 0.5
vt 0.970703 0.5
vt 0.974609 0.5
vt 0.978516 0.5

# verts
v -16 3 15
v -16 3 -17
v -16 4 15
v -16 4 -17
v -16 5 15
v -16 5 -17
v -16 6 15
v -16 6 -17
v -16 7 15
v -16 7 -17
v -16 8 15
v -16 8 -17
v -16 9 15
v -16 9 -17
v -16 10 15
v -16 10 -17
v -15 4 14
v -15 4 -16
v -15 5 14
v -15 5 -16
v -15 6 14
v -15 6 -16
v -15 7 14
v -15 7 -16
v -15 8 14
v -15 8 -16
v -15 9 14
v -15 9 -16
v 15 4 14
v 15 4 -16
v 15 5 14
v 15 5 -16
v 15 6 14
v 15 6 -16
v 15 7 14
v 15 7 -16
v 15 8 14
v 15 8 -16
v 15 9 14
v 15 9 -16
v 16 3 15
v 16 3 -17
v 16 4 15
v 16 4 -17
v 16 5 15
v 16 5 -17
v 16 6 15
v 16 6 -17
v 16 7 15
v 16 7 -17
v 16 8 15
v 16 8 -17
v 16 9 15
v 16 9 -17
v 16 10 15
v 16 10 -17
v -16 3 15
v -16 4 15
v -16 5 15
v -16 6 15
v -16 7 15
v -16 8 15
v -16 9 15
v -16 10 15
v 16 3 15
v 16 4 15
v 16 5 15
v 16 6 15
v 16 7 15
v 16 8 15
v 16 9 15
v 16 10 15
v -15 4 14
v -15 5 14
v -15 6 14
v -15 7 14
v -15 8 14
v -15 9 14
v 15 4 14
v 15 5 14
v 15 6 14
v 15 7 14
v 15 8 14
v 15 9 14
v -15 4 -16
v -15 5 -16
v -15 6 -16
v -15 7 -16
v -15 8 -16
v -15 9 -16
v 15 4 -16
v 15 5 -16
v 15 6 -16
v 15 7 -16
v 15 8 -16
v 15 9 -16
v -16 3 -17
v -16 4 -17
v -16 5 -17
v -16 6 -17
v -16 7 -17
v -16 8 -17
v -16 9 -17
v -16 10 -17
v 16 3 -17
v 16 4 -17
v 16 5 -17
v 16 6 -17
v 16 7 -17
v 16 8 -17
v 16 9 -17
v 16 10 -17
v -16 3 15
v 16 3 15
v -15 3 14
v 15 3 14
v -14 3 13
v 14 3 13
v -13 3 12
v -6 3 12
v -2 3 12
v 2 3 12
v 6 3 12
v 13 3 12
v -6 3 11
v -2 3 11
v 2 3 11
v 6 3 11
v -13 3 6
v -12 3 6
v 12 3 6
v 13 3 6
v -13 3 1
v -12 3 1
v 12 3 1
v 13 3 1
v -13 3 -3
v -12 3 -3
v 12 3 -3
v 13 3 -3
v -13 3 -8
v -12 3 -8
v 12 3 -8
v 13 3 -8
v -6 3 -13
v -2 3 -13
v 2 3 -13
v 6 3 -13
v -13 3 -14
v -6 3 -14
v -2 3 -14
v 2 3 -14
v 6 3 -14
v 13 3 -14
v -14 3 -15
v 14 3 -15
v -15 3 -16
v 15 3 -16
v -16 3 -17
v 16 3 -17
v -16 5 15
v 16 5 15
v -15 5 14
v 15 5 14
v -15 5 -16
v 15 5 -16
v -16 5 -17
v 16 5 -17
v -16 7 15
v 16 7 15
v -15 7 14
v 15 7 14
v -15 7 -16
v 15 7 -16
v -16 7 -17
v 16 7 -17
v -16 9 15
v 16 9 15
v -15 9 14
v 15 9 14
v -15 9 -16
v 15 9 -16
v -16 9 -17
v 16 9 -17
v -16 4 15
v 16 4 15
v -15 4 14
v 15 4 14
v -15 4 -16
v 15 4 -16
v -16 4 -17
v 16 4 -17
v -16 6 15
v 16 6 15
v -15 6 14
v 15 6 14
v -15 6 -16
v 15 6 -16
v -16 6 -17
v 16 6 -17
v -16 8 15
v 16 8 15
v -15 8 14
v 15 8 14
v -15 8 -16
v 15 8 -16
v -16 8 -17
v 16 8 -17
v -16 10 15
v 16 10 15
v -15 10 14
v 15 10 14
v -14 10 13
v 14 10 13
v -13 10 12
v -6 10 12
v -2 10 12
v 2 10 12
v 6 10 12
v 13 10 12
v -6 10 11
v -2 10 11
v 2 10 11
v 6 10 11
v -13 10 6
v -12 10 6
v 12 10 6
v 13 10 6
v -13 10 1
v -12 10 1
v 12 10 1
v 13 10 1
v -13 10 -3
v -12 10 -3
v 12 10 -3
v 13 10 -3
v -13 10 -8
v -12 10 -8
v 12 10 -8
v 13 10 -8
v -6 10 -13
v -2 10 -13
v 2 10 -13
v 6 10 -13
v -13 10 -14
v -6 10 -14
v -2 10 -14
v 2 10 -14
v 6 10 -14
v 13 10 -14
v -14 10 -15
v 14 10 -15
v -15 10 -16
v 15 10 -16
v -16 10 -17
v 16 10 -17

# faces
f 3/2/1 2/2/1 1/2/1
f 4/2/1 2/2/1 3/2/1
f 7/2/1 6/2/1 5/2/1
f 8/2/1 6/2/1 7/2/1
f 11/2/1 10/2/1 9/2/1
f 12/2/1 10/2/1 11/2/1
f 15/2/1 14/2/1 13/2/1
f 16/2/1 14/2/1 15/2/1
f 19/1/1 18/1/1 17/1/1
f 20/1/1 18/1/1 19/1/1
f 23/1/1 22/1/1 21/1/1
f 24/1/1 22/1/1 23/1/1
f 27/1/1 26/1/1 25/1/1
f 28/1/1 26/1/1 27/1/1
f 29/1/2 30/1/2 31/1/2
f 31/1/2 30/1/2 32/1/2
f 33/1/2 34/1/2 35/1/2
f 35/1/2 34/1/2 36/1/2
f 37/1/2 38/1/2 39/1/2
f 39/1/2 38/1/2 40/1/2
f 41/2/2 42/2/2 43/2/2
f 43/2/2 42/2/2 44/2/2
f 45/2/2 46/2/2 47/2/2
f 47/2/2 46/2/2 48/2/2
f 49/2/2 50/2/2 51/2/2
f 51/2/2 50/2/2 52/2/2
f 53/2/2 54/2/2 55/2/2
f 55/2/2 54/2/2 56/2/2
f 65/2/3 58/2/3 57/2/3
f 66/2/3 58/2/3 65/2/3
f 67/2/3 60/2/3 59/2/3
f 68/2/3 60/2/3 67/2/3
f 69/2/3 62/2/3 61/2/3
f 70/2/3 62/2/3 69/2/3
f 71/2/3 64/2/3 63/2/3
f 72/2/3 64/2/3 71/2/3
f 79/1/3 74/1/3 73/1/3
f 80/1/3 74/1/3 79/1/3
f 81/1/3 76/1/3 75/1/3
f 82/1/3 76/1/3 81/1/3
f 83/1/3 78/1/3 77/1/3
f 84/1/3 78/1/3 83/1/3
f 85/1/4 86/1/4 91/1/4
f 91/1/4 86/1/4 92/1/4
f 87/1/4 88/1/4 93/1/4
f 93/1/4 88/1/4 94/1/4
f 89/1/4 90/1/4 95/1/4
f 95/1/4 90/1/4 96/1/4
f 97/2/4 98/2/4 105/2/4
f 105/2/4 98/2/4 106/2/4
f 99/2/4 100/2/4 107/2/4
f 107/2/4 100/2/4 108/2/4
f 101/2/4 102/2/4 109/2/4
f 109/2/4 102/2/4 110/2/4
f 103/2/4 104/2/4 111/2/4
f 111/2/4 104/2/4 112/2/4
f 115/2/5 114/2/5 113/2/5
f 116/2/5 114/2/5 115/2/5
f 117/3/5 116/3/5 115/3/5
f 118/3/5 116/3/5 117/3/5
f 119/2/5 118/2/5 117/2/5
f 120/2/5 118/2/5 119/2/5
f 121/2/5 118/2/5 120/2/5
f 122/2/5 118/2/5 121/2/5
f 123/2/5 118/2/5 122/2/5
f 124/2/5 118/2/5 123/2/5
f 125/3/5 120/3/5 119/3/5
f 125/2/5 121/2/5 120/2/5
f 126/4/5 122/4/5 121/4/5
f 126/2/5 121/2/5 125/2/5
f 127/2/5 123/2/5 122/2/5
f 127/4/5 122/4/5 126/4/5
f 128/3/5 124/3/5 123/3/5
f 128/2/5 123/2/5 127/2/5
f 129/2/5 119/2/5 117/2/5
f 129/3/5 127/3/5 126/3/5
f 129/3/5 128/3/5 127/3/5
f 129/3/5 126/3/5 125/3/5
f 129/3/5 125/3/5 119/3/5
f 130/3/5 128/3/5 129/3/5
f 131/3/5 124/3/5 128/3/5
f 131/3/5 128/3/5 130/3/5
f 132/2/5 118/2/5 124/2/5
f 132/3/5 124/3/5 131/3/5
f 133/2/5 130/2/5 129/2/5
f 133/2/5 129/2/5 117/2/5
f 134/3/5 131/3/5 130/3/5
f 134/2/5 130/2/5 133/2/5
f 135/2/5 132/2/5 131/2/5
f 135/3/5 131/3/5 134/3/5
f 136/2/5 118/2/5 132/2/5
f 136/2/5 132/2/5 135/2/5
f 137/2/5 133/2/5 117/2/5
f 137/4/5 134/4/5 133/4/5
f 138/3/5 135/3/5 134/3/5
f 138/4/5 134/4/5 137/4/5
f 139/4/5 136/4/5 135/4/5
f 139/3/5 135/3/5 138/3/5
f 140/2/5 118/2/5 136/2/5
f 140/4/5 136/4/5 139/4/5
f 141/2/5 137/2/5 117/2/5
f 141/2/5 138/2/5 137/2/5
f 142/3/5 139/3/5 138/3/5
f 142/2/5 138/2/5 141/2/5
f 143/2/5 140/2/5 139/2/5
f 143/3/5 139/3/5 142/3/5
f 144/2/5 118/2/5 140/2/5
f 144/2/5 140/2/5 143/2/5
f 145/3/5 143/3/5 142/3/5
f 145/3/5 142/3/5 141/3/5
f 145/3/5 144/3/5 143/3/5
f 146/3/5 144/3/5 145/3/5
f 147/3/5 144/3/5 146/3/5
f 148/3/5 144/3/5 147/3/5
f 149/2/5 141/2/5 117/2/5
f 149/3/5 145/3/5 141/3/5
f 150/2/5 146/2/5 145/2/5
f 150/3/5 145/3/5 149/3/5
f 151/4/5 147/4/5 146/4/5
f 151/2/5 146/2/5 150/2/5
f 152/2/5 148/2/5 147/2/5
f 152/4/5 147/4/5 151/4/5
f 153/3/5 144/3/5 148/3/5
f 153/2/5 148/2/5 152/2/5
f 154/2/5 118/2/5 144/2/5
f 154/3/5 144/3/5 153/3/5
f 155/3/5 117/3/5 115/3/5
f 155/2/5 153/2/5 152/2/5
f 155/2/5 154/2/5 153/2/5
f 155/2/5 150/2/5 149/2/5
f 155/2/5 149/2/5 117/2/5
f 155/2/5 151/2/5 150/2/5
f 155/2/5 152/2/5 151/2/5
f 156/2/5 118/2/5 154/2/5
f 156/2/5 154/2/5 155/2/5
f 156/3/5 116/3/5 118/3/5
f 157/2/5 115/2/5 113/2/5
f 157/3/5 155/3/5 115/3/5
f 157/3/5 156/3/5 155/3/5
f 158/3/5 116/3/5 156/3/5
f 158/3/5 156/3/5 157/3/5
f 158/2/5 114/2/5 116/2/5
f 159/2/5 157/2/5 113/2/5
f 159/2/5 158/2/5 157/2/5
f 160/2/5 114/2/5 158/2/5
f 160/2/5 158/2/5 159/2/5
f 163/2/5 162/2/5 161/2/5
f 164/2/5 162/2/5 163/2/5
f 165/2/5 163/2/5 161/2/5
f 166/2/5 162/2/5 164/2/5
f 167/2/5 165/2/5 161/2/5
f 167/2/5 166/2/5 165/2/5
f 168/2/5 162/2/5 166/2/5
f 168/2/5 166/2/5 167/2/5
f 171/2/5 170/2/5 169/2/5
f 172/2/5 170/2/5 171/2/5
f 173/2/5 171/2/5 169/2/5
f 174/2/5 170/2/5 172/2/5
f 175/2/5 173/2/5 169/2/5
f 175/2/5 174/2/5 173/2/5
f 176/2/5 170/2/5 174/2/5
f 176/2/5 174/2/5 175/2/5
f 179/2/5 178/2/5 177/2/5
f 180/2/5 178/2/5 179/2/5
f 181/2/5 179/2/5 177/2/5
f 182/2/5 178/2/5 180/2/5
f 183/2/5 181/2/5 177/2/5
f 183/2/5 182/2/5 181/2/5
f 184/2/5 178/2/5 182/2/5
f 184/2/5 182/2/5 183/2/5
f 185/2/6 186/2/6 187/2/6
f 187/2/6 186/2/6 188/2/6
f 185/2/6 187/2/6 189/2/6
f 188/2/6 186/2/6 190/2/6
f 185/2/6 189/2/6 191/2/6
f 189/2/6 190/2/6 191/2/6
f 190/2/6 186/2/6 192/2/6
f 191/2/6 190/2/6 192/2/6
f 193/2/6 194/2/6 195/2/6
f 195/2/6 194/2/6 196/2/6
f 193/2/6 195/2/6 197/2/6
f 196/2/6 194/2/6 198/2/6
f 193/2/6 197/2/6 199/2/6
f 197/2/6 198/2/6 199/2/6
f 198/2/6 194/2/6 200/2/6
f 199/2/6 198/2/6 200/2/6
f 201/2/6 202/2/6 203/2/6
f 203/2/6 202/2/6 204/2/6
f 201/2/6 203/2/6 205/2/6
f 204/2/6 202/2/6 206/2/6
f 201/2/6 205/2/6 207/2/6
f 205/2/6 206/2/6 207/2/6
f 206/2/6 202/2/6 208/2/6
f 207/2/6 206/2/6 208/2/6
f 209/2/6 210/2/6 211/2/6
f 211/2/6 210/2/6 212/2/6
f 211/3/6 212/3/6 213/3/6
f 213/3/6 212/3/6 214/3/6
f 213/2/6 214/2/6 215/2/6
f 215/2/6 214/2/6 216/2/6
f 216/2/6 214/2/6 217/2/6
f 217/2/6 214/2/6 218/2/6
f 218/2/6 214/2/6 219/2/6
f 219/2/6 214/2/6 220/2/6
f 215/3/6 216/3/6 221/3/6
f 216/2/6 217/2/6 221/2/6
f 217/4/6 218/4/6 222/4/6
f 221/2/6 217/2/6 222/2/6
f 218/2/6 219/2/6 223/2/6
f 222/4/6 218/4/6 223/4/6
f 219/3/6 220/3/6 224/3/6
f 223/2/6 219/2/6 224/2/6
f 213/2/6 215/2/6 225/2/6
f 222/3/6 223/3/6 225/3/6
f 223/3/6 224/3/6 225/3/6
f 221/3/6 222/3/6 225/3/6
f 215/3/6 221/3/6 225/3/6
f 225/3/6 224/3/6 226/3/6
f 224/3/6 220/3/6 227/3/6
f 226/3/6 224/3/6 227/3/6
f 220/2/6 214/2/6 228/2/6
f 227/3/6 220/3/6 228/3/6
f 225/2/6 226/2/6 229/2/6
f 213/2/6 225/2/6 229/2/6
f 226/3/6 227/3/6 230/3/6
f 229/2/6 226/2/6 230/2/6
f 227/2/6 228/2/6 231/2/6
f 230/3/6 227/3/6 231/3/6
f 228/2/6 214/2/6 232/2/6
f 231/2/6 228/2/6 232/2/6
f 213/2/6 229/2/6 233/2/6
f 229/4/6 230/4/6 233/4/6
f 230/3/6 231/3/6 234/3/6
f 233/4/6 230/4/6 234/4/6
f 231/4/6 232/4/6 235/4/6
f 234/3/6 231/3/6 235/3/6
f 232/2/6 214/2/6 236/2/6
f 235/4/6 232/4/6 236/4/6
f 213/2/6 233/2/6 237/2/6
f 233/2/6 234/2/6 237/2/6
f 234/3/6 235/3/6 238/3/6
f 237/2/6 234/2/6 238/2/6
f 235/2/6 236/2/6 239/2/6
f 238/3/6 235/3/6 239/3/6
f 236/2/6 214/2/6 240/2/6
f 239/2/6 236/2/6 240/2/6
f 238/3/6 239/3/6 241/3/6
f 237/3/6 238/3/6 241/3/6
f 239/3/6 240/3/6 241/3/6
f 241/3/6 240/3/6 242/3/6
f 242/3/6 240/3/6 243/3/6
f 243/3/6 240/3/6 244/3/6
f 213/2/6 237/2/6 245/2/6
f 237/3/6 241/3/6 245/3/6
f 241/2/6 242/2/6 246/2/6
f 245/3/6 241/3/6 246/3/6
f 242/4/6 243/4/6 247/4/6
f 246/2/6 242/2/6 247/2/6
f 243/2/6 244/2/6 248/2/6
f 247/4/6 243/4/6 248/4/6
f 244/3/6 240/3/6 249/3/6
f 248/2/6 244/2/6 249/2/6
f 240/2/6 214/2/6 250/2/6
f 249/3/6 240/3/6 250/3/6
f 211/3/6 213/3/6 251/3/6
f 248/2/6 249/2/6 251/2/6
f 249/2/6 250/2/6 251/2/6
f 245/2/6 246/2/6 251/2/6
f 213/2/6 245/2/6 251/2/6
f 246/2/6 247/2/6 251/2/6
f 247/2/6 248/2/6 251/2/6
f 250/2/6 214/2/6 252/2/6
f 251/2/6 250/2/6 252/2/6
f 214/3/6 212/3/6 252/3/6
f 209/2/6 211/2/6 253/2/6
f 211/3/6 251/3/6 253/3/6
f 251/3/6 252/3/6 253/3/6
f 252/3/6 212/3/6 254/3/6
f 253/3/6 252/3/6 254/3/6
f 212/2/6 210/2/6 254/2/6
f 209/2/6 253/2/6 255/2/6
f 253/2/6 254/2/6 255/2/6
f 254/2/6 210/2/6 256/2/6
f 255/2/6 254/2/6 256/2/6
